<mxfile host="app.diagrams.net" modified="2024-07-21T07:48:02.241Z" agent="Mozilla/5.0 (Windows NT 10.0; Win64; x64) AppleWebKit/537.36 (KHTML, like Gecko) Chrome/126.0.0.0 Safari/537.36" etag="dEAxoYicw0nHe9LW__ve" version="24.7.1" type="device">
  <diagram name="ページ1" id="vY-0xSJ_UScqvCO2DKuw">
    <mxGraphModel dx="1540" dy="1146" grid="1" gridSize="10" guides="1" tooltips="1" connect="1" arrows="1" fold="1" page="1" pageScale="1" pageWidth="827" pageHeight="1169" math="0" shadow="0">
      <root>
        <mxCell id="0" />
        <mxCell id="1" parent="0" />
        <mxCell id="fEDAulFBuKIm05n7aj-W-9" value="" style="shape=image;verticalLabelPosition=bottom;labelBackgroundColor=default;verticalAlign=top;aspect=fixed;imageAspect=0;image=data:image/png,iVBORw0KGgoAAAANSUhEUgAABDoAAASCCAYAAABTtIyhAAAAAXNSR0IArs4c6QAAAARnQU1BAACxjwv8YQUAAAAJcEhZcwAADsMAAA7DAcdvqGQAAP+lSURBVHhe7N0JQFTl3gbwZ1BkccEFFVxzScUlETNEzQXTyqXFrcSsTCvN0j41r5lWllsm3qxIK82WK5amVi655JqKlFvulmJugUsquAAizHf+Z86BAWdggJkBhud374mZMzNnlnNmnPeZ9/2/ICIiIiIiIiJyFQb1v+MOGtW/RERERERERERF1fSmhvSgo/a3PdSTRERERERERERFzaknV6pBh5t2noiIiIiIiIioyGPQQUREREREREQug0EHEREREREREbkMBh1ERERERERE5DIYdBARERERERGRyyiWs664ubnBw8MDJZS/chra5DNERJYYjUakpqbi9u3buHXrlraWiIiIiIgKE33WFbsFHRIceHt5wb1UKZQsUQIllMVWagNCWVKUBsTNxEQkJydrl9hXmTJl1Mcoj5WIKC/k8ypR+Zy6fuMGUlJStLUOZDTCqHxUG5S/Esoq/1XXGeS0tk79INevJ6eJiIiIiIohu0wvK1+0JTzw9/dHlcqV1dMepUrlKuQQcn25ndxetiPbK6uclu3bQ+nSpVFN2WaF8uUZchBRvsjnlXxW+VWtikoVK5p6hTmAGmgIPbzQPg/lv/pno/xN/5Q0P61Ivz0RERERUTGT52/o8mW/apUqanggPTjsSbZXXtluVaUhIcNL8sOnXDlUrFAh1+ELEVFOvL291c9Be36+6AGFeWiRF/rtGXgQERERUXGTpxTB3d0dVZQv9/LXkdxLllTDDvmbFz4+PihXrpx2jojI/krK55Sdwg4JJfIbcGSlbk+GuBARERERFRO5DjrcDAZU9vW1ey8Oa6Tx4KvcX26HsXh6eqJc2bLaOSIix1E/pypV0s7lg4MCCcYcRERERFSc5DroqOTr6/RhIPKLqYyFt5U8vtxcn4gov0qVKoXyPj7audzRgwh71SXKSt8uAw8iIiIiKg5yFXR4eXnBs4CKecp9y2ILqcvhqAKBRETWlC1bVg1mc0V6cThpaInEHQw7iIiIiMjV2ZwGyJCVvP5aaS+23L8EHDLLChFRQZAZWWwmAYfy2eqonhyWqGEHa3YQERERkQuzOejw8PTM/S+Vdib3L7U3siOzIOSHh6cX6jdshLYdQhHatZu6tOvQGQ0aNVbu27YeJURUfHnb2PNM5cSAw5wzgxUiIiIiImczfdsdd9BY+9se6klrZIrWwtBT4vr167hy9ap27k5VKleGRy6G18gvm/Klv4RbCTQJDEJA03tQ2beKuk7/1fNWSjKMaUZcu3YNRw7+gQP79iAtLTX9tkRE5s5fuIBbt25p5yyTT5eC+vTgZxcRERERuaJTT64Epjc12Nyjw9FTydpKCv5lJzePU/+y7+HhidCHeqg9N8qWKYuYE38hatsWrF31A9Yoy4W482qjRbYdcn8ndHm4JzxKeWYKQ4iIdLZ8DuUnZqhcuTIaN26s/s0LhhxERERE5MpM33Zt6NFRzd/f6bOtWJKamop/YmO1c3eqWaOGdip7esghzym0a3d1aMrFi+ex9/ed+OvPo3IF9XplypZD90f7wMvbGykpKaZ1Zcrh5Ik/sWHtSvXx8NfRwu/DDz/EH3/8gfnz52trrJPrRkVFYdGiRdqa3HnkkUfwwAMPqKf//PNPfPzxx+rpvMjrY+nfvz9CQkIwYsQIbU32pk2bhuPHj9v0+lDO4uPjkXDtmnbuTvn9zOjTpw/69O6N75cuxffff6+tzT1+dhERERE5VvB992HAgAGoUqWKtsa6v5Tv4xMnTtTOFR1rfv4Z7733HjZt3qytsU5GXyz44guEKa+JI+g9OmwOOmpUr14ovhDLF/Oz585p5+5ka9Chu6fFvbi/0wO4dOE8Nqxbrf6VjMPdvSSaNg/CXXXrw6d8BaSlpWm3MIUt5XzKY8fWjdi/d5e21jbScLX2K+yBAwcwdepU7Zztxo8fDz8/P5sbtfZwzz33oEePHqhbt276kKZ//vkHK1aswGblAJfnGRcXl6fnY6vcNObffvtt9U31+uuva2ss69ixI1588UV8+umn6vPIjrwGsr2LFy/i8uXLuHTpEg4ePIg2bdpgx44d6u0lQNDv01pYcezYMfXxWfLVV19hzZo1Dg06Ro8erT6XBQsWWH3OgwcPRqtWreDj46P2bjp58iSWLVuG/fv3a9coOpo2baoeux988AGSkpK0tSZSA+jVV1/FypUr1X2ZVwkJCYhXFmvyO2zFbkGHsjDmICIiInKMBg0aqO2hKVOm2FReQUIRaStOKGJhR4cOHTDnk08w/OWXsWnTJm3tneQ1+GL+fNxW2tPPPPOMtta+cj10JS8hR0BAgHbKspwut8SeYYsUHm3crDlSlIbb7ugoNeRwcyuh3AfUgKPN/Z1Qrnx5NdiQ+9UXmdnl5o3r6m1zW6BUGp7SCJVFGsgSbujnHRkK2JM0il966SU1XJHeBhIKSEP833//hb+/v3at/JFeEfPmzdPO5Z/UV6lWrZoaCkn4MHfuXPU1z6ply5ZqYJNTyCGkkS/bktdAGv916tRBr1691Aay/JWw55xZKKfvZ335+++/1V/+JTCwRoZq5RRyyOVZF3n95EPSfJ2l5/uy8mEk+3Op0mC29pzldtJD5a+//lJPSyBSo0YNi9srCrp27YrmzZvjP//5T6bixnJa1sllch1HKizhAkMOIiIiIsepUKECbt++jb1792Lnzp05L9HRqH/33dqti44tW7ZgmNI+/Pijj9TQwxK9J4e0p1944QVtrePYHHTkVmhoKN58800MHDhQW5OZrJfL77//fm2N89WsdRcq+VbGubOn1boc8qIbjaaeG37VpAcLUKJESXW8vfQkMZeWmoqyZcuhZu27tDXFx5AhQ3Djxg01tJGhDtJA/umnn9SgRhrU9iC9RPJb/FZv4EtgUrt2bXXokYQzEj6sXr3a4mOV8E16K9hKwg7Zjjx36Rkhr4m8FvJXFkvDViRYkBBEDB069I5eEXKZ/tiFfloWS+GCrMu6yGOQIM18nb49nYQh0ktDeozI9a2RgEhCmfDwcPW87O+YmBjcdVfRPPY/Uj6AZRhTo0aN0sMOPeSQdXKZXIeIiIiIiGwjYcdLw4fjk4iIO8IOPeQQg557DsnJyeppR3JY0CFDPSQc6Nat2x1hh5yX9XK5+ZAQZ6vqXw1uBjfEKg1ffRYVPdA4c+pv7IqOwh+7f0PsP2fhVsJN7dkhAYdwU+uVGFDVr5p63l5kiID0NpBGqQxbkB4D0jA2J8Mc5DK5jlxuqUCr9FyQBr5cR/7KeWukAas3vIUM35Dbyd+s9J4CMkQlJ/K45PHpz0WCAHNymf485DHKtoU8Vv20XCZLXugNfAlmJHSQnhcy/bCED5Ya9nKfEmpt3bpVW2Mb6RWhhwA5kfuQxyO1O6wNo5HHKo/blrAir+Rx9O7dG7///nuO25TnZumxymMriiTwkuekhx3jxo1TFz3kkMv0ejxERERERGQbS2FHQYQcwmFBh/zq+9lnn6mnJdR48skn1dPyV84LuXz79u3q6YIgL7r04Lh2LR4lS5ZUe2+UUP5KiHHq5AlE79iKPb/vxB+7f1dnWfEuXVotSurl5YWbN26o/b5LeWR0fc8vCTnat2+vNj6lUStDBKS7kzSMdRJySK8EuUyuI3UhZMiEOblOrVq11IayXGfDhg1o2LCh1bBDQgupvSDXFTLsQobUWBrKIPUNZLiFtWEO5uRxSYFL2a48p3vvvTc9wBAynER/HmfPnk2/THpH6EGEXKY/rvyS3ic3b95UgwlLgoKC1GErua07Ib0i5E2dE3l+skgAJLfRAx7ZL1nDLCGvn9T+EPKY9eBKX7KSIEkPjjp37qytvZMEWHrIkZdCqXKcVqpUCb/88ou2pujRww6pjyLvDVkKa8ghPd++Vfap+SL1OYT8zXqZXJ+IiIiIqCDoYYfU7Hiwa1e1Jod0GHBmyCEcFnQIaQx/oaU3jz76qPoFXP4KWW9LY9mRDAY33FIaNa1at0XfsGfR76lBeGLAIDzebwC6dn8UterUU68nPTq2bFiLUzEncPb0KfwWtQ2HDuyDe0n7TrkrjV9peOkzX8jr8+2336o9KKSBLI1haZDJwaO/dtIwk7BDZ34dPSyQhq80amW9JbItadxL8UoJFaTXQ3b1QqQehS0kNNCfizSoZbjL3WZjzuQ+9Ochf/M7VMUWUg8jMDDQYm8VqTshbz4JCyRUsHQda8wfu7yGsl/MSVAh66UXhOwbKb4j52UfSShlqRiPhAlnzpxRT0vdj//973/qbfTFnBwfMuzGPDiyNhWz1CFJTEzMdcihD6mRME6OARnOQkRERESUH3+fPJnrhQo3NeyQmh1Ke6NMmTIY8vzzTg05hEODDrF+/Xp8/fXX6mm9+Kicl/UFLTkpEcY0o6kOh4eH2sOjlLKUKVMWtWrXRWiXh1G9Zi31useOHMS61T9izYrl+GPP7/Dy8kaJkiWUHZZ51ob8kF4VWetD6EGANKSbNGmins76a74UAdVldx1rDV8hDXO5XHoCSA8Qe5AeG+akN4W8xjp9yIc0oGWmE0eQ+9CHAsny1FNPqeulZ5F5LwrppaCHFfKYJJCQ2VOske3qPWRkqMtDDz2U3iPl0KFDal0LPSiRv9ITRu5fhoCY7xsJOiTMkutn7dXh6+uLEydOqKflONCPBVvJ8WSJvPckqJDX3VJPEmv0ITVSuFR6GsmHV1ElQ5SkB4yEfxIuyiJFSGWdXFaYyOflO+++m2nZog2vkr9PKvvEfHnnnXfUy4iIiIiKgrvq1Mn1QoWbtPmkfXX6zBn1h+7WrVtrlziPw4MO8fPPP6eHHfJXzhcG5+P+Uf5rqsshtTekS42+yKwq0vCv16CRel0pVCqUa6vBSLXq1dX6IudjZRuuQRq/OfWqOH/+vNrDJDcNZEskJJDG/+HDh9UhEFl7KNiDfh/6UCBZJFg4cuTIHb1S6tevrw7JkWE/0rtFQhrpUaGTEENqiuiqK/tfJ71W5D70Xjdye+nNIj0nhAQUUnRUekDovSLMa5LoAYZ5cU+5TIZQ2BpuyPOSAqGDBg3KFKRYIo9PQgvpYSNhRW73pdyXpLQSpOjPoSjRQw4JNo4ePYrp06eri5wujGGHHDfyPjFfimp9FCIiIiJybXpNjhIlSqglK2Q2FksFSh3NKUGHkHBDGpGFJeQQUnBUGrQyXaw5Oe9eygMlS7rDS5s+VsIQPeyoU7c+qtWohX8vXcSZ0/brvi8Nz6z1NvReAbGxserlIuuQChn6oJPriazBgTTa9dtbIo07ITVTsjsIpVEvIUF+gwmpM3L69Gl1e9JwdkTQUbduXTWA0IfPCLkv6bEhDX29Foc09KVHhVxXJz1rzBu7EgCZh0AS9shwEp10y9ILhwoJOmSb5nr06KHuA7mOhBJ6SCDn5TWVx6aTeiG5bczKUCB9SIwMecka5mQlvUuuXLmSY9ghgZG8dy1JSEjQThUdr7zySnrI8d577yEpKUld5LQedsh1HCnzHE4Fp7A8DiIiIiIq+vSQQ+g1OdRhLFZmY3EkpwUdQrqHFyZJSYk4fOAPeJcukz5LjCRPN25cx+YNa7Bi+WLs+T06ozeHcrlvlapoGRwC91Kl1NvK8Bd7kVlBpCu9dPMREmjIEAt53eSXfWkIS+NX1sll0jiVRqgUUtXJ9eT6chCZN6Sl/ods3xJ9W9KzQhrssj19WIYlMh2pNOIlMJBty23lr9xG/tpCeitI+CK3lfuX+iDm9F4Jtm4vP6TmhDwe80BEmA/1kf0SFxenntYfk3kwISQ40cMNCTpk6ElWsk15znoNFHkNZdiLecgiJAiSQq5CXtfs9kdWsn3Z37ZMkythR049OyTMkABOf96yv+T4kmPR1h4nhcm6devUwqN6yKHTww65TK5DRERERES2sRRy6MzDjjZZ2n2OYnPQIcM5CgN7PQ59GtlD+/cg5q9jKFvWB8a0NLU3R7LS4DkVcxxnTp3ExQtx6de9u2EAQrt2g2/lqvjzyGHltnvV9frl+aUPgZBGvzT0ZRiC9How/zVdhjxIw1RqWui9MKR3gDm5vjTKZWYN2Y7U3ZA6Elkb8jqZZUUa5nrDXZ+lRRq0lsg2pU6DkEa6NJblb9myZdX6FLbQhz7IbaVuhqUZPGTmFwlrpDhoXsjrIq+lBEfWGvFCGvFZX0N5HvL45HbyGOQ6O3bsUC+TMCPr9YWs12fskNfIvEisWLlypfpXr9Oh9xCRfWNeGFRed5nZR99f8iGhh0LZkdtJICLHhfTmkMKrttBfX2s1N+SxSYgjx5F+XEpPEDkWiyLpiSNDVcxDDp2sk8vMe+s4hJ0+M/KtsDwOIiIiIhckP5f/c+6c6YwN5Hv/hQsXtHNFR3Yhh04POz799FOnhB2mrgrjDhprf9tDPWlN1SpVsi1m6SzSgDufzc6vWaOGdipnElBIbw2ZOrZjl4dQp34DJN68oe6YmON/4vIluR8DfCpURFU/f1SrXkOdTvavY0ewdcNa5XpJ6dsg55MeBhJkyDAUa6RoaIMGDdShJub03gkSHsjtZUaTrL0TJDRo1qyZGixJbxhLQZH0yNB7ccj1JCSSMCA/5DFLDRAJRIQ8Rnm8cj/m70H9OQgJYyTYknBl165duX4Mch8yjbGEI0Wxl0ZhI71g4h04rEeOZ1muXr2qhpREREREVDgtioxUywvobYbsSM/6mTNnYmd0tLamaJAfTt2Vx27LFLLy4+mHs2ejSdOm2hr7OvXkSmB6U62FbkPQUbFChRwLVTqDNCYvX7minbtTboIOoQcVbm4l0CwwCAFN70E5n/KmBqX2Y6dcLte7eOkCjhzcj0P79iA1LZUhRwGzJeggKgg2BR3K54fyAaKdcS5+dhERERE5j62zjkiv6cJW7qGoyXXQIV3pfc1moSgol/79F4mJ1uti5DboyMrT0ws176qDKlX91S44QnpuyAwtZ06dsmtNDsofBh1UWDm6RwcREREREd0p10GH/Prn7+enFussKFKf4x9tVhFr8ht0EBHll4QctsxIU1A9K9ijg4iIiIhckR502FyMVL4YJ1y7pp0rGDn9Qpp1mlgiooJga4hQUGEDQw4iIiIicmW5SgauX7+eY3ERR5HhKlKfIzsMOoioMCiZy55vzpr7hHOsEBEREVFxkOtkQGpk3L59WzvnHDJk5d/Ll7Vz1hXksBoiIl1uQ1fpXyEhhPSccwR9u+zHQURERETFQa6DjrS0NDXskL/OIPdz8dIlmxoApdzdtVNERAUnL1NxSwjhiCEl6mcnh6oQERERUTGSp7EeKSkpalHQ7GY/sYebN2+q9yP3ZwuZGYaIqKBJjw591qbckmDCHr071Ntr22DMQURERETFSZ6LWsiXaOnZIb0tbA0ibCVDYy5cvKgOV7H1y35+GhZERPbmncfgVXp1qMFEPnth6Ntg4VEiIiIiKm7yHHTokpKSEHf+vBpMqMVKb91Sa2rkhlxfbie3l+3ExsXluuhpubJltVNERAXP29s7X3WDzOMJNe7VQl/5rx4Ay9/0KNj8tGDAQURERETFlOmb8LiDxtrf9lBPFkUlS5aEv5+fdo6IqHCQmaIuX7minSMiIiIiIkc69eRKYHpTQ757dBQ06ZbtW6mSdo6IqPAoXbq02rODiIiIiIicp8gHHZV9feHO2VaIqJCqVLEi6wcRERERETlRkQ46KlWqxAYEERV60uvMk59VREREREROUSSDDplhpWqVKnme1YCIyJnkM6ty5cosmkxERERE5ARFLugo7e2thhylSpXS1hARFQ0+Pj6oUrmyWkCZiIiIiIgco0gEHVKDo0yZMurMKhUrVmQjgYiKLBluJ59lEnowsCUiIiIisr9CGXR4eXmhXLlyahG/av7+8KtaFRXKl2fAQUQuQ4axSO+06tWqqTU8fJTPPPnsIyIiIiKi/DGo/x130Fj72x7qyaw8PT3hUaqU2qtCfn0sUaKEdgkRERERERERkeOl3L6NW7duIUVZkpVFTmd16smVwPSmBqs9OqT3RJUqVdTpW6V3hfzSyJCDiIiIiIiIiJzNvWRJtWZn+fLl1Z7RFSpUgMFg6ruRlcWgo0zp0uoNpScHEREREREREVFhIrmFlLko5e6urclwR9BRWrmyJCMyHSIRERERERERUWEkI1GqVq16Rz3PTGmGXChFP4mIiIiIiIiIigKZyMRcpqBDLrQ2xoWIiIiIiIiIqLCRiVOktqguPejw8PBQLyQiIiIiIiIiKkrKlimjnTILOhhyEBEREREREVFRZF5n1DROZdxBY9D6Z+Dt5aWeJSoMUlNTkZKSgtu3byMtLU09LwsREREREVlWokQJtcEnf6UGo7u7u3qaig6j0ZjrkhJ5uY0r2tZuLjC9qSFj6Ap7dFAhIMHGtWvX8O+//+LKlSu4fv06kpKScOvWLYYcREREREQ50H8slO/Q8l1avlPLd2v5ji3rqfDLS2DBkCOz9KCDKR8VJPlAjo+PV5fk5GQ1kSQiIiIiovyT79byHVu+ayckJPAHxEJG9o+92z+O2GZRkjGIhagAyJAUPWlmwkxERERE5FjSU1rvOS3fxang6EGE9Mawd48MfXvFNexg0EEFRj5YJVGWbnVEREREROQ88h1chrMw7Cg4jh5u4ogApahg0EEFQrrLXb16VS00SkREREREzic9qmU4C4eyOFdB9LIobj07GHSQ08kHqoQctqTHkkBKpWgvLy+ULl0aZcuWTV+8vb3h4eGRaRohZyvO496IiIiIijNX+R7IHyCdS46bguhlIfdZnNouDDrIqeTNJeMBc3qTSXFcCTMqVqwIHx8fNeSQsEOCDX2RoEO/Tvny5dXLHcnSYy6uXcGIiIiIirus3wOLciNS/47OYSyOVZSPkaLG9O4cd9DYbttQ9SSRI0nXuOyKjso/GBJgeHp65ilEkCRaPqSZSBMRERGRs0lDtij/ECY9qeVHRnIM244PCUNM1ylb2h0BNUqhZnmgRsUS8C2trPMw4PotIxLdvHD2mhtOnErAgaNXEZ/qrt5GuRNpVJlOF0Pb2s0FpjfVXgEGHeQE+lze1sibXj5YS5Ysqa3JG/kAuXHjht2KnBb1f7CIiIiIiGxVpkwZ9UdHKgimkKOMd0k81KEmHgmthYpp8Ug4dx6Jt1Jx+3Yq0tKMqFK7KqrUrwWUvIWYsxWx4kZr/LX+R/wV9Stu3pZ2S0ZYYokrt2/0oINDV8gp9PDBGhmqIsNP8htyCHnTyge09AyR+80PhhxEREREVJzId/b8foe2l7p16+LVV1/FpEmT8Nhjj9mlrVAQbHk9TU0OAxrVKYfPp9yPkUOaoY6/F4yGkkhIBm6lpAK3k1Ghggd8a1RSNpqCf2LLYLnXk0hu1hoBr0zD08/2QJ3y0rPdoPzP+n1K+6aw7GNHYdBBTnHz5s1s30zlypVTww57kqAjP3U7GHIQERERUV7ZuyHZoEED7ZRjyeOW7+4FTXqVPPfcc6hevbr6vb5t27bo2LGjdqlz+fr6qqGL/M0tW9oUEkrI4RJ0dxm8938tUKOKN/45Xwn7Uh/ALfdqqOABlEQp3K4UiPgaj+Avt47481pTrC3RDTd9/GC8koCrt1JxpdXTGNLzbjSrrtyv2qOj+IYdplecQ1fIgaRehlRytkaGq8h4wJzI7CpVq1ZVC5OeO3cOiYmJ2iXWyZtX7jsvU2bZ8qFERERERGSNvb5PNm/eHI8//jjefvttbY3jScF/Z81uKGFGQEBApvuTNsJ9992nnTO5cOEC/vjjD+2cyb///ov9+/dnWwcwv/z9/dUfUKX9ERsbq621Tc7HgIQNBtTwLYn3XqyPWvVqIOFmWfzi1h2HjH4oG/sHGt86jMs12+KSTz0klfBUru2GlBvxuO1eCu4llG27GWBIvY1kN280O/oNap34CtPXpiD2irJtCTOs3L+j2zvSY79fv36oUqUKfvnlF+zcuVO7xHEKrEaHdDd64IEH1CdaVApGys6vXbs2/v77b21N4SVBwN13343KlSujUqVKuHLlCk6dOoWDBw+m16wYMGCA2oNizpw56nlHk+5v1kIJSWdlyY586HXt2hWBgYGZxguePXtWfbOsXr0629BDQg55HXJD3vSCQQcRERER5ZW9GpJjxoxBkyZNMHnyZJw4cUJb61jSsJcfGB2tYcOGGDJkiHYub6SdFhERoZ2zP4cGHcrl7u4GvDOwGgIDqqCURxkcMgRjTmwTJFyNRzkvT1RvVB+lynnCeCsZBqTBoLRvDG4lUNLTC0hLRVpyMlCiJIxKWzvt5EF02jcDsZeS8OHmC0hJTSuwoOOhhx5C586d1dMSRL355psOzwD0oMM0VqDdS2/XOr1SPelIEnI8++yzaNWqFUqVKoU///xTu6Rwq1evHmrVqqVOZSopYmEkr62MW3viiSfQqFEj1KxZU+1aVaNGDTRt2hT333+/OjREPgS6deuGatWqYf369dqtHcvadLLyppLAxdqbSz5MRowYgbCwMPV5ZB2TJ7dt3Lix+uaRD5x//vlHuyQzPRnObcpr6BWO5R8NQ6vr32HdUW2lE42Zvx6THq2Kb37aoZ5/fOZyfDSsFa5/tw4F8HAoB/eNisDkpxohdnUUzmnr8u8+jIqYjBeCvfHj5oPaOie7bxQiJj+FRrGrEWW/J0ZERFRs5LchKY3s/v37q6flR79du3appx1NpprNzzBwW7Vo0QL169fHoUOH1N4aMTExuVqkN0iFChXUH9IdRdqB0gNdn+Ext7I9BpTLHgoqgx7BlXBTaa54elfAyvhmOBZfCh6pSajgVwkVK3ojLSkR7tL7Q/l/Ka8yKKGcuHZsP+K2/IKLu6MRf/osLsan4NItb3ifO4b6JRNwKTEV/yRkHyw4MuiQ4T7SlhZyPG3atMnhUxifrtUD2PbJJKfV6JDG5qBBg9TE7vTp01i3bp12SeEn4UBCQoLaQ6JZs2ba2sJDAgxJQUNCQtTz8gHx+eef47333sN///tfrFmzRk0fu3TpghdeeMGmYSL2Ir0prB3M0pPD2htLPsSla56EYrKNLVu2YPz48eqHvCwSmM2fP18NnqTw6OjRo9GpUyft1nfy8PCwGLaQHdTtglemfoDPFizAAlkipmJUt4bI+s9iuY6DMfUD7TrK8sGkp9Ei65Vs2lY5dBw8FR/o11nwASY93eKO+zPXcOj7WPDZBPRx/L/VudJtwmdY8MEraKqdLwy6/Ud5TJ9NQn8/bUVOGg7F+ws+wwR5cf3aYvCE9xGRvm8+wwdTB6NjOe26RERElGvyq7ju3nvvVRv1ziDf4fMy/Du39B8lpQe6tBFzu0g9EXvX+rMXW3pMlC/thq4tyiA5JQ0lYcSVZA+cTPKB261E3FaaURcuxOPA3hNIunZT7dHh6eWFGycO4c8lC3BixWLcPnkIngmxSDu2E4Z963E9IRG3atZFrYZGPNq+HMp5W2/yOzLkENKG27t3rxpIffnll04d0eGUoEMO3sGDB6sFdCTk+Oyzz5As3WuKCHmDy7gvCTtkrFphCzt69uypJmUnT57ErFmz8L///U/tLXPp0iW1l8OGDRswc+ZM9QCTVE0SSWextp/lTZ/dtFXDhg1Te9HImLs33ngDc+fOVZ+fTrYrqe2oUaOwdu1adZ2EPfL8LJEPP+lFRLbrOGYOln83FY9r5y3y6oL/jA5DkG8Kji75ENM/jMS2Sz5o1nc0xpm1lL3ajsI7z7SDT/w2RH44HfPWnQBqdcKIdwYjfY/ZtC0vtB31Dp5p54P4bZH4cPo8mDY1Au8Mtrzvgabo2sgXN09sw/cywqlhf0z44H28knnIp/N59UFQLXfE7lkC+/fV6IhX3o/ABNOPPw7VtGsj+N48gW3y4tYKQj3vWERHKvtv+oeI3HQa8G+HZ955BQX9chMRERUEaUjm58c2+UGvTZs26mkZii3tKn0ogDMUpTZbYWRLkNCweilUr+ShTh9bAmm47lYBl2MvwJiSDPdyFdQeHJ5eHsqx4KmuO/3jQsQs+QLljv6OVpf+woghT+GdN15D8+ZNgcvnYDj2K45dKoWbhvJooGz77moe2j05nxw/kZGRaskEZ4/mcHjQUdRDDl1hDTtkCIpUIJZ6FfLaZh0zJt3NJASR60VFRTm9V4O11E5CB2tvfOn1I4WHbt26pTSWpqs1RnR9+/bFJ598oha2EbJfJB3cvn27eqxJ/RFrpFeHrRydbhYFFfz8UCancKhTsNKwlWDiTcxavRfH9q7H/LfmYE+8O2o166r1svBD3+7N4BO/B3Pemo/1e49h+6LJmL7uNFJ8g9BXL55ty7b8+qJ7Mx/E75mDt+avx95j27Fo8nSsO50C36C+SvPego7d0cgnHkdXbTad9/GHv483nNevyTK/vkGohxPYsyROW2NP/vD1zdtzXP3eCxj0wltYZNPD6ojujZT9cXQV1Ff3t48wfvwsfL1e2X/H9mL918p+3nZJec0boR2TDiIiKqby871SZhmR4dtSiF8ajCI0NPSOId2O4sxf4KV9lZvv60WBLW2vpnd5okRJN7XAqFw7zeiFa5sWocTBjcClc0DidXimXMe/v2/D399+gQu7ohB8bxAGPhSK5id2I/XQHrVw6z2NGuDKudNwT/wXF+MuY+ufJeBdsgTurZd9l2Zntw+dxaFBh6uEHLrCGHa0b99e/SvDUyx9EEnAMXToUHWREMDZDXhrb5zsupdJ4VHx448/qgFOVtITRI4tc1999ZV6bEnNDqnnYYkzh+wULylIuWleDPaSOr4Qek0Uv+5o5q+sPZC550LcD0cRC2/UCmqrrRHZb8uvezOlCX8JB5Zk2hJ+OBoLeNdCpk2pvNCnXT14x+5BppsUuKboG+Sf0cukiPLq007twbEnmxc3Ttk3N+EOdx9tBREREaWTwEKGo0gvjd69e6s9lGVI9rvvvouPPvpIXSektt6ePXvU2QTlh0z54e/9999Xh3YPHz4cTz31FLp374527dqpNSvsxRmN4GvXrqntLPkeL8Ps8xriOGtIT27Y0va6q7K78lU3DWmpt+FVugwO7d6LpvVqob5PSZTYvRref6xB4ubluLRzK3DrNtw9vdAmsAnW79uPi2kGJB47aCoVkJqCW+praURp91REnSuNz3b6oITBei964ao/8Dos6JCGqNTkkJBDCrbIMANpgErvgpyWgiK9BHJaZNiH9DCQwpYSdkihz4IkhXvksfz111/amswuX76sfjBaWpxBPrQsyRpUmAsKClL/bt2qvJmzWLJkiTqftjwvc/IBKeO/hH77rOwzdu9ePPH2fCxflfE6rlo+H1OHdURV7Rq6et3HY853yzNe81XLMX+8qc/BPY+/rV62Sr9s/XJ8M3OYsnUbdByJD79blb7d5fPHo3uWO7/3ibcxf3nGddT7njoMHTNd714Mm2r+XFZh+Zwx6Pj4TCxXzr/UvAxQpjleUi9bjpmPA379J+EzqcfQTUuGV6/DgXhvNOv7H3RrqKzz8kPbwSMQ7BuPA+t+gNqGVxr0PkpTN/Zoli4CiScQfxPw9qllOm/DtoL8ldbyzVjcual45R68oW8qnV9fBCkfKSf2LEGcWthzARYMa6ZcU7mfYaY6EhGjTF0N/NoOxoT3IzLqgyyIwNRRXTKG1ii8WjytXsd0ubJEvI9XrE3n7tUCg6d+plzvA7zSNkuSnrWXifBqiG6jpmbUt/jsA0zoY3mudnkckz6QbZuuG/H+f9BHXjNF/0myrivkpajVVdvWJG0MS9M+GGVeA0VqaGSplSJFVRdEjLJhqIkf+ppeXGTXKcWvkb/yal9C7AFtBREREaWTHyqlYf/kk0+iR48eak9taV9Iu0mGrQiptSc9s6Uxu3HjRnWd/IAnEw/IbIt6UNKnTx/1R9D4+Hj1OvZg7bu8Pclzk9lkZJi9DF2X55MXEvrIJAbZtTOczZagyLdcSdxOM6K0lxviE4yI/uMCnn/lFdzfoDoMyTdQSmnDlDAY4e5VGlL5sJSHB/76dCZ+X7MaJZW2qbGU6UfgwwcPw1iipOw0uKXcUq7vgeM3K2DjP9kXXnNkmCXtZwmvJkyYgNatW2trncNhR8HAgQPV2T+EvEmlcar3LMhpKSgyP7Uti/Tk0HsHSIFSmeqpoMiUTzJ9q7WCnzKWz1LRHlmcwdrjshY6yPORHhtSVEhqjGQlH+AyLZHMxZyVPv2v7BPHuBdj5k/CkLZ+uH5iLeZNmYIp89bixHU/tOr1GqaOyfhQrvr4TMx8tZPS2IzD9m8/wJQp87Dyj8vKm8GUNNdrVQ8VLx/BJvWyD/Dt79dRsXkvjBx/j3q5dTXx5GsdUfrIMnygbHPtkcsoVasTXnrjCe1y5VGOmY9JQ9rC7/oJrJ2nPEa53onr8GvVC69NHZMepjw+8w30alURl7fPU64zBfPWnsD1Mn6osONrvK+cX3bkOnD9CJbJ85zyPr42Tf6SxW/46M1IHHVvhL7jPsGCT6ZhSDtfxK4Lx6ztWlcFH3e4qz01TGcz/IZY2cW+/lqjOudt+cj7LiUFd24qVmlKy6YyN8+b9g2Cf8ppHF0ltz+AyPDpmL7kqHL7mzi6RDk9fTrCI00t8FpKo90n/gA26fUlouPh2ywMQ57W/nHw649xw2SfnsCSD5XbqjVEvOXhW1AX/ccNQzv/mzgw73V8pL8WKq2XSfwJbErvCCHXH42+zXxwSa09Mh3zNsXCp+tjaJSlI5LUO5k2opPyvE5g3Tzlccxbh1jlNes+ejQkf1ol66Zvgwxii91meo7T560y3bhZI+Xxn0b0knnq+nnrTqu1UoaMsJbWZKNpXwT5p+D00VWmQCsrLz+06DYKo4N9Eb9nVbZhCBERUXG2c+dO9d9l89k8Nm/ejNdffx0jR47Eyy+/rA7pFitWrFBr2cl0szNmzMh0G/mRMOt28stZwxrkMS9dulQ9nZ8fkmUGl4Jsm+VFWorSXrqVirNXy2H6j9dwPa004v8+hotbN6J64hUkq+0mN2VfGGBQ9keyW0kkxp3HA55pqB/cFvUf7YsDB5XvsJu2qD1C3CpUhUG5TVqaEZ5ut1HKO/spgh3Zo0Pqy0gYJ0NrHnnkEacNuRIOCzrkDasngNJo1af/sWUpKNIVzNZFn6pUnmNu51K2J/nQy02RTUn7ZGhIdjOU2JO1N461pFUfl2dtPKCk2wEBARafsxxnwlFj+6qOHIwHa5VC3Ka3MHDETHyn/AO0+buZGDHwLWyPK6W0F5+GKW54Am8MaY4yl3/HJyOG4e35q5R/rL7D7PGDMXj8cvUay8cPxBPDxmOmetkqzB8/H5KD+NUzDduxqkxFXF43FIPfno9VyjZnjpiC35UGZKmarUxFQ6uOxOAHa6FU3Ca8NXAEZn6nPEb1egPx1vY4NRR5WstE6lUoA1z+A3Omfqf+Y/rdzBEYOOZ97Di/HzuU83Hqv6e3ECfPc/MO7D8PxC16Cy8MegGTV2tNW6+2GPVOGBopjedNagN7HtYdjYd/14mY1N+8L0Q8Lpk63Fhn67biLyGnTZnch66NfMyGhyQiLuYYjl0yvXdTLimnjx1DTJzpufz20Xi8NnkuFun1JeZ+hT2XAP962nullj983VNwYt0srN6r3FatITIG038wXZyhLrr8ZwS61rqJA1+9mRH46LweQ7N6WYqQdgtDp1pA7KZwrfaI1DF5D69Nj0Z8pqCjKZ55rBl8bh7AV2++h0XblcexfREmf7gNl9zrodMzDZFwRp7XTagjfm6anuOxMwmmmy+ajFfHz8L81dvV9VIrZd2JFHjXCsp1sdD7ujZSHodWhNRc/0mm3iKfTMOIvvVwM/pDvPnRdsthCBEREalOnDiBt956K33YttTmkJp1MmQ+6w+HSUlJ6t9nnnlG/UFZ2iNSv0P+/bX2I2NRIM9VlCuXv+napBdBUVI5sBPOlW2L+bsr4sz5RNyIv4Lf583B779uh29pL6RK1qTs19SkG0ojKQUlS5TCofK1ENSsKU56lMP3W6Mwa8YHSE28AWOVOnCrFwjjrUSULFkCBuW6qcptsuPIMEt+dNdJmOWMHkI6hwUd8iVapv+UJyO/0EvwIdVWbVkKikzLassixYCkR4J8kMg0SFmHUTiTzEoi07Ta+oaW7mAyzWxgYKC2xrGsBR3WDnIZgiLkAy63NTWk+56wZ3c9cz3qyWCA49gxNevc5bsw54iaNqBVd+Xs461Qs5RyzR2zseq86Rp3qofuI6fiQ+U98t3yVVi16g20qqhdlK3TODHbfKP78cf562pPEXXQV4966pCF4zumKo8qs11zjiAOpVBTfZDKP6hXlNtVbIXXPhyDx+/RxrScPw+rD9mCjiPC0MznEraFv4WvpdEtxUHfexM/qDOhhJlN5+oNb2u95lJS1Ea5zdtSjnfrmzL7IO/YCfW8swwPyVY53NdtKP4zaSrej/gMn302DsHmI0dOx+JSijsaPTYJg7s0Va4tEpGYpQXfaNQIhDUCjkZ+iFmbtYDBjF/fZqiVkrkIaZdmteCechrbvs4S9MYcQKx59xW/YNRTHtOlA6uQKT/Rrufrb3nYVgYvNOz4NEZNmISpH8hzXIC+9XL3PjPpiE71vDOKkJpbZeotIkHVkm2n4R08ArMjJqCPtUlxiIiISCVtChnCoQ/Hfvzxx9WhGFlVrVpV7eEsf+WHPpl1UYYhO4Iz6zfo9Q8vXryo/s0L+bH0yJEj2rmiYdvR61gWfR1u7iVRusRtXLoajwtHD6Flo3pw86uOW/+eh6F0GZRv3hLulXxhuB6Pi2WqYOZVd3y59zhW/LQGSVcuwViuMtzu7QaDjz+uJBlxLeYwUhOvIyXxjr7QTiPDkqTuohzTUlfGWT2EhEMHMEndCAk75AnJuLN77smpW37hJ41p6VEgDhw4oPbuKEj6ND1SfdkWesDhrOl9rA1RsZY2S0NVT7Jz2+1Mf27Hjx9X/9pbhdKlgOs3YKkH/nmtOyGko0m9CiiD67hx2lpk8DimfjcXr/Zojqq4gRO/b8e6r6dguy1d+69fgdLut65CaeUhKPdt+UHC9ChNvWGWj5mCedLLI+BBvBT+P6z6ZiaGZS7ikYMWaObvrbS6j2JVpvZ5IlafiAXca6FReschC/UzlNv7SoFKtYdGLrbl7aOGOZm08IVpU3pfj9wWIb0Pr3wwG8P6NoOvezxORG/DD19NxzbzzlpxizB9ziocjfdFu7DRmL3gA0x6+j4t8NC4N0K7Zsojkftdb6l3muUipL7eMiTnpjr8Jlu1fJRXUrl+8Ditxoa+DEMzuSBbfug/aTbGPdMJtbxTcOnANmxa8iGWHM39P37ZFiFNOGPqRXJsO1bPl14pmxArvU3Sp9chIiIia6S4/ocffoh9+/ap5yXMyEp6L+u9HqZOnYrDhw+rpx3BPjXusidD0nv27KkOURe7dmX9uc42crvZs2dbHP5emC1dfQypt1KQcuUCEq/8C6OhJP4tXxUVqlXH7xevoUSN2qg58EVU6dkbNcOeR8X72uLW1YtIvXkdnm5GlC7tids1msDtgUEo4VMFxtTbMNa+B1fP/o0rh3fh4l82fRl2mG3btqk9jpzdbnZo0CHMww5JJIty2FHYQg6xY8cONRwICQnJcRYYee2lwJF0d5PpWJ3BWgpsbWiK+PXXX9W/vXr1sjlFlqJF0ltFijVJrxtLMv3anwc3JCUoU9pib4Kq6lCaW7glvbNMV0Rpa90OhnVFq4q3cHzZc3hi8AiMV/6Bmv2dnXoFZXffVUupEcct9UGKXfju7cF4vMtQvP/tdsSVaY5er72NYTZnHe7IvtONNtPGHqmf4Q3fRmYVL4VXIzXouBS7Rzlj27b2SFEPb1/cuSkJOi5JvmCSqQipDbp1RTOfFByNHIPXxr+HuV9/jdXb4+VuM0nc+z3eGz8cL70uw2pS4N9pGCYONRtHmnIUS2TaXP9OGDGqY+YQRFgqQqpTXgB5uTLL8gDipboIEBsdrvWayLLotTgsafgYgmq549K2d/Hq+MmYNf9rdZhOStb7yJFtRUjTxRyFjBby9rZYzISIiIgskJlVxNGjR9W/MglCq1at1NNnzpxRv/MK/XqO4oweHfJjpRRRlaHt0kbJa4+M7777DnFxNn3zK1QSLsbh0p9/4MKx/UhNva0WGz1udMenh07hZqP2KN1pABKvJSL1ZgpK+JSF36OPofwTr8DQ7kmkBfeCMfQ5lOo8ECV9fJF2OwVpaakoUbEG0sqUR7KyvRspzhsuUpg4POgQetghimrYURhDDiFj2SQhkx4SMq1Uhw4d7khepeiLfDD2799fvZ4zEzVrBWektoi1rktSKFWGsEjhGpkS15wMgZJCRfoYPiFJ94svvqie/umnn9KLNWVlbb2tlh2VniL10WZ81krQ92JYgB9w+QQ2S/t12VGo12wz3vIsKtIzBLdwI86sx8e9vVDPWjCSG9nc973DApQm6mWcUB+kuRNYN/9tDN5+Gijlh3pttNU5OoDTsUoL1rcRumcaluCH/o2kURuLE5uUP8e24XQ84N8sLNMMJnXDglALl3Bi2zHlnG3bOrbtNOLhj2ZhmbaEsKBawKUTUDelUIuQWqofYc68fa8XTI03u37d7mhkedITJMbJsJolkM4Qvv6ZA8b4RdMRvuk0vJs9g3dGtUXG1w/rvUw2ab1Wgrpk/rLi1UV6TmhnxLGjuCT3WSsIKWqviSyLXotD4+5utj0fmWtGatmY9TTx6qKGH7miFiG9qey3722ru1G3EXyVu7h5s+BqGRERERUl0uCvU6eOelpCjSeeeEL9QeOll17CpEmT1F7P8u++aNiwofrXUZxZPFK+x//wwx3Fz1ze9YR4xF88jxIllTZciZIoeU9ndfYU91pN4FHtbiTEXcDxU1cR88cxnFj+A377v2E4879PYKjfAiUa3IcSvjWA1FtqyGF0U7aRlqpsxx2GMpVwK9WIW0bnDT+yRI4hvcSAM5laxO1eervW6ZXqSUeRMWcyLatM/Sk9Dy5cuIDz53NTDaDgFNaQQyev5enTp9UZYeRx3n///ahbty6qVaumTjX12GOPqeGSjOFbuHChU8etyQe1XjApKykoaqk7nPT2+Oeff9QqvTI9cc2aNdVeGrJehrVI9zzp1idatmyJcePGqbO1SBGnzz//3OKwGAlVpABOrsaFBXTFk60q4srv32HdUeBG9HlU7dgegYGd0LVVNZRKLIXKwX0watwgBPkl4o8FEzHn6A25Is5X7Yj2gYHo1LUVqpVKRKnKwejz8igM7lgCP0X7oEfbOqherzkqJ96Cb/tnMW5IAHxueSnbPIFvfjJNb9Lm0adRHxnnA7o+iVYVr+D379bBlO2bqOuV+z/xzU/YYe2+R43DoCA/JP6xABPnHIXyKDFm/nIMbu0Hr1QvVG7SGS880ArVS53Djo9XYZdyBb+OvdC+TnXUrJeKW8374lHfzYi5dxJmjQ5D85RfsPWvRBy+XB3t2jRAozbt0EgmlKkSjO7PDESHWp6IP/AdPlx/BrehHJ8VgtBBed8HB/kiJf6m2hPiuU41kHwgEuE/ynVu27atC6dRIaiD8hkSjCDfFMTf9EenYc+hU41kHIgMx49npKdQRwx6Jhjep1fhk+2mmXgyKdMcndrVQQ1/X+VzyR9dO5XB3gO+6NSmFvzr1EPqpcso0+wxDHuuGbxTPOF58wR+3HwQuO8VvP9qJ/jjJpLcfdCo6yNo06girh/9Aet3XUD1kO7q/tm1+lfs/yMal+u1Q5tmbdCu3iVsiVIeu18YnupbD9d3fYYf/8hcDf36n25o1CkIjYLaoZlPKq4l+aBZ92cw5AEJeZTHcF17DPgbsT5BaKfs3+DgevBJuowU71oI6voYwoZ0RvU127UCp7XQrnsT1PKthxTlY7Z912bYu+mmcr0GqFMjCD7xsUiq1RVDhnVVno9yDyUuKY87CueU0xnPw3ReWYHu8j7YtRpRyoqOg55BsPdprPpku/JoMus/KQJhQf7wcLsJN3lcynMYFtYKVaXA7Gdf4mBGPSoiIiKyol69eukTB8gsIvL9Xv/OLLNXyHdk+Sv17OSHvOjoaPUyR5Bip9YmEbAXeb6yyHAdaQPklrR9pGeLo+qUiLJly6qvt7RH8jKrTbY9Y5TLjAY3lPbyhJvSjil9z/1IadEd7nc1gcHDC7fPn0aJNV8g+bvZSPllKVqU9EJz421cKlMBieWrwJCSpNxeOT6U/WRQmjqGtNvwLlMaJU/txoXYc0grYf1HLWkbObLXjvS4Hz16tPpjvPRKOnTokHaJ45yu1QPY9skkpwUdQg87pEEuB3JRGT8lbxwJO6TwaGELOXRSlFSKvMh4vQoVKsDf3x933XWXelrejHv27MFXX33l9Bli9KDDWsBgbYYUeZzynOTDXYIO+QDz8/NTPwQbN26sTjv16KOPqkWa5ENHQg6ZYkvvxpeVfChZC1wsUd/0AQ9mCjqAf7Aj+h+UqVlP+QenJVp3ao/2QfXhdesktn/6Nib+dEa9rfhnRzT+KSPXa4DA1p3Qvn0QapVJxJnolVj3/QYk1rwXzRs3RNPW7dG6QSn8/fMsHKnwQKZgI09Bh3LedN81UU/5R7Gldt/1vW7h5PZP8fbEn6A/ypqte6FVq+Zo3V55Hq2bwkeex7y38d+9EoMoTeqDqQhoE4SGjVupj/H8huXYVbYTOtUri/jDa7D1r9vAhV3YdjQFtRo0QZNmQQhqVg81pMbFtq8wfe5ONVAR1w9G40/3emjWJAjB7dohqF4JXNmzDHNmb0Z6uSmbtnUdB6P/hHu9ZmgSFIx27YJQr8QV7Fk2B7M3a1vq8gSeCXLH4a/m4rcLplWZ/HsIN/2D0KRREwQHN4F77CZsWLsJ532UbTZpgKDgdgiu547TP8zBUd8OqKfsAzVkUPZncLDyuFq1Ue5XeQ61lOfwxzJ89slOSPs9c0BwG2eidiC+XhsES9hR6xKO1umAHv6x2Bq+Goezjty6HYPtR2+invLcGynPPbhdMBpVvIldC1YgJTAIVfWwRXFFXsuUWsr1miFQeaztlOs2q1UWySf+wIaowzA95b9w1kO5vJk8nyD4Jh/G6s0/4mxSPTRo1ADN5HZBvrgZvQArUgIRZBZsZB90dMETzwTB/fBXmGvpxVVe16DAJmgV3MH0uOp44+bf2/DVu7Oxtuj1JCUiIsq3vDQkW7dunV6rTr7nynf5xYsXq0v16tXVdoletF8Cj9WrV6un7U2+x8uPiY6mBx3SCHa1oEPf99kdA3KMpCpLSfdSKF+9Bjo0KKu0FQIRrzRdSrgZYIARad++j7LX/kVIh17w97sL3srapNJlcN6/PkqmpqrbN6alomQJI5JKlkPXcjEwHlmPvy4pl8mdZHP/jgw6ZPYg+QFeyI/wMgWyo2de0YMO07Mad9DYbttQ9aQzyIForUFaWEmXGzmwiwpJXyXkkKrFuWngO4J8GFh6DPKmlseYXZc46bYnQ3Ik3LBEtiuVfFeuXGl1/8j9yEwsudl/eflHiQoDL/SZMBvdvbfh9fFf21afwyma4pUPRqNR7FcY/p6ts8AUPl59JmB2d29se308vmZwQURElKO8fKf8v//7P7U3tjQIN2/ejOXLl+PGDf3nI1MvDxnOohcqlRlYZIiLvUmbzRlBh/za36NHD7WXel56S0ivAfmeP3HiRG2N/cmPyHobNrc/HOd0DOiXS6+du9uE4NmaRlyt0gjbqz2IP2POw6tcWSTvWodqP32Kdi27Is2Ygvub+2O5R02s87kHZZGqTkHrUcYbnl6lEZi8F/f++z3e//4Ezl1JkzuwGnQ4us0jdSSl7qKQqWanTZum3qcjbWs3F5jeVPq4KJzUo0NXlAIDnbVZQgor6cYmdSwKw2stb1pLQYe8qfTph62RHjSS/EmXPOnhIYGFvEmkh4qk1/PmzVPT3+z2j3wg6UNdcsORb3pyEHV4SC1c2BqO1Xd0myhAHQfhmWB3HLXWy6RI8EPYU31R68JWhK8+jKL3KU5EROR8uf0+Kdd/+umn1d7KMm2sPvGAOSm4uWnTJvX7rfxaLgHByZMntUvtR3oxOHrYipBe/o0aNVKDG/kRNLeLPEb54VOfudERHDl0Rb1MafxLAOCekoimpQHfyzG4q2wKKtVrhAs33JDsdzdSjSm4+8IpdO3cFOXKuyPydi0kl6mIkmkpKO1VEneVuoYHU7ai5Y21mPPzafwVp3xbyybk0DmyzSP7RGovnjt3Tq2/4owf4Au0RwcVP3KAWwsbvL291cURJPCRcCQvb2BHJ5xERERE5Lry8l2yfPnyao9mGZJuCxm6IgX88zolqzUyvFwa92QibRV5PaRNI3UPcys3x0LV0iUxoHUNlG98Hy6VqY7kxDjsTmuGk8YquOtoFJ6pchNbjFWxpXwASieeB9xKwK1MRdx9fSeaXFyPH3b+i5MXktUhL8q9alu9k6u2dfQeHaZnxqCDHEx6bkhPDGukW5x0B7Mn6eUh9ylvYiIiIiIiZyrKDUkpHOmM3hzFiS3Hg34dD3cDfFo+CNzdBh1LRuEewyEcv30XTrnVRsK1VKXd5Abv5H9xrGwISlSsjcSLp3Fz/0Zc3r0JJdTdJu0f1wsxbMGgg5zOWq0OnSTHEnjY40NVenJI4prfkKMo/wNFRERERAWjKH+HdFZtDrImI6RwK10eXjUaon3VODT3u45SSjOplGcppNy4idW3O+HP5Oq4feJ3JP59CGnJpjouxbUnh45BBzmdvKlyKgoqIYfMHJPXObvlPqQ7mSz2egMz7CAiIiKi4kC+g8twGH73dZyCbFvIfYviEHSwPxI5jbyhJMTQ5wG3RB9uIr0xshZeyo7cTsINua0UH7Xnm1fflv7BQERERERkSVH+vig/ODLkcH3FZf8y6CCnkg9QKeST3RtMLpPCpfoMKxJcWPtHQ698fPnyZTXoKGqz4xARERFR0Wb+PbWoNiLlcTPkcA55jQsqECtO+5dBBzmddImTitK2DE+RIqYyb7hMLStTT2VdZPpZZ0xTJPjBT0RERERZFfXviNLbWqZpza7XNdmXfsywx7jjMOigAiEfpJIalypVSltDRERERETOJN/F5QdIzrDimiRIKa5hCo9oKjCSZErNjjJlyrC3BBERERGRk8h3b/kOLt/F+T284DiyZ4e+zeK6fxl0UIHz9PRU5+qW6WXZfYuIiIiIyDHku7Z855bv3vIdnAoHR4QRss3iHGIx6KBCQd6EUqRUus5JF7ri/KYkIiIiIrIn+W6tD1PJaWIAIlfAoIMKFXd3d7ULXaVKldQPYUmcpWipjBvkBzIRERERUfbkO7PUw5Pv0PJdWr5Ty3dr+Y4t37WpaDLv+c5e8DkztRzHHTS22zZUPUlEREREREREVNRsazcXmN7UwB4dREREREREROQyGHQQERERERERkctg0EFERERERERELoNBBxERERERERG5DAYdREREREREROQyGHQQERERERERkctg0EFERERERERELsOg/nfcQeMDe0epJ4mIiIiIiIiIippfWswCpjc1pAcdxmlN1JNEREREREREREWN4fVDatDBoStERERERERE5DIYdBARERERERGRy2DQQUREREREREQug0EHEREREREREbkMBh1ERERERERE5DIYdBARERERERGRy2DQQUREREREREQug0EHEREREREREbkMBh1ERERERERE5DIYdBARERERERGRy2DQQUREREREREQug0EHEREREREREbkMBh1ERERERERE5DIYdBARERERERGRy2DQQUREREREREQug0EHEREREREREbkMBh1ERERERERE5DIYdBARERERERGRy2DQQUREREREREQuw6D+d9xBo3FaE/UkERERERERZS/q9z3Y+8dBnDp7DjdvJmpryVV4e3uhdo3qaNG8KUJaBWlrqbAzvH4ImN7UwKCDiIiIiIjIRmf/icO3S39C6dJeSgO4JerXrY0ypUtrl5KruH7jBo7HnELU77tx40Yinuz9CGpU89MupcJKDzo4dIWIiIiIiMgGEnJ89NkChLRqgWHPDURgs8YMOVyU7FfZv7KfZX/Lfpf9T0UDgw4iIiIiIiIbSE+ORx56AG1bt9LWUHEg+1v2u+x/KhoYdBAREREREeVAanLIcBWGHMWT7HfZ/3IcUOHHoIOIiIiIiCgHUnhUanJQ8SX7X44DKvwYdBAREREREeVAZleRwqNUfMn+l+OACj8GHURERERERDmQKWRZeLR4k/3PqYSLBgYdREREREREROQyGHQQERERERERkcswqP8dd9BonNZEPUlERERERGSL05eBaWuMWBht1NbYX62KQG1lmTPATT1dUF4Z+yY+mvGOdo6KKx4HhZvh9UPA9KYG9uigwmvnFBgMBhjejdJWUGERt6i3um96L4rT1hAREVFx8+txI5pOSlNDDgkgHLVImPLrcaDbR2nqfRIR5YRBBxERERVa0sAZFmlEd6WBI6eJqPCY/rMpdBgQbMDBt9wcurz+sEH9DNDvk4goOww6ipKzkegtPRzstbCnRLGT9PdeLFswAS/364zOzfwzHQ/+zZR1XYdgzPvzsWznEVxN0m5ERFRApFGj/1qs/5qbNeyQ8/ILL3/lJXI+eV+KOWGm0fCOIr06Btxnuo9TDDyJyAYMOohc3lWc/DkcA5r5w6tOEHo/NwURSzZi48HMw07iDirr1s9H+Ngh6B3SGBW8/DFll3YhEZGT6SGHuL++6RdjWWcedujX6f6R9PhwbI0Ayj/ZX7KPuJ9ci4QQzmA+jIWKp8tXruKvEyfztVDxwWKkrkbqWoRMAPouROziMPhpq4sk/bm8swPGiSHaSsqVv5dhzHPDEb5JQg0/BPTsjeGDBiA0JAB1/MrD03QtTRKuXo3FyagobFyxEBFzVmNwlBFvtNYuNiM1OvzDlqFXZCyW9i/SRxkRFUJ6gCEk5Fj1iul3GRnCotcCWK2s+/Uvo7pOJ78qSyBChVO5kWmmwOpfI9rdbcDrD2XsK3uEH7UqyfHC/e9Msk/l/ShDS5xBPhfk8yFhdsH8VssilAXn5/WbsFpZ8qtihfIYOfQ59W9e8Tgo3FiMlMjFnVzxMtrU6a2GHHX6zsSGMydx+KePMfzxEATcEXIIT5QvXwctHg7D6E9WISYxFoOVBoYrSTq+GuEvdceQJSyiSlRYWQs5hB5kyHXUnh1XtAuo0JOhRbI/ZR+GaUMQdDJjhwRW+V2kV0+RlmbE++PT8HWMdl7sT0Of2UYcS9HO28FvC9LQTNlmvJxJMOKzJcpp01uOqFCK3rVXDTkknAi+t0Wel7vr1VF7hfxv8XJty+TKGHQQuaCTS4ag8yMRiEIIhkcexuHFoxFa485oI1uefvDz1U67iKu/z8eYOatx5ba2gqjIURpCI9Pw1FonNegOpuGBiWlYck4772DZhRw687BjmgsXJTy1XHntw404pZ13mmPK/Y5Nw2fHtPN2UruiQa2tIKHGthPaSo3UXpBCk/ldHF0nwuGOGvFjovJaVdfOK/44rCzeyjp3bYWdnCoH+MgJZbueJ43o/ZURzizNJe9fDmEiW/0V87f6t1uXTniq3+P5WiQs+fcyU/LigEEHkYtJ2jkFA/rNx0mEYPKvq/Fx/wALvTeIiHJ26i/gtwSgihNCT1tCDp3rD1ExYst+5bUvCdjUufq8EU+NTFOHEeS0/HRJu40Vp5SG9W8pQMO7tBV2IsMbZKhKrQpAu3qm0zr9svwuRf2Y+C1a+U8rAzp4mM5LD4+t+4ARbQ2O+3fcy4CnXzHgwb+M+Ei5L2eR97qEXsXTRayd+SZembkF7F+aO/kZbiL020uvDnJ9DDqIXMn1jZjw+AREwQ9hkQvxRrv8/YNARMWZEb8dUf5UN6CR3vBykNyEHDqXDjvOGfGT8pogxoiaFsIKWQavN2skVgYi3jXgTDbLfOkl4AXUzja0MmKLNHaVXdFzrOX7LTc/741T2V/6QllcNWLxfmBst4zXJul3Iz5U3grBNYyIT7C+JGUddpJo+Xr64iNfDW4jY10K8MJwA/rVNZ0nyq+Ew6swa9oPOKSddxQZ0iILkSUMOohcRhKi/jsG4XGA32sLMb9/HW09ERU5+y00MNXFiHeVi39abbRwmbJMNeK8aQv5l6B8iVQ21uFuoKq2yhHyEnLoXDXs+GMLsM4L+MVCYHGmr+k6jfzNnrebAT7lslnKAH/HKvuxoQHNtZtYkrTfiM+uAjNfsnC/4w14QblOh4qm65J9ndpkxM57DOiq/z6RZsTiNcD5G8ADE42omc2y4qJ2G81v31q+nr602qxc6WCW9TOMaKad/s20GaI8u/lPDE5eSZI8zaGk1oYsUqiUKCsGHZTJ1aMbEfn+y+jdtQ3qGgwwqIs/God2xpCx87H6aD67el06gtULxmBIpu3XRZuuQzBlURTi7DBA1OHPobA6vhCT35RUuxfCR4QWyHCVpLNRptc+pK72uhvg36wzer8UgdXH8/i6K8fMxkURGPNcZ3Ru5p++3bohvfHy+8uwN4du2ERFUoCFhqa2vKZc/EhHy5edGWnHUOJvI35U/vRt4bggIT8hh8487JCu8LLNIu28Ee9HK/u4kwH3WQgtrmqN2ua1TH9t8peyL5WXuV9j7bxFSoN5pXL3dQ14ouGd9+uTaISU7bivlusFSwVO2efvbAXuqiZlwbVVG0yh5oH/uiFhvAGPKKd/ma2ctrD0tfCmf6SbweJ1Zfmrh3IFZT+fsXCZLPeZNkFUaFTShpxUqlhB/auTmhtCCpUy7KCsGHSQyd+rMaVfXVQI6IwBYyOwbH0c/LqEIlRd6iBp00bMf38IugdUgH/oGCwz1QTKhauIer836lZujO7PhWP++pPw7KRtv5MnTq6fjwlhbeBfpzMmrM9jg9jhz8E6qYvRRhrgIVOwNxdhTV5vZ8ne5RFYrfxtMWMCwmqY1jnN7ZNYNqoz6tRso772O67X0V73EHgd3Ihlc15G97sD0HnUatg6g/lVmSElrDH8lWOmc9jLCF+wESfLNNaOmQAk7lyGiLG9EVS5DV5eYXmrMg2uHoyooUvYMnX9srCMwCRj6Y3Is+rFRAXP3UJDU120hpA3LFymLKXt1wiVIojnvZQGtZ1rNejsEXLo9LBDtqnOxlJkww4j1n1rxE+lgde6WNqXRhw7rfypakBz5Viw1R97gf3K3w4B1o+PpGgjxp8HJj6qHEfaOnPxyv1uUf42r206nxfdlX0j+1z+yiwsJEz7fIn58JOrRryv/IP+Qm8Dajvgm3pVCUZuKPvcdJYKs9tXsGv555gy6R11StNXxr6DsTM/x5J9lotpJpzYjnkfTsUo7bpvfLIWh67txzw5/z/lQz0L0/VnYNQ4ub6yTJiB9/63HScTtSto/vifXP4t/tDOZ9DqjejbvrAFU5TtTFkniexh0/1aue/ckBlTJr0+6o4aHbKeYQdZw6CDcHX9BLSp0x0TliQi9PmPserIFSQaY7Bj3QZsUJcdiDEakXhyB+b9XyiwKRy9QzpjyjYbA4nrRzD/6QC0GbsMJ+v3wszVh3ElJRaHN2rb33gYsSmJiNn4MQYHHMaUrkEYssTW5rCJw59DDjxbj0b4xBbAzgkYPsfGsYJJexH+f1JPIwSTPxqNFvnqgrEXGyPlfltgQBflcTjT7ZOIfK4Nev/3JNrMWIXDF42IPWD+uiciduNM9Kofh43/7Y4B70bl/OVqVziC7u6OMYuOwKvvZCyMikFiihExUdp21WPmCvZEDldevShEPNIGY9Zb2GoZPXDRlqZ+6mq/pmbr0pc6KF9SvZiIlMaXFEHMaahDXpmHHFKIMj8hh07CDglMinLYcWqtEcNjgInKc7lrWxr6fGLEMfMGRzKwRbm8Q0Aueu5oBS2rNjWgvbVwJNGId78FarcyoJ/FYMuIfVKvRWljNM9jYVo92Fit7Ot2dxuw7bh6ViWzb8jxkN9FApSitt/Vfa58Ffn4Hm2Fsr+WfKa83vcY8Iqyz8xd1WtqmC131OewRup2KMePqrIBj5w3m9FHprUdm2VaWyp4iYfx1bT/4qvoK/C6pzOeCeuDZ3p3QAPEYmvkf/HeL5nHLCUe/BaTP12Lw7fq4sHeynXDuivv+T8xf9ZK/Kldx1zcxjl4W71+LTz4uFy/Dx5vWQEJB9di1oxv8UeWsMMmPo3xmGynaRnlTE20l8csS/vcdEG7kwQc1gqRMuwgaxh0FHPSo6Bb1ymI8gvFG+uOYMNnw9GtUXmLwx487wrB4FkbcGTdGwjFRky4vxum7Mqpyao0gl8KxZBv4hDyylLEHFmK0Q8H3NmgLOmJOp2GY57SMF44MBHzR0zAMhuzDsc/B1t4ImTsTIxW2tFRoyZgvtkXOGv2zhmOCTuBkKkRGH1vvlIO4PgerJYCcoEDEBpoWuUcVxA1bQAGrA/FvCOHsfS1bgi440uwJ/w6jcbS3zfgDeWxRb05HOE7c3jNbyepodjHUVcQs/gNhLWuA887jpnyaNH/Y6xePRp+iEP405OxMctm/XrO1AIX07JwfBt1fZvxCzOtNy0z0c2UgxAVIkZ8ND4N7++28ut3shFfz7b/VKAybGWd8iX36abaeZURfyxXGt9L8vdLvHnIIe5XGr32UquSaVtFMexI2p+GwauB9t0MeE0auP4GNIw1otXENHyk7f/4aOV4UP52bWz7a5ak3PZDZV++ECyfxhZIw/ojZbteQHhfK7N7KA3krUeBDoEG5KNDh0qCLZl5xdxp7cdp2V/5WWT6Wtl+UaHv86kvuKGR/o1cea3/LmPA/Gfu3Bd9zGtqaMtHVn4ov6OOzzgjhm/W3rtVgYbKn1OxprNS9PSz0sr+tXPvLQm3Mj0Gs0XIPrN0mXw+sMfPbfyx9AfsuuGPHq+OxajH2+LewHtwb3AHDBkzFs809cTZdd9jY7x29eTDWLjkMBKrdcbYUU/iwWDluoEt8eBTr2Bs2wq4I7O4sAXz18Si5D1PYsoY/fr3IPTx5zHl1Q7wu6Fsb4WleCQHHpXRRNlO42rKBwrKooE8ZllqSfDhOAw7yBIGHcXZ2WUYrM7QEYLJy1dhchfLSWlW5btMxqolb6CFcssJr0Qgu/4LJ78ZgwHfxMFv4EIs/LAX6uT0i3nJOgj7ZBkm3xWJ4aM+1lZmwwnPwWZlQjH5a2l0r8aQ8ZHZTxm2L1x5flFA68mI+L8Wlr9Y5kLc3o3YKCe6tECAusY5ri6fgOFvQnnt52NwoxyeRflQjHlnuPL67MWErzci2740NXrh8N6lGN465/1Z/uEJiBiknIibgmV5HfZEVFhJ4HBD+ethpWHroTR+lcbK13uzNApyMd1ouQV3NijOHzMNU2h/j/n9GnCX0kBdt0N5TPl4q0kAIRzZIDXv2VE0GLH/oPJ51sqAiAdNr7nP3QZMedOA75UP9Q+/NqLn/DR8Jt/dldftEWml2sSIxUpD+rxym36Z9qUZZV/+fRuY/4obmluZXUeKlH6tvJR977M9YMnq/voGNYiQRqzUUjEPO2Rq2INvWa4XkZtFtlGkKK3PRt0M6OuvnRdeBrz2kuUhK5ZqdLyWKYzMkLlGhwErGisfF/o2lb/NqwPRfynvfa3oaT9lHzhimIwabFlYdNldVqwl/4Go/UnwCuqMB+/4EcYT93ZsiXKIxe+7tZTwr/1qD4zmD3SAX5b96Bfa9o6eeSejo5Xvqf54qGdjmYwpM78OCFU+YxL37Hf4rCnmPvx0gWmYSx4XKUqqk7DjrxO56x1OrscBH2lUNCRh4yfDEam0xkNmReCN1rlranu2m4CZrymfvDvHYPIiK036S6sRPnaZ8oE5HPNnhcHmOUDKhOCNOTPhH5fT7OJOeA655NllAuYPU7a5ZDQmr7DWEjiJ+ePHmMKZfA9ZMYk9rsYcCL27Tr5Dk9zYuGQZPHPx2pfv0guD5R/sORuxJ7tOHTUCEGBz+F8eoY8PV09F/LqHY47JpeiBw313m87fyYD2gcD+fUb8Yd6mLw+89rTSuLFl6aTdJp0R0UqjG40NCM7S8PVprzS+lXWfbcr7r621lYaM1NOYMyDvjeacjHvYVLPDnr1FHMuA+8Lc8P1TWX7Fdzeg62A3/PK40ujYD7x7GXi6g+29KqTuhtxGegmcv+MnXU1FpWE93i1zYzsTLSypZcCjMkVtPkgQoS+uOFtObnkGu+FjLdiyHyOuJmgnzVz4F2hUVb8vA5o3Ut7HR4Bja4x4WTnOXmhl//0h4Zb5PjdfhIQali6TRW5brMVfh7LLUMm3sul8VjX81e/VZy+Yhq/ExcnfyqhZRT2bmdudvzImKNuHW2VUtVSQByVRp2YFIO0izjqp4PvlK6bvzPoQlbwuROYYdBRXl1YjcprSuPdTGuTP56WmgydCX5iMbsqpZQtWWSwweXJFBCKUu+j2zmh0y+2Y3sBeGP6wdtoaJzyH3CuPbuMjEOYXhwhl2xuVf0eykl4uQ36205AVTVKiKajxK39HLu9ggzFmYC5ee88gtFF7Fm7E3qPqGrso36wNesmJ43HQeuISuQDrgYO55spb8B6lEStDC9J5KA2ZlgZ0sGW5K0uDQmkkbT0NvBAgn5JZuBnwSBtg3VYjtujj/XNJ6nFIPQ1Hk/twxv04Q+0QAx6Uj/fSwPPtbXxOWt0NVAf6KsfHgI/yNvWwHpZMedhykVJyHos1OlK0C83E3wAa+mZ/nNRuCXQ9bESrtcDHyvvEEb05KP/cPdy1U5Z5uZuHGJ7wys3XQI+SyH7rJeGVzb899iQhxYgXB6kFR/O66ENXhJy+u57NP7GSi+LHWjF1NWoj5it//V7qjdC8DpurH4peXZS/6yOx8Y6aFCexcdFq5W839OqUlw+aOgh9PFQ7bZnjn0Me1eiF8A/D4BcXjjEzshTe/DsSY55eZrchKyZxOKk1cBrXvKN/o2P1DUWbXIVY5eGvPsa9SLJn1ws/P1OPoeUnsx8yRFSUnDPi69PAa0EWAgdzDQ14oSLw4Xal0aOtyo/4fUZ8pvztGmi5oVRbaWg/nQYsiSruY+idxYjfIo14NxGY+KQBzW355qbX3VBORrzghoingKrK8TR+bS73WawRwyUsaWzA89lOTUvOYLFGhxSJzeLvi8q/tlm+F/19HrjLvHOAr3IsKa3chq2U97ODZlaifPApg0rKn7hz/5jOZ3U2Vv2Bzs/P1IXDXe21cQX/WpqMJTkRt7WTunLK9pEYi7N6jY9MbuPkGWVDXpXhV9a0pmoVGWt2GzezBtxpsThzQTtdgGSYigx9ERJySM0OIgYdxVIS9vwaoZ4a0Do/HwR1ENRJGq0bsfdIlmEacXuxcb3yt0svhNY3rcot/7uye2xOeA754Nd3MsL7Ks35d0cjPL3YaRyWvTkay+w4ZKXANauD3EYr/neZCoLuOWnHSMLTC1lq2xEVeX9sAdZ5AY+0zOkXfAMe7QCcP2jEirz8ZJ+JNrtGXQOCrc3QUR7o2xT4eovZrA3kIEb88a0RA/YB9ykN0les1dkwl2bElvlGDD4HTBxkQFdlf3kqx9Cse4Ala4xYYmu3t0Qj3v9Iub5yDC582kqR0lySApMyw4r8lRoqlDsWa3Tos7XoLgFH04CG/kacP23q9XFeec1/VL7x106fqscUnn1dCvBQPjfMh739sTotb7NtkH15NMe9jaVOxgasvePrUhJ2bd6NBLcGaH+vKdGq1KguKuG68t17d5bCo7dxcs3WO2pt1GnZXLl+LNasOHxnodK4Ldh4TNnmfcFooK2qVEFSsj/xx/7McXri7v0WppzVXUGcHYe+WKu5wZCDrGHQUSzFIk7tvdALQXfn76uL3mjdcTzLh8/fRxApf1s3Nv3SngeeZbNrujrhOeRLHYTNWKg8uoxip1dXTMZwmX3GjkNWClqv+gXQLfD6VcQdjcLGnyMR8f4EvNyvM9rc3QYTtIuJXEKs0siMBh7pZNsv+D7BSiNYud7s1fns1ZEMrDsMvKB8T0wfpiDTUl5SGka7lUbvkjS8O9uImX8p65WG6k9WZnwgO9ACiz5RSgM10ICVWet3WJJixE+fGNHzIPBamEFpBOvBiNQAUY4R5dT4b2wYwnLZiHenKsst4H/KgXWfHUZFSrAxbKER204A03824lcphGlGApD8LpypQ2kCn1Dep74GNCxnwFXlNZFeH3d/C3R4XDkG1M8S5b28wIgHlPfwwokGvKDs22+2ZbxuycrB8aHZeXKg5Fgc3rcfu7Ish+Kk/0VJ3PvEk2juFYuVH8zArOXbTZdHb8G8mTPwlfIeb/5UH9yrDy2p1hl9g5RPiGM/4q0PV2Gjuq3tWPLxLMy75p8eWKSr9iCGdvVH4v5v8cbMb7E22nTfG5d/jjc+2II4ZXtDH84o3ON+z324tzRwaOkczPtlt3bdOZi8vSSaS9eTLPxq1ISX8l19w8otynV3Y8nGPMzgYkYKjUqYkTXsYMhB2WHQUSzF4aRamLiO9PjPF786Qerfvdczf7WOO7lH/RvqsKEUjn8O+XZXGGZ+1k0tdjrhvxGY/EIE4uw6ZEVXHn5at1O79pIoJJLO7sWyBRJotEFdgwGGshXgH9AGnbsNwMtjpyBiyUbE+YbkOVAjKozi/zWivPId87UuNvyCL7wM6NceeKJpDsNcspEUa8TXc03DHbasVxrLY7VZWcYpjaV3lYbRIuVyCTiUL7XPP6E0ossD3+1jg8ghLhnx7lvKPtgPPNjZgJWDbAg55DbvGPHUCVPIMTFrsU/lGBnxEHD+nBHvb7Wy39KMOLY2DT2V/f21cnbFeDc8YrVIae6cumxUC9FK3ZSw+wzpU8oKmYVlWGT+l+4fFfHjMVX7m2dGKO1VdFA+B6RgbcO+Ws+P/7phitR2kfDsc1PIsWKMBFjK58bjyteU1Ub8pv6sb1SnnG3kb+PnDuVP/GEsj/weX2VZfjiovTm8GmPI2GEICyqLf3evNV2+fAvOerfEM2PHYkhT80+Fkmjy5CiM6tkYla7sNm33+99wpvpDGBV2z50zqyj8HhiGt59tiwaIwdqlpvteuf826nR/FlNGZJm9xaMBnhnRByHVEnF43Y/46tsfsPWy8vhe7IyaJbTrmGv0EJ4JqYzbRzco212FfYl2SEst0GdaYchB1o07aCQXETVZ/pU3ou9CY6y26k47jJPlOpisnMon/f7eybyl2Mhe6vpekdYfRY6sbNvE8c/BPvYYZ7aWxylLiHHy74naevvaM9VPvY8Ws/ZoaxwrP/vX5tvGbjDO7FtHe+1kqWMM6RJqHPzaTOPHkauMG6IOG2Ov6K+nbceDXY5LogKVZpwxItU4YE2adt6OdqUa67+WauzxZqpx9LxU46fKfWzelWb8Oz7NmHhLu46ZfYtSjWVfTTVGp2orcmnrX2nGsspzGbrQfs9FtiXblG0XSRfTjF9FKPtBeQ71J6QaF/9pw/NITTMeXZNq7Kzd5sez2npLlOt++Lqy3/6j7LckbZ1Q1sf9lmocrtxeXr8Byut4NY/71RrZJ03eTjVO/TnN2O1D01/dqX+N6vn8Lv/bWUT3uyL6C+W1/8LK449LMw5Q9ku0dtaqk6nG3sr1vrJ0DCjH1jvK/q3/TqpxX7y2TpWm3rd6vG1Sbq+8pzebHxs5kONF9mtuyfGQl/ep3JfcZ0F5+bWJ2qkiJPUP4+fK437t+xPaiqLnm++Wqa/9n8djtDUmO3/fc8e6nLw5NTzf+7FIHgfFiGQbyvd99uggcqwWCO2lJcyBoQhtZN++HDr/+qbCrXv/ioX9Ko0UnJMrXkYb/84YswTo9c5CbDhyBYnGGOxYtwHzZozG8P7dENo6AH7lHfN6EhVLLd3w1ww3rJjkhpmD3fDCg6ZZWWqXM8DTQmn+5o2Bro0MqGph1gfKI+W1/O0sMOJJA3Yp+6GvLdPjKt/k4i8CjdqZbvNIdlPAuhnw9EPAK50MaGi+T5VtRG8FEusa8Kuyjf+FGeBj52+IMl2oTClcqwLUHh2vP5Tx3GSaUTmf36W4T1mblAz4tTKgn6VjQLnMM0A5Rt5wQ/NM9XcMuO8ZAyJqAO8sV27fTXnfO2GmDTkeiv0Uss7yZwxk4IheuNSVSC8Ozq5C1jDoKNZcodpU4X4OSbumYPjYvfCrXwd++6Zg9H+zzMJiJ34tQqFGHXM2Yo8j7sCJ5DUb8EgEolq/gVWxMVg6MQyhjcrbebgPUVFlwGuzlYbog4WggXCPG75/0YDaTpp+sFjwN+DjqW54JSQ3QYPSUH3KDR/3te02Pu3dMEU5fjJf14BHRrth/iADmpfXVjmANGwljCjugYQl9w1yQ4Ly+ltU1YD/Ke/7+7Sz1ng2VI4Da7VcqiufHdYCLDcDur7ohgPKfXxs63A5KhrSLmLtmj1INCtcSlRcMOgolvzgJ1Oq4ghOnlVX5Jlei6NFmSz/rJY0nV9m1wKf5pzwHPIraS/CX5mAKL/hmB+1AxED/RD15miE73RAElE/CN0C5cRCbIwqyklHHJbNUF4ztMDMOZPRLRf1V1whtiOi/Dn9r9pblYiomLmItR9/hLnfrtUKke5H1C/fY9aUj7DyH080ePTBjMKlRdDddU3F6KQmR36Wt6bNwuUrV1nPo5hg0FEs+aOO2ihehsN/qyvy7OTxHerfNllm3/CrqU24/1es0nTNGz2AsMzxzyF/khD1/nBM2OmHsA8noJuvH3q9E26aheX/whF1Xbua3bRArxHdlL9xmDJnWZ5f8wJ3diOWLlH+dhmOXur+tdHfJyEzYhJR0SG/7suQBZkto/tHaflemk5Kw6/HTcMg2CWeyDVxWmJrKqBO4wqIP7EbK7WippEb/0RipWCEjRiBV0JketiiS4KJbl06qSFF9K69eV7k9hUrlEdwy9x8yaSiikFHseSJxi16qadWR8nEp3m1FzuWSZO6F9q0yNLXtVELDJe/3+zA4Tx1MEjC4b3LtNOWOOE55EPSznCMfjMKfgPDMbmv1i0hfRaWCQ4ZwlKn53AMl7taMhoz1xfRXh1nT0Ld64F1kJtC/1cP7DDdjoiKFLVmQ0WoAUV+F2kAybZkm0TkHPfXN733ZOYcR5OZdQSHPllSEg1Cn8J/3hiPWTPewUeyTB2PN17qjpAarjFk5eEunTDp9VEY8eKgfC2yDdb1KB5MnxQy68q0JupJKuJ2ToEhZALQdyFiF4fBas//S8swpHJvzPd7AxtOTkZoXkZt7AtHUIsx2GvxvuIQ2c8fA5b44Y2NJzG5Uy7vIGkjJtTpjCmSQbyzA8aJIab15hz+HPLoehQm3N8GU/b1wsKTSxGmTf1qshfhIUEYszMEk6M24o3W9h0uc/Lz7qj7wmrAbzQ2/DUToQ76ty1uUW/4hy1Dr8hYLO2fu1ct29vqx6+1fW7RVSx7rgJ6q9OoT8YO4xuwdsv8PG4ichx7/UorQQcROY+8d6U3lXDk+8/8M2LVKwVXyPSVsW+qIQIVbzwOCjfD64eA6U0N7NFRXPl2Q9jrSkMvbgrCv8lLHY2rWP3ZTKXZ7ofRz/eyEBD4oVv/wcrfvA2lOPlNuCnkyI7Dn0NeJCFqxnBM2Qf0+npmlpBDtMDwjyYrDXHHDGGp8/zHWDhQXpNwDHhkigOGyDhJboY87ZuPmT/72Wn/EVFBkAaSPRYici553x18yy29Z4ejFv09XpAhBxEVRdKjg1xD1GTp12dE34XGWG2VVWeWGsP8lOsixDg5KlFbaZuYyDCj0rA0+g1caLQ+e/Ue48zWsn0/Y1hkLua4PrnQ2Eu5zfBhg03P5Z0d2gUWOPw55E7iutHqNvHwvGy2mWjcMbGF+txClOeWu0dtg2s7jJPV1115bp3eMG64qK23o9jIXur2e0XmeJTdIdvbXlllHC6vHwYbl9ryuLXn2u2zecY31NtNNmZztBhjF4ep9x36mb32OBERERUXL782UTtFxRmPg8JNsg3l+z5rdBRrNXoh/JPBqCO9Cx7vjinbrmoXZO/k8pcxICwScX5hCH8nTLm9NS0w/L/SeyEOkWEDMGF9zttPOjofA0IGYMfAcIwOs2H8nMOfQy5c34gJT4crz7Yb5n0oj8kaT4SMnYnRfnDMLCxlQvDGig14ozUQt2kKOjfrjDGLjsC2VybD1eOrEXVcO+Ms5UPRS3rpYD4mf5hDHZPrRzD/pV6YgJmY/HxjeGmrs+N3d5ByVAIbo/bm+vUgIiIiIqKigUFHMef3+DxsWKw0yuOURvr9Aej8QgRWH7XUBEzC1aOrEd6vLur2ikBU/cFYGLXQwtCMzDxbv4GFsn1EYUpXZfujIrH30p3N16RLR7D6/d5oHDAEGwMmY9knYahTUrswB45+Dra5itVjByA8Duj22ccYXF9bbU2ZUEz4bDj8HDULi28oJq8/jIWvhADK6xIe1hgV7u6Ol9+PxMajcbhq4f6Srl7FyX2rEfnRGAxo5q9ef+Ml7UKn8UToqPlqUdW977ZB6Ag5XrSLdLev4sjP4ejdojGG/NUbqxaNVsMLmwSGYkBr5e+CyZiwJPNwp6SzR3CS6QcRERERkYvg0BXXkZuhK2auHFhoHN3Jz3RbdfEzBnQKNYZ2UZZOAabhGPr6/h8b91zRbmijK79/bOxVX9+GstQPMW1bWQLUoSey1DH2mrHBGJui3Uh/LtkNXTHj6OeQHRkSoW6/9UzjHm1dzmKNSweaHq9DhrBoYqPmGUc/XEd77rYudYwhgyYbN5zRNpKFw4au6E4uNQ7Xht/I4tf0zv1Yp6/5PtxhnKyuz37oikhUjquQrNttKvuhl3GhledLRERENPatqcZr169r56g4kv0vxwEVXvrQFc66QmaSELdvNVZFrkbkrh04vOmIVhCyDkK6hKJNz1D0frwXQmrkcaYQ+SV+/UJELFiGjb9uxBF149q2+/fC4J7dEOCrXjMfHPwcirCks3uxev1G7Ph1Nfb+fhgbD2aU+1Qa/GjsXwctuoSgzf1tEBoYgPIF/RLdjkPUkoVYuHwpVi+Jgtr/on4IenXpjd5PD0BYaz/1anmR9PdqRLwTjvk/m47DOq17oVvYcEx4PhR+xe/QICIiIht8Mu9rtAm+F4HNGmtrqLjZd+AwdkTvwktDntbWUGGjz7rCoIOIiIiIiCgHUb/vURq6hzDsuYHaGipu5nzxDQKbNUFIqyBtDRU2nF6WiIiIiIjIRtK4vXEjEdt3/q6toeJE9rvsf4YcRQODDiIiIiIiIhs82fsR/LTmF4YdxYzsb9nvsv+paODQFSIiIiIiIhud/ScO3y79CaVLeyGkVUvUr1sbZUqX1i4lV3H9xg0cjzmFqN93qz05JOSoUS3vNeLIOVijg4iIiIiIKI+kZsfePw7i1NlzuHkzUVtLrsLb2wu1a1RHi+ZNOVylCGHQQUREREREREQug8VIiYiIiIiIiMjlMOggIiIiIiIiIpfBoIOIiIiIiIiIXAaDDiIiIiIiIiJyGQw6iIiIiIiIiMhlMOggIiIiIiIiIpfBoIOIiIiIiIiIXAaDDiIiIiIiIiJyGQw6iIiIiIiIiMhlMOggIiIiIiIiIpfBoIOIiIiIiIiIXAaDDiIiIiIiIiJyGQw6iIiIiIiIiMhlMOggIiIiIiIiIpfBoIOIiIiIiIiIXAaDDiIiIiIiIiJyGQw6iIiIiIiIiMhlMOggIiIiIiIiIpfBoIOIiIiIiIiIXAaDDiIiIiIiIiJyGQw6iIiIiIiIiMhlGNT/jjtojHrshnqSiIiIiIiIiKioCfmhNDC9qSE96DBOa6KeJCIiIiIiIiIqagyvH1KDDg5dISIiIiIiIiKXwaCDiIiIiIiIiFwGgw4iIiIiIiIichkMOoiIiIiIiIjIZTDoICIiIiIiIiKXwaCDiIiIiIiIiFwGgw4iIiIiIiIichkMOoiIiIiIiIjIZTDoICIiIiIiIiKXwaCDiIiIiIiIiFwGgw4iIiIiIiIichkMOoiIiIiIiIjIZTDoICIiIiIiIiKXwaCDiIiIiIiIiFwGgw4iIiIiIiIichkMOoiIiIiIiIjIZTDoICIiIiIiIiKXwaCDiIiIiIiIiFwGgw4iIiIiIiIichkMOoiIiIiIiIjIZTDoICIiIiIiIiKXwaCDiIiIiIiIiFwGgw4iIiIiIiIichkMOoiIiIiIiIjIZTDoICIiIiIiIiKXwaCDiIiIiIiIiFwGgw4iIiIiIiIichkMOoiIiIiIiIjIZTDoICIiIiIiIiKXwaCDiIiIiIiIiFwGgw4iIiIiIiIichkMOoiIiIiIiIjIZTDoICIiIiIiIiKXwaCDiIiIiIiIiFwGgw4iIiIiIiIichkMOoiIiIiIiIjIZTDoICIiIiIiIiKXwaCDiIiIiIiIiFwGgw4iIiIiIiIichkG9b/jDhqN05qoJ4mIiIiIiIqSb/dvxE9HdmBf7AlcTbqurSXKu/KeZRDoXw+PBLTBk/eEamupsDO8fgiY3tTAoIOIiIiIiIqkQxf+xtifP0VF77JqY7R1zcao5F1Ou5Qo7/69mYCdZw6rIdrlm9cw4+EX0aTKXdqlVFjpQQeHrhARERERUZEjIUffyElqwPFN3/Ho3rA1Qw6yGzmW5JiSY0uOMTnW5JijooFBBxERERERFTnSk+P1DmEY2KKLtobIMeQYk2NNjjkqGhh0EBERERFRkSLDCWS4CkMOchY51uSYk2OPCj8GHUREREREVKRI4VEWiCRnk2NOjj0q/FiMtAi7duMmrt1Mwq1bKTCmpWlryRkMbm4oVcodZb09Uba0t7aWiIiIiJyh8QeD8OsLs1mTg5xKCpTe/9lIHH51gbaGChvOulKE3Uq5jQuXr+K20thOk0a2ZylAOU1OJMFS0i243biJksrpKhXLo5R7Se1CIiIiInKkatP74p9xS7RzRM7DY69w46wrRZSEHP9c+Be3SnsjrXJFwNuTIUdBkNdcee1lH8i+UPeJsm+IiIiIiIioYLGFXMRIT440n7JAGQ6XKDSUfSH7RPYNEREREbmOM/EXEb5tCfpEvo3gOS+pv+bLX1lk3f+tisCO04e0axNRYcGgowiRmhwyXIUhRyGk7BPZN7KPKP8S9kXi1X7BqNugMQLah+GtpTFI1i4jIiIicjQJN/RQI3zbYjXMkNCjpk9l9a8ssu67A5vTQxC5DREVDgw6ihApPKrW5KBCSfaN7CP7OYvNEZMxrFdv9HwoGB0+PaKtt6PUI4joF4ZX563EoVOFI0pI3j0DffpNxmZ0wJDhL6Jf47NY/HoP9HTE88+TS/hpaGMEPqTsF2XfDFt6VlvvRMprJCGQaZmBPdpqu0tVXvtRQzFv3zVtBRERkWuT8EICDgk3RJtaTTC6XT9ED/tErcug/9VP/7f7cDzRrKPW82MxAw+iQoJBRxEis6uohUepcFL2jbqP7KYyPC4vxdqDR3Ao5hrO/H4YF7VL7ObIVizetw8/zRiLnl1a463tdg47Etbj1QbB6CphzaCxmDp7ARZvjMaemEtIsNj5RWlYv/cljrd/FysWzcD4kSMxae5WfD+yLo6HL8DaBO1qZi4uHWrW6Ld96Zrn4CQJScpjT4hR9ouyb5Lhqa13NcnYEz4U41ZuxdR+7dFndjQupmoXERERuSB9iIqQgEOCjO/D3sbodn3VnhxZyToJOSTskOtKIKIHHgw7iAoWg44iRJ1CloVHCy9l39h3ml8PBHXorZ1WbFUa1nbNIZIRtXwuzmjnUHco+rX20M7YR8L29fgJ13BcwprtKzEv4n2MGzoIfR5qj8DAxqgb2B49h09GeORKNfxITr2EM/uAjg93QM0S2kYUTVq3V/57FheumM7bw/Hw1xCRp6zjEo7v1E4q6lf31U65luTdszFuXox+Dnsi3sXXB/J4AKYqx8D2pQh/bRB6tm+RETjJ/u81Em8p+/9QnHZdIiKiAiABhwQUEl5IuCGLpXDDGrmuBCJyOyHbkvodRFQw2GomKsQ8gttjoHYaWIodB7WT9pCwFd99k9FwffDlMDQxCxfy7xo2r1mpnbbi5iUcWh+JiLfHos9DXTB1pwdqBgKbf96CM2a9Bw7t3Kr8twaqVDCdN1e5el3tlJkKddGkaYDZEoxHHg1G5q8rMfhxRTQsdBLJXsJFXNBOAgGoWUU76UrOLcWwwV/iuHYWqIshXy/C6MDcB2HJf0ZiWJtgdB00ERE/RuNQnFlYIvv/4Hp8o+x/CUB6TliZab8TERE5g/S+kCErElZI7wzpzZFXek8Q2ZbU72DPDqKCYVD/O+6g0Tgt729oco6TZ2JhrOmvnaPCyKDsozp23UfJ2Px2CzwXaTpXc+RSbBkeAKQmI0FpcJ85HINDR/bi0N6tiEoNw/y5vVHTdNUcJawcicBR601nvMOwMHoCQuzboUOVfOUakhPO4tBZ5fFqj3XPAeVxmzd4RfWRWPHLi6i/bwZ69v8SZwJ6YGBodSQfWYrFGy+h5uilWPei8tzz4uY+hPcfhIgj+n16oMnwuVj4cjDK5TbciYlEz4cmw1RfPQxfHJiAjvl83fbMaIw+87QzdtZx2lZ80TsXvU7OLcVz3Sdic/rQIg9lGyuUbdTQzttO6q3IvswITHLmEfou1kUox7FdQzciInI1UkdD6mTklwQc+nAV6Y2Rn5DDnAxhkXodQq/jYXf75qPaultY8eowtOTodqex17FHjmF4XfmWPr2pgUFHEcKgo/DLd9ChBhi3TKfVcCABCbvmYlhEtGmdty8qe1zCRYtDOJ7F93+ORZB2Lntn8U2/rnhrn+lceoDiTMnXcPHcCUTtXIeN67fiYpe5WBhmakxf3LkAU2bNxU/7rsHDLxD9Rk7G+N51lSZ3HlgIOTpOXIo5A3PeXv4CCNv3R6EJOpTXamqvMKSPWFFeoaDRkVj4YkDuX/ubW/FWm6H4xrwWS90uGD92JB5tUdm0vYQT+PHzdzF1sdQ6yRD09jrly2bugxUiIio+7NXYlDBCQgl7hhw6PUSR3h3SyyNPkm4gQf6RdCuFcmXdTet0EnSsAVaMG4yW2ipd8rUbSJYR1R6lUS5rObEbyjZva6dtdgXnr1XA3TVKa+cd7SBmT58EPLQEIwO1VdZYej4lleftoIfKoKNwY9BRBNk16Ig7i8uVa6CipV9Nk7fio/YzcOje1nj4eaVRElhWXX155ViM/7kcgtu2x0O928Pf1pZP6ln8PGoiLvd7HwPaOqeeQeziQRg4IRql/ALQd0YkBtm59oQ1eQo6ds5A3ae/1M7kR3t8sH0uHrFlOGmmXgmBmLQ+EgNrq2ccS0KHwZGo8uZEDAwwHVcOdUfIURcD532JSe1tOw6LVdAhM6wM74lxGzMih/pDIrFibGDuQw7FmcgwdHhbS9KEdxi+2DEBHe+YOCpZef69leefnq4Ard/Flq9t751ERETFjz0amzK0ROpo6AVFHUGCDgk88tqr48L6NxC4+0/tXO51axmBeV0yj7Pd/W1f9PxbO5Mr5TGlz+cYVF87qzm9dixaH78fO5XvEbW0dflne9CR0/OpUmEwfnr+IdSyU9EGBh2FG4OOIsheQUfsyomYMGopYkMnYM6sMNTO0vC4tXEiug1dqjZMpioNk/vUy69h48hgTP0ZqK00fuYojR/besgl47DSiBmhNWLqv74ScwfVxfU/o3Hc1ilESldH48AaNt6fyeWlQ9HvdanrEIzRmxbg4eqm9Y6Wp6BDpgrtn8ugQ2pQVK+HoA51Ub9eazRpXA/1/XxRzsbZhw9FdEXP2dq0qA/PwL7ZPVDOdM6BZFrWLnhVbUiXRcjYTzFnUGDuh47YKmvI4R2I0f9bgOFNbW+2OyvoyDXzY6b9u4ie1ztL/ZFcshhyLMD3o/MwtMdM8sUYHIreiR9/jsTx1h9i4UAL9VTEkU/R4dHZGYVxHfnaERGRS7BHY1PvzaHX1MgPqcWx+MAm9GvWSS1KqtOHsOS1V4cadPzbH/882VRbYzsJAOZUujPoyK3TW2ZieNQxtOswBf8JuXNbuxf1RU+8jn/62/Nf7lz06LAiYe98DF6/BmcqDMbiZx5CLTsN72HQUbgx6CiC7BV0XN46Ga8NicQp5XSp0HcxP6I3/PXGTGoMfuzfAx/t80Do7K0Y/7DpV/dbO2dg8NNfIjZT+JGTZBz/dBBGhO+DDMYwv6/DSgNyhK0NSKUht1hpyFXUztoiI+hoj9Fb5+JhP9N6R8tf0OGBygF1UUXbFzXuaY/6FQCfGi3QxO8svhs+GT+pwwBqYMiiFRjfMo+9VFL3YWrLMMyzx7ZyIeHnsQgeuVIbolAX/WbPxfSHHTQ84eYRRAwOQ/hureFetzc++PRdPJLvXiuXsHhIe4yTQ0sxcN5eTGrvnN5CmeybjYB+n5pey/wGHaln8dOo3nj152vaCqB+79mYP7mL8+pkmD8fEToD0XN75C+8ISIil5bfxqY9e3OY1/mwFGjovTryMjymQIOOWxewYekkjD5TBf/pNQb961saC3IByyOGY1V95X4elPu5ig1fvoF3LlzAXxYmI8zoYaLcbs5wDI83rbddA0Q8OwWP5/Dd/vSvMzF8e7TyVXcMFoYFo5wdp+Bg0FG46UEHZ10phiq2n4D354VB2nzSe2Pwu1vVIEJcXzcXn6q9zZPVHhwPNGisLt0k5JDVNyMxPtC0Tl/GL70kl2R2MwY/v94bQ/WQI+BFzJxlFqhQhpZjEfPnYWXZi+gfl2LFMtMy5+2RGD1yJIb0bo+QtmF4ebQeZ5/FvPeW4ngeZ6dI3rkyo25C4LMY6ISQQx7zjwv0kAPoONmRIUcMvhmVEXJ4KMfewsX2CDkUqSdwXAs5ZMaV+jUKIOQQfjUQop3Ml9SzWDthaMGGHMpREfXzqoyQAx545NEODDmIiMihdp42DeBtnc+6HOYhh7AUmvTVhqxEnT6s/s0zqdcRn6KdsSw5/gaS9S/2+ZDw5xq88clwvHG1Hf734ltWQg5F2ln8qXyNuLuKHqaUR7veM7DixS9xdNidy6z79etVQbenLF/HtIzESOVaIztkXT8e3XLIbU6vn4R+2/egfKMp+P4p+4YcVHSwR0cRYu9ipKe+CcPgd/ehVMBIzFz8IhqnbsVHbYbiR/PigTa4b9pWTDWrAXD9SCRmPjsZ27SCmaVajsSH819EfRuHVdjkSgz2HbY+9uXy1hmYuuCIcioAfWeNRbCFaUl1FRoHo3Y2l+eG/WddMZO8D+GPhiFCHQWU15kwrmHtqGAM02Z9fXBWNOb0cEKtjIsr8VzbsdisnrHPTCUWZRmCUe7hd7Filh1n8MhU2+RZLDwyFiHathN2R+LzbcoxqRybm/drw4IuWZhdZkgkYsba2Acz9RKivpuLr79bh81HLiFZ7fXTHo92q4yo8EjT48hrjw5l25unPovnvsmojeHUkEMtRrsXP4Yr79X1BfQYiIioyMrvr+p6L4v8DlvRh78I6a0hvTay0oevWLvcVrbW67BUl8M2N7D752/xyz97sOhfoFeLMfhPlzrZ1+qKW4MhX65A5yci0L+Ots4u8jJ05QYO/jAJTx09i84tZyC8i2N+VGOPjsKNQ1eKILvPuqI0Crct2Id6g3rAH2fxs9JADNcaiJnDi334tEEY5O3cd9FhvJi1rHMWsUuHYvDrpl4itXvPwOTJPVD24lmUqlwDpezVeNk9Aw/ktq6FFbY8J1s5NOhQZJqu07s9pq+ai365qT9yZSWGBY/FWjntwCll7xC3FM+1n6gFHT0wZ9cMPGjvoiCZQg4PNBkyA5NaXMSPPyzFmu1HcFEN8MqiftPGaNyhB57u0wNB1XP35JO3TkbAEG2u3yzDK2yu52Fr0HFO2Ve9lH1lcYYdM3kJOlKvISq8PwaYFQCtP3AuFo5vj8oOCxgyD/vJysOvPQaOHYvRPfI4uw4RERUr+W1s6gGFtW1IzQ1hXm8jKz0sETmFGPJ48zX7ilOYhpPMKfU0Ivr0xN0+2ursHJyPwJUxmDp4Crrlpztm/EksXzEbH/xzDn+luaNlpRoo/+9J3Gtr0JF2A7uXjcVg5atNf6klElxeu8D+GHQUbhy6QkCJGmg3pAf8SyTjcPjQ9JAjv/wfG4sXWwfg4WkrMWeasv3b+7Cwf1f0G/Ip9tlagJQs8mg5EtOHaAUdb27FuP+LzNUQljM/R5pCDkXN53sjJPkIFr8dhsAGjVE3sD36vLYAUY7YR36N0TI9kFmJz3/MaGBnlRATjcUzRqLryKWw+aFk6clRObQH6m0fiz7DJ+Ob9XrIIa7h+MFo/BQxEX06tUbPCStxJhev36G9S7VTyuvXop7jhlekSo2RjJCjXNtnMX3uAiyc+y6G98jDVK9ZnPnuRbOQwwNNhkdixURHhhzZCcSQWUuxdf1cjGfIQURETqL3wrBELgvftlhdJBCxRIIQPeSQACOnnhp57TUi08QmxOdjuZb9UBdLatUKti3kECm3cAF1UTU/X4rSzmLR12Mx6UYwZoV9iaNPjUeY2wVs0C7OUZpy3a9fRc+zVTC0+UPw3P8GOszoqwYSgTOHY/S3a3CQbZBihz06ihC79+jQ3IqJxPhek7HvpgdKeSfjVi6GrmQdtnIn81lX6mLA4rkIvXEOOf1IfYesM6+Y9eiw1CMjx2KkOdw+rxzdo0OVpVFv+xSgZ/FNv654S63BEohJ8wbh0NSRWJw1c6j7LL5fNhZBeRxqlLB+Ml7dG4CXB2TuMZF5utG6GLJo6R1FUJO3T0bgoEitXoON094qr4fUmRi2NOsTKYv6XXriwbaBaFNb/vVNxpkjW7Hm66XYbDacxCP0XayLsGV4i/K6P90V43aazmUtRHpm61KcKFEDHj7V0aS66duBR7my8MhDeGD+Onj0mIGt7/cwCyGSETWtJwYs0IbH5Hoq1iw9K5pOwLplYcgyU5wDZN+jQ/ZXUNhYTB/b277D3IiIyCXl91f17HpYSNDRJ/Kt9DAk6/Wy1uWQkCOnIqM59SCxLK8FO834DMa+YQ/BtoEspvtbJYVFbRz6og6nOdAQ60Y9jdyXS9Uc/RpdfziJV59/C90qaev+WYEhX3+Nqm2/xJT7rdQHEbfOYvlXYzH83xTUKlUHnWuFIrRpU7Tyl3HpN3D+eDQWbVuEucl1EN73bfSv4266XT6wR0fhxh4dxdStc/uwb3cMLl+5huuyxMXgeGwLvDL3NfSdPRev3Ktd0U5il47EGO2X4/smz8WgwEtYM2gQxuR2+Tga19WtFANXYhC1dAHeGt4bPdu3QF3pbaEuwejaaxBeVV6LmkNnY7gWEhyfN0hp5GuN3uwcXIV5Ws7gERaMM3rIIVPVBvhmBCUxX2LqDzZsz4oLcXuxeZ6px0Twu1uRoK2v+cREjE6fXTQG88xnRdF4tO6BgemN3H1YvDVreJGFOgQja8hRFiEjF2DLgWisi5iA0WE9ENI2WFnao9+QCfhi01aseLtL+nS6yVKQd57Uc8lBwhHs0EIOCdBaBmQOaWq2742Ocj9Na6BchbLqkpeQQxw/uFULe4CB/cxDDuGBkK4PaKcVO9cjKk47bSPPktoJcTASi3dmFCN1HF88Oisa+6KVZf1SLFwwF9OH90BQen2ca9gTOVE5xmdgTy7rBBEREeWWhBfWenWYemhMSu+FIdfTe3aYQpDchRxCbqdvz3ZV8PiwJWqj2nzZ17KBKcDQ1z30UObz5ovNIUc+eFXJ333cTsEFZQtVzWvmuZkCiQXnTqp/LbpxEosWSMhRGoNazsC6V2dgSp+H0LmR8l3Mp7SyVMHdLXvizVc+QITPSYxeuQantZuS62PQUcxc3zkXY/r3QL/gYDwmS/seGDFoNg7fNQgvPlxPu5app8Yvfx7WlkjooxOl90PG+sPZ9ua4tXsGJmi1OtD0NbyY68KZxczNGCye0BsBwT0w4PX31SEXmQtZZgy7GNBvKDLa5snY/HpPPJdD2HFoy1Kc0U4nR36KeTEe6DhxKfbtWIkVP67HnLCMhvuerfssDxuJW4m33l6KQ1a75CTj7An9gSUjoVy59EABJQIwfP676KgHGeoUsIMQcdDsOZYIxKPPZxwnh5bvNNUjsSgZe7LUmfAIeBZfbI3GwuHBqJk5h8hQoiyahM3G9xMzBnweD5+Ln3LoZpS8T3nttdNo2h6N89NFMwfJ8Wb7MscfHrZix97cBBW+ePD5Z816cMRg3tMPYFhkTHq44ijSw0UNgWoHmIKnkTPw/Y51mB5qtrNivsSACevTAzIiIiJHqKk0goU+/CQra2GHTEmrk4DD1pBD6PeZX0kpV4EKNRwfYDhL/abo7/YrvlhzEgkyJe2tq9i2eSlWy2XKd6IL8teS+HP461YzhPf5AFO61LE+u4pbFTx+3/3AjZ3Yncsfh6joYtBBihqoZKdZR3TXd87GiMFf4pR2HhXLoaz6q3QgXjQLSrIuHw5Rr60WWFxsftm83qioXeSSbu7D1F49MG7xkYzGpvS06BKG4cNfTF8GdglAEz9TozD5pnmzNBmbP1+FPdZaqsnRWPy5eRCizdoyMADl1P3igaDgLuolqo2H00ORTOJOYHHkRPQMDsaAT/dZaIzG4NAW7aTiwQYZ4Zmqem/MWTzBLOzYh/BXZiPK7Bf8JqFmwzAOLkWUxU4dydgzOyxzyCFDUJaNRccc5lXX1e830qz3yHpszKFXw/EjGWMuPFo3duhQj3L+AdopYM+xOwOshNhz2imTE5dyN/DUo+VYrFg5AQ+a9aZY+3Zv9Jm2FRfzOG1xnpWogX7T3sWD2lmRvHIusinjQkRElG8hWkCR3ZSvlsIOW4uPmjOv5ZF/V3Hw3AV0q1RIY469c1Bt+nzs1s7axDMYr/bqD8+DY9FIamvMeh4vn2+N/8h3unLZ9Bap1g5vvvK6aerbUxvxzkfPInC6cvsZr+KNn/aYQhOdIX0APBUTDDqKmYq952aEB4ue1daWQpksv37/9np7PNCgsbaYZlwRS/rr60zL+KWXtEsyxK6ciJFPf4rjTup+Hrs/Gvu2Z1n+1Bt+F3F6l4XL92duKBasZESFD0J6m907EMMXrMMR6WkhQy9GjkxfJkUsxYqtexGzbx1WzHoNjwTqU8MGYtInLyLISi+G5F3rsdhsf9QcNBdzsvSwKXdXPbM6DzE4a6HtLA1sU5ZyDVG/n8gIZXQXT2B3+ksbgJYN75y61kM5nubMN+tRcO5LPDcjY6gGGrQ3m0nmCDbtvfMYu7hyLAZEZIRCttfZMOPRGG1CtdOKnw6c0E5ZcgSbv80IHPq1zggiHKF+i67p+2LPjLEI334WyRJApCbj4sFIvDphvelCzaHY3Pd/UPfD+gUYnj4EJxmHFgxFl1GRTnvvpqvQGp3aa6dVR7D7mDOG0xARUXEVUqux+jfKSo8OXdawQ5jW2RZyiJ3affRt1lH9my9xO7Hs3+ro3KBwBh0XLinfl3yq56J2mIlH/Z4IH7sEJ4d9iaPDI7HvlVCUiwfa2tILJu1PzF06B79XGIKflNvv7NwMp49Ow4BlB9O/K164KF+0q6Cy4yZjoUKGQQfZV+pZ7PthqaknR4UuaJep8eIY26bdWdNj6gJ9+MQRLBl15+VjpmVuKBaohK347hv9Y7gGhsxdgNFta2Rf38G7Bpr0GIQPFkcjetEEjJ89AwPT619kdQ1rF+sFPhXePTB+aPCdxUsr+MK8/0WShV/2z5zWi4kqGtw560jykX3aFLIK72A0sVJIVHoU/DejYAeSI+disd79p0QAQh7OeHSbt++9o+dI5dCRGK8Pd6j7LBbOymXIoSqLyjb2/kDMXqxJD3B6oE2glUTJXpr2xmj9+d3ch4hBXREQ0Bh1A1oguNdkbLZXEFEuGKMXLcUks6EjCT9PRs/+swu8TkZCph5LRERE9iXDSCSwOBN/werwFZ0edkgvDjn93+7DtUtyJr1Avjtg+nZkyzCXbKVdwPIfv8b5+kPQK6di7aqTWP39NpxO0s46yrVzmYeXJF7ABfPeFLngIbU1yrrj9IZ5mJ1YHb2a2DD0/UIMdt1qgOceaIdayu1rtRyMiJAgnDm+CKtlqMqpFZi09080vaszWnmabkKuj0EHWZTnGh0laqDzoDCUCXgWU1fORr8G2nqy7q+9GbUf8AAeap27RnTllmEY8nA2/whc2YKff9ZOK2o+P8hsyIKZCpUz9ei4eEfNiks49HtGr4aQu+6sz2I+vAOhLVA/m/ChybMTrRYebdK6t3ZKsXHvnVPoetfFwIgV+KBHD0yfnzFDTMKRlZg6vIdpulxlCXxoEF6dvRKH8lnw4eLerUj/ChQYiMbphUccxRePzFqKSQ/f2SNGSC2S0WbJVsd6+ah/o72Wc3qbBU9HPkUfCVRyNyIms+RrOHNwKxbPHosByn74Jn0cmwWpZ3F8l3ZaU796drM5ERER5Y8EFqPa9VODiFnbcp5BQ+/FIbOv5Caw0Gt65CYcsej8Hsz99FVMSuqMtx9ueucPVpakXcGB4z9j91XtvAP4lKui3I/0CzWp0qA1Ot9agSGfzsaiLXuwbXeWJSaHB5N0Adu+H4tHdp9E25bj0d+WQMevIdp6/okv1qxQtn9BnVYXdwejO5R13w1H4KKvsbvC04joaePrRi6BQQfZXanWr2HxsrG4Lz/DEG9lfGDmJGv4IsviaXpXEple9s7LM4btFD7qEAU7OvNzJNZqp4EuGB1mZdiFRzmzD/+ziM/6i37CXuxIzzE8ENQga+M6BnvWZgQhHdu2yChEaolHIDo9pp1WHNp+OL0Aqke9AIRop3EzGocsNZJL1MAjs2Zow1yScejTMAQ/Ohbz1sek9wBJiJHirWPRs31vhN9Rg+MaLtpUkOoSNv2cEeA06dk6U3fMM4sHoW6DFsp9K/eRZRaZfJEAYnY0jmxaii+mvWaq0zL2XXyxbB32LeuDcgf0YMgD9S2ETrmivJYPTv4SX5h3C4qJxHMDJ2JtnkZ5ncU3A4PRoddQjItYiShlP0xdsBUJVo7tM9/NxbxMx1sPtDT1KCYiInIYvYeG9OjIqVdHXphv94m8DFtJS1G+y2zDggWvovWCmdjgJUMzBqNl1tlWSwJV4qOxQWvkq8v5k9j201IsKtUQd2fXg/X8n2oAsVu57en9G/CL8nXJo6Tt9Sw8PMoo/43Bef1LXO2eiHjwSXQr+SfmRk9Dv/WZl5f33Fl7TAqO7o5ag7nyPD8Yjn4xtzCowweIsHGKW6AOBg16C2HGX/He98PRaM6zaPTlHKwqWQVVywXjrW4R2Pl8T9ydzSy15HoYdJBFttboUJcZZsMZRAkPlMr1MIIsdp5AtpNg1O2DmQsWKEskHslLuYTAkfghOlpdBmVMvlEwKtRAxu8Ci/B5PqZ2vVMMNn+fsX88BoZZ7s2h8UjvYQEcOpH5cSRsXZnR88S7N9pkfd1jdmLxQe00AtHp3pwa3x4oZ3Z/uG0WElRvjDZmdTpyqteQvHs2XgrfZwrHvH3RMUyKt4aho1a4VZ3h5en+CN9ndh+pJ7B7o3Za0fGO4EYTtwVr0nOOGnjo3sxjhC7+Ha38NxkXjyhfMirY/3cCj+oB6Nh7kKlOy5De6Ni0Bi78MANT9d2q7ItOeZ643kwJ5XUbnzXsWIphg/MSdtTAo4N6ZPrVJDlyKNoP+RQ/HTyLhCvX1OViTDS+mdAbXd826wmkqD96EB50eK8ZIiIq7vReHUJ6Xuizo9iDbEufhjY39TwycbuF/dvmYSOCMaX/51jybChqWcogGvdEeI0rmKs38mX5ahJmX6yBqY/0RrZfE4wx+HL9NPRcPByt16xFQrXBePW+XBSy8KuObriK82Zf1cq16I03n4/AlrF3Tne7r4+FR5N4EF9sX4pdCMJ/uszA0Vc/wMiQXNYg8WmK/oNmYIXZfe4bE4F5g57G4/cUznom5FgMOoqtZJzar/8ivA9/ZYwaKBoq1EVg22BlCYS/eWPZViU8UKZCWXXJdyiTX3Vb4KH0Rr1MFdsbAyK24ngO053a5OB6zEsPH2rg5cct1OZIVwN3t9ZOKqK2m82qcjMaH4dn1DXx6N3ljsKnx5V/oDKGd/RAxxy7Gl7DWasN6Bqo30I7qVj7Z3aFQoFD2xZps8S0x/RVW/HF21K8dQK+2LQVC4foDfcYRIz7Eoe0XgXJ21fim/ReBO3xUGvLwczF7evN6o48gJBMw7Eu4Wz6e0dpvDu6rkXqNez5NAxdX88o3ho09lmE2CtfsWPYUe7hd81ee5OE7bPxaq+uCAxW3rvKEvzQILxlPtOQQgrLzh/i2GKvREREOulpMVobwtIn8i27hB2yDX3Iimw777U5SqPd01/im0H90bl2Nt0R3Kqg81MfZA4Wxn6JJc8PQzeZkSQ7fg9hntltvnnqodz1fFBvH4FBmf/Jzx1lGxFjPjeFEi3roBwnSCE7YNBRHCUcwY8j22PwNP1X1H346KUZ2Jfgi4fnWRjmkdMytqC7RBR1ARgyKcwsgLiGqNlD0TW4MQLa90bPXiPx1uzZCLeyrM2m9sGhLUszpomt3hsds20/+qJeC7NeDT9PxIBRMxA+bSz6dBqEeekN3UCMH5AlMEk9grVf6AVglcb3Y+214R37ENFvLMKXRuN43LWMYTmpyTizcTY+Nqsd4pGpuGlZ1GiY8ViSD5xIH9ZiUbLeVK6L+umhkaJEWYSM/hCT9EM0Zi6+2XgNOLUS/3kro0CrR1gYHrXYrfMs1nyX0dvAI6wrgjIFY76okf4P+1l8/MYM/BRzCQnmLXd7kNdr+wK82qs9+ug9VxQSCvz3CSs9UfJKDTvmYrpZgVJT2DEDUbmqdeKBoNGL8P3Y4OyHMKVT9tXIBdia29lziIiI8ml0u76Zwo5wG2p2WCNDVYLnvKT+lYBDtk1EzmdQ/zvuoNE4LZ9VgMnhTp6JhbGmv3Yub2J/GImRb6/HZfWXZw/cN/FdNFkxFgukG7y3L+57bBDub98Y/jn8Qnwr7jAOnTW1eq7/uRWxbd/H1LA7o9zDMxpjxDzlRPt3sXheb1Q0rbYq/fp4Fh/+ORZ5HaZ/eelQ9HtdGqhSo2MuHrZ1do18Mij7qE6e9lEyjkeORR9l3+S2buaQRYcxvqV2xlxyNN4KHpTeayHo7XX4PiyHRvHBT9Gh1+yMcMSC+sMjsWJkYOag4+ACdH3qfW1a0vaYrrzm/dTX/BIWD2mPcZlHJlgQiElrIjPNHJPw81gEjlypnXsW3yvHQ5B2LqtDn3ZFz3AZauOBjpNX4It+mZ/n8W96o+u7WhBTwReVky/hot77wrsH5myaYXlIz6lI9OkyGXvUMx4YuGAnJrXN/OZI3j4ZgYPMZrXJUfbPRZV8DQlxZ3HowF5s2rISP67fl/F4NR4tR+L7+S+iSV56NNki9SwWD++JcRvNnlld5bEvyyj+arOEGEStX4HvVm7F4cNHMnorKZ85Teq2QFCf3hj4cHvUz2ZYFRERkblq0/uqvRDsSQKO8G2L1dPS00OGtcjwFltISDJLua0+w4oEJww5XJMjjj2yH8Prh4DpTQ0MOooQewQd0pAdqDRkY1EXD8+ei9EyW0dCNBYMHIqFR/L6M3QNDPpxHQZY6C2QY9CRsA8/L9gCU03IZJz6+UtsU4cCFLegwyThyFKEvzUD3+zLviaFOWtBR+YGeCAmrY/EwByHkyRjz4ze6DPP8lim+r1nY/7kLpZ/cU8+iz1Lv8TUA4H4YloP7Vd8W4KOsnhwxlLMeSxLCLP7U3T9Ih5DwvrgodZ1US67X/mPKNd9dDaOa2c9/ALx4MPBqKk2yK/h+M8rsDbGwmtaoQs+WDYbj5j3AjGTKSDxDsPC6AkWholIIdRBmXpaZC+HoOPKerzaaSR+yhJspPMOQL+JkzH+sYDsXxN7uLkPU3uFwfxwKBc2F1vfbm9jLw0iIiLHcFRjU4IKCSwkuJCQQ3pltNaKlmYdgiLXWaxcP8qs6KhcT2ZYyftwFSrsGHQUbgw6iiC7BB04ix+fngxMmI1HG5i12FKv4dTOdfht/VZs2H8Wl2OOaL0+rKggQwS02/t0xYi5L6LxHQ1AW3p0XMPGkcGYajaEQdVjNn6Y1QVSxzkvimrQoUu+GIM9W7dgx4F92KzsjwvK/sj6i365ugFqQ/7RN5diiJXRQ8mn9uHHHyKxOK69WfiQA+VYOPTDbEz9fAWi1HCgLOp36YmBYUMxsG3uZ/cwPRfTr/knTsTgUJwpDvDwC0DH0N54emgYQuywf878MBI9x9raI6YsQoZMxKSXe6B+Dr0TZOaWNd8vwLzUQVjxuvUaJ8nnjmDtlhXYuD460/M0J8+5vm8PTFo2KNseHRd/GIr2YzPqcAg1vHl6JEYPDEZNaw/CEc4txXPdJ2KzcvyVe3gCvp8WluNrRkRE5GiObGzqAcbiA5vU0+YkyMi6Tsj6fs06sRdHMcCgo3Bj0FEE2SfocC5bhq5khBIKb1/UbzsAQ99+EYH5mJ62qAcdlEdXYrD550h89/1e7MkUDpVF/aY1UO+e9mhzb1d07BLg3LAgt2TYyIu9MS+1g/JY2+PRtl3QpHbBPWCZ1WbYttb44OVgx/ciISIisoEzGpt6oKH32jgTf0FdJ6GGqOlTBSG1mihLY/bgKEYYdBRuDDqKoKIYdBQ3DDqIiIiIHI+NTSooPPYKNz3o4KwrRERERERUpJT3LIN/b+a2hDtR/sgxJ8ceFX4MOoiIiIiIqEgJ9K+HnWcOa+eInEOOOTn2qPBj0FGEGNyU3ZWWpp2jQkfZN+o+IiIiIiKHeiSgDb7dv1E7R+QccszJsUeFH1tlRUipUu5A0i3tHBU6yr5R9xEREREROdST94Ti8s1r+Gbvem0NkWPJsSbHnBx7VPgx6ChCynp7wu1GdnO+UkGSfSP7iIiIiIgcb8bDL2LalkiGHeRwcozJsSbHHBUNDDqKkLKlvVFShq5cZ9hR6Cj7RPaN7CMiIiIicrwmVe7CkrC31OEEA5dMxapjO1mglOxGjiU5puTYkmNMjjU55qho4PSyRcytlNv458K/SPMpC5Rho7pQuH4TbvHXUK1KJZRyL6mtJCIiIiJnkYboT0d2YF/sCVxNuq6tJco7mV1FCo9KTQ4OVyk69OllGXQUQRJ2XLh8Fbfd3JAmPQg8SwEsgulc0rMm6ZY6XEV6clSpWJ4hBxERERERUQFi0OECrimN7Gs3k3DrVgqM0vAmp5HZVaTwqNTk4HAVIiIiIiKigsegg4iIiIiIiIhchh50cLwDEREREREREbkMBh1ERERERERE5DIYdBARERERERGRy2DQQUREREREREQug0EHEREREREREbkMBh1ERERERERE5DIYdBARERERERGRy2DQQUREREREREQug0EHEREREREREbkMBh1ERERERERE5DIYdBARERERERGRy2DQQUREREREREQug0EHEREREREREbkMBh1ERERERERE5DIYdBARERERERGRy2DQQUREREREREQug0EHEREREREREbkMBh1ERERERERE5DIYdBARERERERGRyzCo/x130Gic1kQ9SYXXzujftFNERERERERUEFoH36edosLG8PohYHpTA4MOIiIiIiIiIiry9KCDQ1eIiIiIiIiIyGUw6CAiIiIiIiIil8Ggg4iIiIiIiIhcBoMOIiIiIiIiInIZDDqIiIiIiIiIyGUw6CAiIiIiIiIil8Ggg4iIiIiIiIhcBoMOIiIiIiIiInIZDDqIiIiIiIiIyGUw6CAiIiIiIiIil8Ggg4iIiIiIiIhcBoMOIiIiIiIiInIZDDqIiIiIiIiIyGUw6CAiIiIiIiIil8Ggg4iIiIiIiIhcBoMOIiIiIiIiInIZDDqIiIiIiIiIyGUw6CAiIiIiIiIil8Ggg4iIiIiIiIhchkH977iDRuO0JupJIiIiIiIist21Gzdx42YSkm+lIC0tTVtLRZmbmxs8SrmjtLcnypb21tZSYWd4/RAwvamBQQcREREREVEe3Eq5jUuXr6qNYmkMe3qWQgnlNBV9qWlpSEq6pYZYEl75ViyPUu4ltUupsNKDDr4LiYiIiIiIcklCjnNxF1GmtDf8KldUf/lnyOE6ZF/KPpV9K/tY9rXscyoa+E4kIiIiIiLKJenJUamCD8qV4bAGVyf7WPa17HMqGhh0EBERERER5YIMZ5DhKgw5ig/Z17LPZd9T4cegg4iIiIiIKBek8CgLVBY/ss9l31Phx6CDiIiIiIgoF2R2FSk8SsWL7HPZ91T4MeggIiIiIiLKBZmFg4VHix/Z55w+uGjgu5OIiIiIiIiIXAaDDiIiIiIiIiJyGQw6iIiIiIiIiMhlMOggIiIiIiIiIpfBoIOIiIiIiIiIXAaDDiIiIiIiIiJyGQb1v+MOGo3TmqgniYiIiIiI7OXX40ZM/9mo/NVW2EGtiqa/cwYYcH99U5PGmU6eiUWdmv7aOSpIX375JSZNmoRnn30Wb731lrbWcbjvCzfD64eA6U0NDDqIiIiIiMghJOTo/pFRPa2HE/Zw+rJ2QrHqFeeHHWzsFg4ScgwaNEg9fddddzkl7OC+L9wYdBARERERkUM1nZSmhhKvP2zA/7P3P3BN3Xm++P+ito1DR1p7pdf+hG2LjLuI3QnY3Ui9k1J38M8UtWNYesW1IxavOLqlLSNVB0YdGLR0aUtXV7xSccoYt6zpqNDxD7OW5m6LubdCdgfkMQ7QdsGvrnHrGKascYr8zufkBJNwEoKgkvB69vHBnJOTv+fk9PN5n8/n/dk4f+SCEeI59//fPmw72icHUJo3394R+Wzs3nnuQQ4R4BDLtyPYwX0/urkCHczRQUREREQ0Sl05fR3r/rEPV5Vl2fU+vL7pOv7p35VlNZ9fx99sv45/dSjLd4ir58VIBjkEEdwQz/mdWOdruPfwCA0NKF30I/yqS1n8+iqufq3cHsTVP3gcLW4+wzvpf4X8o79Xlp2ufvgz/NX/egetvh42CrkHOT788ENUVlbK5fPPP+8fykJjGwMdRERERER3yr9dR0TOwPJP/+G8+/6pYRhv6UP1OeeycPV0H/63BvjLKGXFAH34vx8Cn0eG4U+l7fr9sQ9X7FL5L2XZ3X8577v6R2V5BLiCDyIYQUPz+5r9+LvxiUh07eNPS/GNe8IQFjZ4+cbK93FBeZi739eUwvh4EfIXPKCsEZqwc9MHmLNyGeLGK6tGOe8gR3Jysnxb9ORgsINcOHSFiIiIiGgU+1fjdaR9FYbfrArDePThSGkfLP8jDD/TqfSSEIGKc9L2ZcDfFt+Fp77Rh396sw+a74dhkb0PEe84N/Nl0ffC8It5I9P7QgQ6th3rw/+YCixTe68j4Jm/vy4nORVDV0YyB8hgbu3whSaUJq0Fdn2CXO1VnPz7UlxdkIvvxQ4jEvGHk/jRt/4KpWoRED+WGM/DtHSysnTnuQc5BDFU5bPPPlOWnFzb3KphLBy6Mrpx6AoRERER0Z10vQ9X1YaWuNY7nL0sHn0yDPu/L4IckjN9KPkD8L8S4eydIZV+zdfx3Tev4/VqqQEobf/UN4Crlj5ssgGT/7sSaJD+/V3ZXbBL5ddaZ2BD3HYtjyQReNiVEXbLghyh5wLeX5mFnxUWYf/3SrFW7I+2/SgtPoPf3z2MIMfXn8H4w2Uo/c5+nO/rQ597aSgC/lplvVJGa5BD9NwQPTlE743HHntMXucightbtmzp79lBYxMDHUREREREd0JzHx7KUxm68rK03tiH/6jvQ3SBVN7sw3cLlft2A//2JfD4j5T7pPJ/lafD9DAURwKFl4Dl/yNMDpjsOQykLw7DX35D2WYQmhFuHYhZV0Ivf8atMhlzVj6GD35yHi98PwnjReDjpz/DA2+XIuNRMfRk3YBhKgPLz9CgPJvsD00oXfJX2P/NZ5CkrApG7kEOMVzFNUxFLdhRX18vBzqE2zHdLI1ODHQQEREREd0Jf+7sSaFaMsPw3+d5rvPugeEqf6k8He4Kw1/+IAy/jgNyf96Hfz3ch7cfCUPBEHpU/Jmr58cIEAEOMbXsmv3XlTU0mAf+x4/xqxNzsH/Vz/Crf/o7/AhFKPprZ6+KByIfBn76iWrPC7l07scSeUsXkXz0e/hV0n6Ynn8MDf+0DA97B0aS8gG19VIxHBjiOJdbxDvI4crJIYameAc7RJDj6aeflu8X94mACI1NDHQQEREREd0p/9GHv/Hu0VHcByUX6dApwY7Vtj58xwzsfE4Z8nKbiZ4cIj+H8MWXwBoje3YE6oGUIuz/YSOeefE8in6aAc+BGUPxGJa924oPNoreIRK1ISp+hq6MhmErvoIcLt7BDgY5yIWBDiIiIiKiO+W/h+EXXj007JvC8N/FfdeVWVKU8nsxvWjPjdwcovibJeV/fT8Mc+/rw+t51/HRbZ5mds3+Puy3OAMdIsAhbu//v275RMiPq7jwu/PIeKMIGd/8Fdalv4P+dJs/eXJAz4v+Er0M7yubuYyf9MCNQFeQ9egYLMjhIoIdP/jBD5QlBjnIiYEOIiIiIqLRyAasVfJwiJLWDBxx5e1Qyt+3Ktu6+aKuDz+9PwxF+jBgHDA3Efj740qQ4T/68C2l58h3rdLz/aqvvyeJWB4pv/rbu/DB34Z5lI3zmZQ0EFf/pQi5n69D0dLHgG/GIeHunXjftW/8DV2Ry4995+IIoh4dgQY5BDFcxbUtgxzkwkAHEREREdGd4m/oildvD7UcHev/XH4W2RXzdXx383Wk/gr44kwfHpKe6y829yG/FfjtJ334V9H74zbNuiJmXPlObJhHoUFcPYkfhYXhG9/5GRqqliEmLAZPLsqC8bPfY/+HTbjQeUba6CR+5tXzYkAp9EhHGnSGGuTgcBVSw0AHEREREdGd4m/oyhDd/xdheOdvw/AvxSJ4EYYCaV3eurtQszUMP4sCzp53bnc7PfP31/tzddAgxj+J/POX8V+iR4WcWPQFlJ74Z/zzP/0d5vzhMs5/fRVLYkXGjiJ8Im1z3rgES4zn0df3iUhZKq+Te2j4MsShK3K5zUETBjlopDDQQUREREQ0Cl11y8UhilqODrm48m98IwyP3A1Y/z9lWdaH30pt1W//8C789Z8oq24TkZvj/7QB//I7BjoCMx4PdJnwozdPoj87xtcNyP9fl7G2YA7w+ScYf/cQU8t+fRW/vyr9O+vHA4amiPLJT4El73ao3ieXjQnOx98GDHLQSGKgg4iIiIjoDrlq8Rq2opQjl/rw9265OERRy9Ehylppnct//L8+ZP2LsqC40NyHaumxgfiP349MUEL05Jix1TmtrAh2iM/Enh0B+PoCdjb9XlmQ3P0Ypn/zJJou/B7nOy9gevTDyh2BufDLFzDxGyo9NZTy5E+A95+PUb1PLvd8Ay/88tYnJWWQg0YaAx1ERERERHfI+G9If7TueTecQ04mTwrDevfhLFJRy9Ehyi/m3ch/ceE/AX2UsiALg+7Pgf99OrAgw4X/Um6MAJGnw6NMVO4gn35vOw9862HcSAM6GY89fhKtXZ+htSEDcY+Kdfl4MiwMD2e8j/czHkZY2JPSGuc6eSiKm8l/vV+1p8b5k0X4XmwGfrzxe5izZi2+N+MFVPzmsuq2tzopKYMcdCsw0EFEREREFBL6cLYD0P6JZ+LP8dKy7t/78IWyfDt88Ld3oXmzZ1mmY0LSwXzWbELGn4k8HDfE/fX7yEAjfhU5BwlyzOEmc3RIrnadRGl6DBIK/wu5DfvxzDd+hQe+k48Par6H1hcT8VevGNF0Sdn4NmCQg24VBjqIiIiIiIKBcySIb+f68J4N0H1LWXZ5OAy/2HQXHhG3b9P0su5Erg4KxGdo/HA65jijGf0e+LMk/P7DnRi/dA48QyABuvp7tB59Bz9Kj8E3ni7F+e9/gNaTRZgzSblfeHQJ/u7EJ/jxwx9g2eMPY3rGz2A89Rmuirwwt4h7kGOwoAWDHDRUDHQQEREREd1J1hvBhoicPhRKq76Q55d116eyzsukMBT8MAx/qVbDv0f51216We8yktPLCiLAIT4Tc3ME6OrvcTU2A0/GKssul36Fd95IxAsLBw9zXO2+rNxyanj9STz8jYl45qcNmLjUhMutH+DvlsbhAeV+D3dPxpz1+3Gm9RP8XdJ57F8eg2/c8zCmv/IruGUNGREicOEKcggi6CECGWK9NwY56GYw0EFEREREdKeIGVO8cnQc/AvgEZG7w4vmbuWGL5owfPtbfoaH/EkYap4F7lcWvf3l/wzDzuSRGV7yf9r68H+U2VbEv2KZPTsGMT4Ba//hBcQpi/3ufhgJb6zFErkHxng8kPKA9BeY/P138M73Re+PJORezsXkAwZ84/lfIfeJG8+QlLkfJ23/hY6GCvz4+wl4QOUY+uyC17zDDzyG7/3tDnwg7bf/+uxXMG36nnpgZBh+/vOfy/9u2bJFLq4hK2K9CHq4MMhBN8t5JtvQ3Ne3LV6+SURERERENBxixhXvwMaujLARz9MhZncRs7qIHCAi4ent8lnneTw2xBlQ6AYxo4sgkp0KW7dulQMeLiJfhzAagxzc96Nb2MYWYPuMMPboICIiIiKiEbVrWRg2LvAsTEZKgqvHhnvg4gc/+IEczHj0UXlaGblnB3ty0HCwRwcREREREQUl9ugIPo899hg+//xzfPbZZ/2BDRf3BKXCaAxycN+PbuzRQUREREREt9QaYx+TkVI/EcgQQQ6Rk8M7yCF89NFHyi325KDhYaCDiIiIiIhGnMjRsd/Sh39RkpISuQIZYqiKiwh8iBwdIm+Ha1gLgxw0XAx0EBERERHRLfPFLZxt5VY+N4089/wcIrghhrGI4kpEKv4VQ1oY5KDhYqCDiIiIiIhGnMiZ8Z1YZ8+OWzF8RQyLEc8tXud25uegm+MKcoghK6L3hghqiN4cYlncFjOwbN68WXVIC9FQMRkpERERERHdEv+nrQ/P/L0zyDGSwQj3qWs/+NswfCf29s7owoSUQ+dKQuoightPPfWUnK8jmHDfj26uZKQMdBARERER0S0jghJr9jtnRxlJInAiprG93UEOgY3doROzqdTX18vDUkTPjWDFfT+6MdBBRERERER0E9jYHbu470c3Ti9LRERERERERCGHgQ4iIiIiIiIiChkMdBARERERERFRyGCgg4iIiIiIiIhCBgMdRERERERERBQyGOggIiIiIiIiopDBQAcRERERERERhQwGOoiIiIiIiIgoZDDQQUREREREREQhI0z+u6G5r29bvHyTRq/POs8rt4iIiIiI6E65f8J9ePCBCGWJxpIvf2/nvh/Fwja2ANtnhDHQQURERERERERBzxXo4NAVIiIiIiIiIgoZDHQQERERERERUchgoIOIiIiIiIiIQgYDHUREREREREQUMhjoICIiIiIiIqKQwUAHEREREREREYUMBjqIiIiIiIiIKGQw0EFEREREREREIYOBDiIiIiIiIiIKGQx0EBEREREREVHIYKCDiIiIiIiIiEIGAx1EREREREREFDIY6CAiIiIiIiKikMFABxERERERERGFDAY6iIiIiIiIiChkMNBBRERERERERCGDgQ4iIiIiIiIiChkMdBARERERERFRyGCgg4iIiIiIiIhCRpj8d0NzX9+2ePkmEY1d3V/14Kueq3Bc+yOuX7+urCUiIiIiGjvuuusuaO69B/eFj8eE+8KVtRQMwja2ANtnhDHQQUS49sevcenL38sndXEyHz/+XoyTbhMRERERjTW916/j6tVr8kVAcfFv0oMP4N577lbupdHMFehgS4ZojBNBjvMX/xPfvC8ckyMflCPXDHIQERER0Vgl6sKiTizqxqKOLOrKos5MwYOtGaIxTvTkmHj/BER8k93yiIiIiIjciTqyqCuLOjMFDwY6iMYw0R1PDFdhkIOIiIiISJ2oK4s6s6g7U3BgoINoDBOJR5lgiYiIiIjIP1FnFnVnCg4MdBCNYWJ2FZF4lIiIiIiIfBN1ZlF3puDAQAfRGCaySDPxKBERERGRf6LOLOrOFBzYwiEiIiIiIiKikMFABxERERERERGFDAY6iIiIiIiIiChkMNBBRERERERERCGDgQ4iIiIiIiIiChkMdBBR6OtpRUV2KubOl0p2JVp6lPVERERERBRyGOggopDXuKcQyKnFiWNSybbj5T1W5R4iIiIiIgo1DHQEM4cZm/UZKP24W1kxAjqMWJa5G42XlWU3jSXTETOtBI3KMpG6VlQs1mFhVYeyPATNu5GWLR1/dmU5UA6L9FtIxbL1JaiqtaLN5lDuCECvA/bL3QOKo1e5P0Di96HdYsZQ37qqCyasnJaN6gvK8pA4UF+YgeKTl5RlIiIiIqKxhYGOIOb41Cw1hC5h/IMTlDXDZDNj8w+L0KiZhMgIZd0IsB0twMIllTcCJHIjbjqKTyvLFGLikDj7Glo+aoJNWROoxl+Vo/G3gOY+ZUWg7tYi6x/ysPhPr+GTPS9i4ewExOkz8FKZCY3Sm0hcVQCUKUNXyiPw5iqt8kCJrRYv6XTQepW4OBHYEyVVOlYHC5xcQttZwB4egRH86dyUTlMO1lTZYXdcVdb40XsJDRV5WDZfp3xWHeZm5qHiFIMkRERERBS8GOgIWg40njRJf7tQutjVIPMq2rLAe1/0WFG8PBtVWIH9bxgQPU5ZPxJ6bGhpHmqTl4JZ/GwDNGYzGlR6BvnksOCw0YHEVc8gfqjH3zgNomfokZ6Vj12HzWj9jRk1W1Jxf6sJDf8h3R8eh6xyZehKeSbiw50Pk002YO/ZM+jwLq0nsH3BBOmxGmj+eE3Z2Bc7HF8CyVOjlOU7o/NoAV7YaEHStnLpvQ/yXhxW7FySgmUlHwGzcvBWZaX0289BEj5C8fMpWGnqUjYkIiIiIgouDHQEq8t1eLfKgXnbTsBqsXgVEzbNlLaZNRXRzq39s1tQvCQDFcjA3qo8JLo3AokG4z3044tWNPZOQTLqcKisEqVlZShen4mFS1Khza712cvDYalDVY8Wi2cPL1jQsjsTG+quInZOBraWG7F2hnLHUPS0YuffLMSGjxKwtdqI3Fn+e005LnehrRnQXD6Dhlqj9JmLsGaJAbpsk4/Pa0Wxd2DSvegLUA8zNui97/M9dMxxugQv5JiArErsMgz+Hdpbm9DsiEHWu2bs35KBRbN1SEqVvrOKD/DWAjH8ZR8ahjACiIiIiIhotGCgIyg50LjnbRyfsgKrUqMQMXGCZwm3ofM0EJ0wFZHKI3z6ohYb0jNRIXpyVOcjedAHEHn52oLS/iEfeqS8mI/it2rRFTMB9cZadH4NPDQrE5tyi3CwMMXHMdmN+kNGYEEGFj+irLoZrbvxcqkVF4fTQLdLn2dpBkovp2LXB+VYPk2j3OHJmbPGWeJ0ojeUBo01ZSg2WaVf6BQ8vS4PewtSfXxeLXIHBCjdyuF8JEGHrYe978tBovIMHs6ZsOaFfcDycuzP1UrvZHAR2kzsOmbCplleW4+bhCS9HujpQudQeuQQEREREY0SDHQEo9Z92FBhw6K8NUhUa9F0tKJeaurMeyJOWaHOZi7BwsV5qO4AkletRNKdTi5AwUmjx9b+IR9NsBw2oeZ9UV7H8vAO3P8X2cgy6JE0W4vYSB9N8Msf4VCt1E43pAwrx0XjiXK0LSjEWwH0aFB1rs4t8FeIeVOU9SoS1ynBh0+b0PHuCmnNUrwlPndlCTblZCJ9jg7xU3yHHDTeAUqPopF+wdJ/KusHOFeLNUsK0PhUCd7ZpEfksIedOdDyG4v0bwTuZ+8uIiIiIgpCDHQEG5FL4+UydM4pxI/ndmGn1Cjb6ZU4sO3TE+iEAU/66rLfewn12wzQZx2AZkEq4pXVgTGheH0Zqk93DXlWChpjwvVYnhuHquJ9aBnkWLGdrMXx8AzM1/kODATEMYyuHF+YsGZJDo79aT5qDuQMHvgLV4IPERq0/c4iDxWLutkgwwULdq5NhVb0ENHqkbbFhHblLr9EAuEX8lCfUIiaN1KHn1unpwsNZZlYY3Qgdm0Gkhn8JCIiIqIgxEBHMOntQvUrytVmqVETKf2X+BSw5/kULMw3oa1HbNSK43tbgVSdam8Pe6sJG57RY+WhCORWm3EwRzf48BYPU6HpNmHz0rmImyk9T4kJjYNMgXm1V2p8hg+zAUtBKTajCFsjyrDZ6G+q2S4ce8+M6FUGJA3zMIn/qxWIPlqOHYPOkuLJIaa1XVwEW2o+Nk23YvMSr1lITnbB9zN2o72pFZqZrpw4l3A834CFIkeH9sbwFlFUZxrqMWPz/EwcnpyNg2YLLO8XIfFLKzqVu31yWFG6PBvVjxbixM7hJBB2yxeinYs1RyOx/A0TDq4LbAgMEREREdFow0BHEHF8YUXjlRS89Y6SMFSMpV9bCfPh9YiqK8Dcp3NQsbsSO85psNyg9xwCYG9FtdT40kmNuZYnSvDRJ5XI0t7MtLRa5Jab0Wqpxd51s2A3FSBNn4CFr1SiwUfAw/a5BXgiKoDEqA40iJwO7CkSOsbFYPmbhYgofdH3FK1fmHHYGoflWjt2ZusRNy0BuuxKtMiBu8HZbd3KLUAzMwdbM86h4oUcVJ9TVgq9DnR2qAcr7KfKkPY3YoaiCXBc6IBjSga27vu1c1hK3T6se8KGHdlzsbDQArvyGE/taD4JzJs2VVnWYGpqHjbl5mHX+2Ylt4az5LrNauti/6gWVRNz8OamVMROnoDIGD02vSKGwnTA5i9HxuV2tHQAi9OH25NjKtLFjCtSeWvLCsyPcsBhl4pyLxERERFRsGGgI4hoYlKx/UAJFnnlDYiIy8CuOiNyY8woLq2VGmrZSPdOMHi3DS1np2PrYTNqikagi/vEGCRnleDgJ2Yc3JIKnHwdy/Q6bDbfaHQOWYcJpVsKUPX/2MQKSr2X0GAswprFIljh6iGgx8J8C2IXRAwMPihaju1Do9Ssri4pQWfKbpjNZVj829ex+VAg05t24PBqHdKMrm01SM6rRNZkMza8bESbEjRzfPw65s5/Hce9Agc2cxHSnt+NtrjV2H9M+m3szMfyVK0ccJCHpTwSh0VrK2E5sAKoykbpxyrHZscZ1Pfo8OSfuwKHExA7S4ek2Tokxkxyy68xARqV353DYQeipe3c77tH/OnC6TOew9I8TE7FuqwYVL+SgWKzn+0GJb1fMeOKVBZl5GH77nzEmzOhX2ti0JGIiIiIghIDHaEiQov0NJ10Q4NFeRmI925QheuxtboQ6XE304vDj3GTkJhRiBqzCVtTDXj6Ce/nv4QuMWphatQgQ2Qu4UjJ62jUrkf6X7DDfNARSTzFkKj37Ji5ajdOKD0YLO+/jdzUKbjY3u4corHL7NkrorcV9f/oDFIk/8SI7YY4RE7WY/4CoNFs9ZqaVTpGthThSIdbsMHhnNY1McYt+Wi4FpveKUTy2SL8sKJVXqWZnYrl4XV496h78MSBi2e7EJFZDvMvcpA0WVmtQjMzA1mzHKj62Pl87mxNZrRMmYV4P4lL/YlM0CPxVCUqTirBCkcHqvcckG82dPkL9miQmGdCzRoNqrKewRpTIIGhAIyLQvqqpcDJIlScYtCRiIiIiIIPAx2h4pwJrxaaoZmTj9y5IxzMCEREHJa/kYfkAbM02ND5WyA+yn+Yo9OUj1dPTkHu1gzEDre3Cd1m3Ti+Iw/VUYU48X4JslLjEK30YIiM0SLZkIO3qi2wHjaiZpPXkKpWs9zLI7HgbWyaeSPAFT1VD1y044qy7NSF3x0y4rR7e761CdXQY4Zr1IjLFAM25WrRVlqOI6IXxzgtFq+KQuMhs1vuCw3is8pxcKMekdJnaKzIwVyd6Ikihs6U4MhZ90b+eOBe5aYH6XEfS7+7BbohJvV180gGdlXo0fiK3tkL5vFUFGtWIGuW9L08PEnZyBfpM6yuRE1BAuo3LsTKqo6RGXIyZSqSpGfqvDCMHlpERERERHcIAx2hQFxNf6EA9VKD77Utw0lKeAt0NOHYOQ2SpscoKwZynDVic6EZSUXlWOt/Rlwaldpx2uTA8uf9D4mKiNMi1iMQ5kDDL8vRGZ6BdQbP40MTHgE0d3n2/rB1oaUnDrFRNwIibb8xwzFDj+kqcbTYxZlYhDoc+sjZUyJ+1nehsZpVc8nYj+YjbYf0Gd4xw2o2IneiGS+l5+CIa9veLrR9Kj3Hw17TkDia8EktkD5reAdupD4PNaebnLk8rGdg3ZYA+ynpM0wOJFWwBrHLy3GiSIeGQgOW7W4NINjhQKd5N1am71afEedcOxqUm0REREREwYaBjiAnggRiSszqC3ps/6Aci/x0v78TWo7uQ8uUbCxWScIoyO8/vQgNswqx1eA2/ICCzpWvrim3AuSw4pjJIc+24t0TKOIh0ZPhGuzuo1RarahHAqL7h4h0oOGXrYiel4BYZY2HiDg8OQto+ELpAvKtBMyDGZ80Deyl0HamDsjIxvIZkxAxOQ7pRa8jd7IZr75rBXq70VCaj4oePZaneAZkHBYzqpCKJ7Wu4EsHqpZMR/EpZXEoxmmcuTzCHWjcUYLqIU63G53uDHa0lGYEEOzQYLytCfXWcpR650IRszvtOSA9XounnxisRwkRERER0ejDQEewkhpfLcYc6FKLUD95BfbWlSP9JnME3DIdRmwus6nnDJG0HSxAmhLkGN70mHRnTcVMgwZHyspQP8hUw+7sJ02o6tHKQ10GmCyGTjSh05W8VGp8H37XCM3ylBtT0LbWoaI5CumzxeMdsHtPieI4h5Z/A2IfVHphKIGP42fbnctuYhMM0BhLUFrbis7L3dJzRSHp+zFwHC3Ewid1WGbUIKuiCOkegUQHGj8yAXodEvs7etjR2azcvBmXW1G90YC0CiDrnfVDnm43Or0M+9fGyMGOwXJ2RD6bj+1zIA95EbMmHfnYgoZa6TebZcCGk0D82jykP6JsTEREREQURBjoCDa93Wg7uRvLpMbXwi2nEJ9TCfP7eUgOpIf77SSG0/ywCC1zCvHjBeo5Q+pNtcBz5TAzyBHkJmDeuhKkw4iVUqN/7toilBpr0SAazv2lw2tq1m7UH5P2/4IMLFZrTE9JwNMxrSgu2Y36j2tR8WI2Nnyqx2urdHC1/e09wFTtUiTPEEvdOPaKDmnry1B9Unq9kyYUZ78oB1LSZ7t6YUQhfskKbEqYNKC3Q0RKIU68oUXbntWYq9NBK5W0UhtiJ0YhMaccJ8wmbNJ79W5QeqQkL3jKLdGuM+hTVVaGI2LojQiauBWH2jCRC63OAIOYWldnwOaPxexIBzxylgROI71fI/ZnTXHm7PAX7BBJR3eaUfPGUkSdKcdLmZlY9koZGvAUNlXWoSZH2/9dExEREREFkzD574bmvr5tN51Kj24rBxpLMlHck4pN2RlIHO5QlQsmqXFaAGwzY6/Bfzf1xpLpSKtYgYNn85CorPPFbt2NNZUTsHVbhldeBondjM3p5dDkvY1Nc9g1/k76rPM8Hot+WFkapt5LaDxUg8Mna9H4mw60XHALJ0xMxa7aEsxzRQQcrah6ZT1aUg9gu49AmBjW9GrW63KejMg5S/Haxjwk++xh4EDb0XLsqK5DvRxU0SByZgrWvVqA5dpblJz3i1q8tL4OT75d5tnTo6cDR3aUYc/JU2jp8Bwms7yiCVv1nuEDh7UMaS+aETXHgAVpesyLi1KdhnZIxPCT9W/DkV2I5dMYriAiIiIaCSNad6ZbImxjC7B9RhgDHURjGE/WRERERESBYd159HMFOjh0hYiIiIiIiIhCBgMdRERERERERBQyGOggIiIiIiIiopDBQAcRERERERERhQwGOoiIiIiIiIgoZDDQQUREREREREQhg4EOIiIiIiIiIgoZDHQQjWF33XUXeq9fV5aIiIiIiEiNqDOLujMFB+4pojFMc+89uHr1mrJERERERERqRJ1Z1J0pODDQQTSG3Rc+Ht1f9ShLRERERESkRtSZRd2ZggMDHURj2IT7wnH9+nXY/8BgBxERERGRGlFXFnVmUXem4MBAB9EYN+nBB3D5SjeDHUREREREXkQdWdSVRZ2ZggcDHURj3L333I2HH/pv+MNXPbhg+xJf9VxlglIiIiIiGrNEXVjUiUXdWNSRRV1Z1JkpeITJfzc09/Vti5dvEtHYJcYeipO649of5e55RERERERjjZhdRSQeFTk5OFwluIRtbAG2zwhjoIOIiIiIiIiIgp4r0MGhK0REREREREQUMhjoICIiIiIiIqKQwUAHEREREREREYUMBjqIiIiIiIiIKGQw0EFEREREREREIYOBDiIiIiIiIiIKGQx0EBEREREREVHIYKCDiIiIiIiIiEIGAx1EREREREREFDIY6CAiIiIiIiKikMFABxERERERERGFDAY6iIiIiIiIiChkMNBBRERERERERCGDgQ4iIiIiIiIiChkMdBARERERERFRyGCgg4iIiIiIiIhCBgMdRERERERERBQyGOggIiIiIiIiopDBQAcRERERERERhYww+e+G5r6+bfHyTSIau7q/6sFXPVfhuPZHXL9+XVlLRERERDR23HXXXdDcew/uCx+PCfeFK2spGIRtbAG2zwhjoIOIcO2PX+PSl7+XT+riZD5+/L0YJ90mIiIiIhpreq9fx9Wr1+SLgOLi36QHH8C999yt3EujmSvQwZYM0RgnghznL/4nvnlfOCZHPihHrhnkICIiIqKxStSFRZ1Y1I1FHVnUlUWdmYIHWzNEY5zoyTHx/gmI+Ca75RERERERuRN1ZFFXFnVmCh4MdBCNYaI7nhiuwiAHEREREZE6UVcWdWZRd6bgwEAH0RgmEo8ywRIRERERkX+izizqzhQcGOggGsPE7Coi8SgREREREfkm6syi7kzBgYEOojFMZJFm4lEiIiIiIv9EnVnUnSk4sIVDRERERERERCGDgQ4iIiIiIiIiChkMdBARERERERFRyGCgg4iIiIiIiIhCBgMdRERERERERBQyGOggIiIiIiIiopDBQAcRERERERERhQwGOohodOvtQFV2NipaHcqKEXaqBDHaAtTblWUiIiIiIgpqDHTQ7eEwY7M+A6UfdysrKKT0dsN2WbntxX60AHPX16JTWQYu4cj6TBSbLynLfvReQn3xiyhGCuZN0zjXObphvzxIGUpM5B6p9ExARIRzkYiIiIiIghsDHUGmsWQ6YqYNXuLKrMoj3F1CdZb69t5lpSmARugQOD41o/rCJYx/cIKyxr/hfU663Ry/MWLl/AzsbPaOMHSj/pgFyYYURCtr8MUJvPvpLCyePUlZ4UNvF47kr8CaMwtx8A0Dosc5V9tq10Or0/ktL9WO7PFLRERERETBI0z+u6G5r29bvHyTRrmeQa5Wn9mLlMzdSCqz4K0FA4MKDns3HL3Kgj/hExChXEAfPgcaCmdhWZWfNx6+GgetOUhUFof7OSkwn3Wex2PRDytLw+M4XYKFL3Qg64NypE9RVjbvxty9MTj4RgqcHSYcqN+ixyHdr/3vtwtmFK/OQfWj+ahxC3IMh89jv6kM2mxgr8Xt+HM37l5EjNyPgYiIiIiC1EjWnenWCNvYAmyfEcZAR4ixmbKh2yjtW7PU2JysrLzTLtdijS4P2HYCr825X1np0oXqHxpQfH8JLOWpiFTWDmZUfs4gNNIn605TDl7+PAN7c3WI6JX27eq52GBW7vRHXwhLhUHZ/5dwJHs1Pkl5HVsNMRiZEIPozaQP7L1483hvRERERHQn/X/nL+D/93BgDQCxrRDo9oNhoGP0cwU6OHQlpHSj8WOpJTdDj8RR0/h3oHHP2zg+ZQVWpUYhYuIEzxJuQ+dpIDph6hAakqPxc5IQbSjDQRHkkG53morkwELWgTPoOKsUcyGSsQIHXcuu4hFImIRF5SZs7w9yOFBfmIo1tV3Onj5qOTnUikqPoORtZs/XFeXACukelffUfx8RERERjQZ79v4ci9OWyv8OZuvPXpO3bWziUPexiIGOUGI/haO1UmNzXgJilVU3WFGskuPCbykZgZNC6z5sqLBhUd4aJKpdmu9oRb3UnJ33RJyyIgB+PyeNBmIYywt7geQZyophcJwqw46eHGxaEIXGHeo5OVQL87cQERERhZRnFszDww9Pxv9+Z5/fYIcIctT+6ph8OzFBK/9LYwsDHSHEbq7FEWiRNV8taKBFrsUC64BiwtZZ0t3Lywfet26YJ4UeK4pfLkPnnEL8eG4XdqZnYucpzySRbZ+eQCcMeHIIDWL/n5PuOIcFpS93IOudfMx/EKhY6hY80xegHvuQ5h5Qm1aCRuWhA5wzYU02kFuUIufpSMxT6XUhilpPkTz+T42IiIgolIghKJt//KrfYId7kKN8x5sjNmyFggsDHSGjC4ffrQP0Bsx/RFnlReM9bEQuGuAP4s6IgfeFOx93U0R+hlcyUSE1Pve/IXJvRCLxKWDP8ylYmG9CW4/YqBXH97YCqTr13h6qBv+cdJv1OryGjGiR+6FISDpevnvwoSt56klAz9VizdIiNEjHimYEkpESERERUfCbmaD1GezwDnKIbWlsYqAjRDg+3odiqwbLMwNP6OlkR2czEH2/n0jDBRNWelyB91OU4S6OL6xovJKCt96RGrEiYDJuEpLWVsJ8eD2i6gow9+kcVOyuxI5z0ns26JUZOQZ385+TbhlrmeeQkVdqYR9mYMJu3Y20JbV4uiQfScq6keDosXkGZUS5ck2659rA9f33EREREdFoohbsYJCD3HHWlVDQ24GqpanYbNUgeVsN9hqilDsC0GtBcVwm2raZpcdNUlZ6cXSh8dNz8Dfba7/I6UiaNsh0r3Yrdq7OROlp6Rmn5KDm16sRH0jDeDifk1SNeObo0yWI2TVVmaUk0JlORA8Pt14dtjq8ZKjFnANlWDTOhJX6dqzz1evDRQTj/G7HWVeIiIiIQs3pJqsc4DivzK4i3MogB2ddGf0460oIaTPmS43/GMxbEIf6jdkotQYUknC60AXpUEB0pJ/ghCYKibN1SAqkDBbkECK0SE/TSTc0WJSXEViQQzKsz0l3zJCHrkSm4K0Py7BoirI8gjjrChEREVHocO/ZIbAnB7kw0BHkxOwWPyy0Ijb3dex6owTb9R3YuaEMjXIOjMHZm8xogB7x0wJOkjF850x4tdAMzZx85M4NIDAiGe7npCAz4jk5JmHxGxa8leqj15Iv2hxY5RwzRERERDQaicDGkYMHcFgqDHKQCwMdQcxx1og1L+yTZzV5JytOahxGIX1rIZI79mHDDuvgQ016O5yJPRekYv7tSkZ8rg4bXhAzb+jx2haDPJPGYIb9OWmMuAa7n4NBEzEBEUON543TIGLIDyIiIiKi242zq5A7BjqClEjWuCy9CA2z8lHzhlvAYIoBmwq0aKvIx45BhnZ0mkrkoSC52akBJwMdDjlgsSQH1Rf02P5BORYFcC4aic9Jt4/jSreIN+CqsiwMPr2sKH6mmA1YFy5eVm4SEREREdGYxUBHsOntRosxB/r0MrQ9JRr/GYj1mgY2Nj0PWVPE0I59aOlVVnpwoK0qG3PzLUjeVo61ccrqW0V5z7rUItRPXoG9dWLqUeU+X0bkc9LtZDMXYWEJkB5uRJVINItJSK9QyXuhWgZJNkpERERERBQgBjqCyQULSv9Gj4VbTiE+zwizSuNfptFiXV4qNB1lKD10SVnpZO8wY2emHnMLm5C8xYRdt3Lmkt5utJ3cjWVP6pzvOacS5vfzkDxYwoMR+Jx0G11uRVW+ASml92JTVSG2v1EA/FiPZSUm1J/ugE1t2laldDZb0PCxKLWoqm0d2jAkh6P/eWxn29GOKDw0UbmPiIiIiIjGLAY6gklvFzrvX4q3as3Yn6VFhJ/8FhFzM5GbuhqrZnsmX9T0tOL01YXYLj3HrowY3NLsA+Puhf3Tj+BYkI+DZgv2r9UhMpAkkyPwOek20jhwEQYcPKAEscK12PTBB8id2oVDO9Zj5WI9tDqdapn7wxIUl4pSidOIHNrxKG3cWOZ8Ht16M6bnGZDEdBpERERERGNemPx3Q3Nf37Z4+SYRjR2cC5yIiIiIKDCsO49+YRtbgO0zwtijg4iIiIiIiIhCBgMdRERERERERBQyGOggIiIiIiIiopDBQAcRERERERERhQwGOoiIiIiIiIgoZDDQQUREREREREQhg4EOojHsrrvuQu/168oSERERERGpEXVmUXem4MA9RTSGae69B1evXlOWiIiIiIhIjagzi7ozBQcGOojGsPvCx6P7qx5liYiIiIiI1Ig6s6g7U3BgoINoDJtwXziuX78O+x8Y7CAiIiIiUiPqyqLOLOrOFBwY6CAa4yY9+AAuX+lmsIOIiIiIyIuoI4u6sqgzU/BgoINojLv3nrvx8EP/DX/4qgcXbF/iq56rTFBKRERERGOWqAuLOrGoG4s6sqgrizozBY8w+e+G5r6+bfHyTSIau8TYQ3FSd1z7o9w9j4iIiIhorBGzq4jEoyInB4erBJewjS3A9hlhDHQQERERERERUdBzBTo4dIWIiIiIiIiIQgYDHUREREREREQUMhjoICIiIiIiIqKQwUAHEREREREREYUMBjqIiIiIiIiIKGQw0EFEREREREREIYOBDiIiIiIiIiIKGQx0EBEREREREVHIYKCDiIiIiIiIiEIGAx1EREREREREFDIY6CAiIiIiIiKikMFABxERERERERGFDAY6iIiIiIiIiChkMNBBRERERERERCGDgQ4iIiIiIiIiChkMdBARERERERFRyGCgg4iIiIiIiIhCBgMdRERERERERBQyGOggIiIiIiIiopDBQAcRERERERERhYww+e+G5r6+bfHyTSIau7q/6sFXPVfhuPZHXL9+XVlLRERERDR23HXXXdDcew/uCx+PCfeFK2spGIRtbAG2zwhjoIOIcO2PX+PSl7+XT+riZD5+/L0YJ90mIiIiIhpreq9fx9Wr1+SLgOLi36QHH8C999yt3EujmSvQwZYM0RgnghznL/4nvnlfOCZHPihHrhnkICIiIqKxStSFRZ1Y1I1FHVnUlUWdmYIHWzNEY5zoyTHx/gmI+Ca75RERERERuRN1ZFFXFnVmCh4MdBCNYaI7nhiuwiAHEREREZE6UVcWdWZRd6bgwEAH0RgmEo8ywRIRERERkX+izizqzhQcGOggGsPE7Coi8SgREREREfkm6syi7kzBgYEOojFMZJFm4lEiIiIiIv9EnVnUnSk4sIVDRERERERERCGDgQ4iIiIiIiIiChkMdBARERERERFRyGCgg4iIiIiIiIhCBgMdRERERERERBQyGOggIiIiIiKiUe3zzz9HfX29suSb2EZsS2MbAx00uvUq/7pTW3e6BDHTcnDEpiwTEREREVHI+PnPf46nn35aWfJNbCO2pbEtTP67obmvb1u8fJNGN5spG7qNZmXJU/I2M/YaJqGxZDrSKpSVXlzbeBPPq39Pj5rqDMQq6zycNeIlI/D8KxlIjFDW+dPrgN1+TVkYnCZiAjTjlAU3ap8368AZbJqpLLicM2HZ0+3IPZuHRGUVDe6zzvN4LPphZYmIiIiIaHQRvTO2bt3a36NjxYoVyj3q9u3bh0cffVTe7gc/+IF8e6Sw7jz6hW1sAbbPCGOgI8jIDf/2bHTkaZU1TiK4sWPqjUCH67Y7X+sF+XnPZqJjo05Z46nTmIGnLBmwlqUikDiH/WgetDm1ytLgVIMXEu/PKz7Dsb+SttXeCKTIQRKbCSv17VinBDoc9m44RM+P8AmI0MibkQqerImIiIhoNMvMzJSDFzcjOTkZH374obI0fKw7j36uQAeHrgSjigzETJvuUbx7cNRv1A+6jbvOdjOS46YqS946UH+wFcvTU24EOdSGj7iJeGgSoC+E5ewZdPgtZmzXKw8aClstXtLpoJVKXJz0+fQFqMc+pCmfNe4J530v1V5SHkC3VE8X6nfmYKE+wXm86VKxbIsJLXblfi/2VhM2L9UjTmyr1SNtfSUaVIYd2axGbM5MhVberwnQLc7Bzo8D2afdOJIjHpON6gvKKl+ad+OpaRmo+kJZFi5YsHOt63V1mLu2BEfOOpQ7nUTQzf33NbD4e23n+4srtMDzWZ1sp8qQlm1CQCOxLtdijXi9rAC39+L3tYa4X1X1dqPFVIQ05Tni9Bl4qcICm+qwtEtokF5vrs75HWrn56C4tkP1OyIiIqKxIZC8HL4wV8fYxUBHMMoyDggYHMxS7lOIISqDbSMPL7ncLZVWtDQD0REaZVnpDeHSXIeKy9lIn+XsGmETvTXWmtA5SLDjlppswF73z2cuRDJW4KD7Oqmo9V6hkXYJR16ZizXvOZCUU4b9lZXYm6eH41ABFqaXoLFH2UzhOF2CtMUFaHgwE69J2+4vWgaN+XUsW+61rbUM+vQytEwy4Kdiu8pCrIpqR2lmClaaupSN1DlO7ULpUWXBLwcaflmOzgUZWPyIsuqcCSvnZ2LHl3psKpdetzwHiV0H8FJ6DqrPKdtIYp8V70mtlGGt6J2k1SMx0rntAF/U4N2jUVj3fR08OhxdsKIq3wD987vR+LWyzi/p/Ze/jePK0pAM+lpD26/qHGgsXYqFG08h8vlC+Tlee06D+pJMLCu1egYwertQvTYFy/bYkJxXLm1bjtwnulD1igFrBtnfRERERETuGOgYy6SGpOj1oNUZsPkUUJXt7AWh1emx4zfKNkpDMHLVM4hXcmhELijEW5OL8EJFq3MFjXmRi42wfFiOTQY9kmbrkGzIw8Ff5CC6Yx92HHXrgdHbioof7UNnahkO7szEImnbpNTV2H8gH4nSthuq3I6p8Ol4rc6Cg68r281ORdbOA3hrgQP1hUY0+gq0idfYcgCamChlhR+X6/BuFdx6K3XjSEkB6ifnSO8/D+lzpNedk4HtB8qwHGZsLq2DqzNDxDTxnlTKgx04fjoKWa8aEKuSd0Zoqd2HRu0KLJqhrIDUyM/Wy70din8zHYsD7eXUug+b37sXsVOU5YAE/loB71dfmvfh5YpzWFR2ALuyUuXnWLS2EgcLtGiryIf7KcR+9HVsODkFuQeMyuvpsbzIiF0ZkPb32zh+WdmQiIiIxhwxBKWysnJIRTyGxi4GOoLRSA1dmZnn7PlwWGq4zMjHCbkXhBFZ0CF6srKNaAiaUrBqgXujUYPkzPWIKi1EVYey6rayotjrs3kPXXEvK00cvnJrTULSAi0ivBv1M3SYJ/1T3+52Nd5agx3norBupdswKCFmIValAm3/aEaLsgrTUrDI1cui3wQk6aWWeU8H2nyM02ipWI/SqHxsXRmjrPGt86gRx6fc6K2ECydw6Cgwb11Gf2BPFq5H+pooOGrr0OB32EY3jpSXoW3Bi1g300dyGIcF1Xu6MO/5hYhWVoneE7bPE7D8DRMs7xcifZqy2p/eVux8uQxRmwqQ5WvUmapAX2sI+9WHxl+Vo1P6flfNnaCscYpdnIlF6EC12RXpuIRjh+qABdlYHqeskknnmueyEd1Ti6OnupV1RERENNa4kosOpYxkElIKPgx0BCOVoSuiuIZpJOYNvE+UAUNXFLYzTbj41HTnbCsOOxyIQaymAw0fSw2yHeU4LjU2m98twpolBiycr3MGENKNsMW0o3jHjSvct4xbYMcZrNFik8rncxXrgXys3WKEVVnm8JU7pNc5MEHj1t5v+fTX0vH1XSR6NGaFCZg+Sweca0L7IIkmrirPO16lt4QYFvNyaRS2b/Xdm6JfbyuO7LEi0a23kr3Jgnro8HSCZ8NciP/2d6W/dWj2F9xrNqL0aBRyV/lO2muvM6IKGXg+xf01tFh7rAybUuMGBhZUiSEhIqBTiK2GIUU5JEN9LS8q+xVnK7FQm4CFHr28WtFwVNp2rtYzaCRExOHJWUBnU7szN4i9CZ+YgaTZ2oHf2zStHFg5frbduUxERERENAgGOsa8bjR+bEZ6gtLyPNeFxllTEXmhDsWFRrREpGDtQh1mPpGC539ahv0Hfo3W1jPosNSi5vDbSD/5OqqanQ8d4JoDF5WcH76LDY7BZqF1C+z4Cta4c3xuxs5PbyYtI42oViuOQ4P0J1xRDQds57uAGVGIVGlgR/+J2M6GK34v3Hej6WOLnP8iwTv/RY8VpT8+gKht+UgPYCiH45QJO85Jx7Vbb6WLl0RjeipELt0BoqciSfoMdrtHZgk33Tiypwyd+tVI7x+S4q0Lh9+tQ/QqA5J8dPgIhON0GTYYnQGd6JsJVgzHgP3qg8OGi+eA+Ci1RCVRiBYPv2jHFbF4yQbxzcdOVtl23BTEzpKe7rIIwhIRERERDY6BjiAmpl519XTwV/wO3XA04ZPaVDypdba67L+1oiVONEJWo+ZYGbbm5CA3y4BkkXtAaqBGTJwAjathpdEh93C5V1dzN6eKsFCZGcV3ceYHGXFSg8nXFXW6DXqsKP5RGS7OyUeWa1gIunFRjHZ4UIP7nSs83SP+tKLTTy6GTtN6vHo0Rs5/cWPYh0QksnwlE1WP5mPrswHk5pDey/FqI7A8A/MmKqsk9vOiR8K96lMSS8e9WN1p8xGJaTVix1ENlmemwlcOUjR/gAqrFlmpgwQJ/DlnwpoXDiCqILCAzohS3a+SaZmosTahJsvtc122oVP6JzJc/Zcon0eau5w9wi53yUOWNPepffHjxS4Bumy3vvcYEREREYUEBjqCWKShXOnpIPJquM04ImYgcZva1d/QDYfFjKpZOkyX2yIONFpqsUg7Xb5PcFz2moHFRZmxRRMV47v7+y2bXvYSqrPUgzqi6DaaPYa7FJ9WHka3xxe12LAkA1UTc3DwjRHqcdDbjcbdGZi7sQuLy8qxySP/hRjGkY0Nny/F/kBfz9esJzfNgYaD5Whzz/cxgMoML0MlAg0vFKAroxK7DIEEdEbQrdivRERERES3AAMdoeBCO9qUm0PTjeMmI2KvmPByvgktFyz48JAeT/bnJ7CiVKdDXNzAYEJMXAK0uvU4fEdGiExCeoVa0MRZLNv0HsNdNompPum26KwtwMLFBWh5ogQnfrEa8eHKHYrxdys3VDi+EmOYdIh1JcJ1sVtRkfVdpO3VILf6ALZ7JMYVvTxysEwM43gnD4ler+fLwFlPFB6JJ7z0OOR8ErFTVAKHDguOVTkQvzJlYD4KlwEzvAxRf6+VQryTqx2hAE1gBtuvqsb5e4cO2MX0tGKYnFiUtvW9tR2OL6V/pkb57ilDREREROSGgY5gdcGEla6gg/eMI2LZXACda3laCRqVh3mbnlKON6uN2LsM2LM0G1WzU/G0R0NTj+3mgcEEZy+SO8xuQenSPBw5pyzTndPbjYYyA+bmtyO5vA41RakqV/wnIUpMhGJul4c0eLt4QSU/xhcmrEnJQPXkPJz4sBJZWu8koVZUbTTD0WPGhqddx7uzyD17IK3Xe/0GVGc9cYqO0kl/O9B2wbns4aIYXhGH6IeUZTf2k7Woghbpet8zvQyY4WWorEZsOOmA42QBnvIIPuqxQf6oym++xOrcfiQEtF99iIySExyrz85iw0WR1DUmEvLXOTkKSdI/bZ+rDLPrtaGz2VeuDyIiIiKigRjoCFaTDdjrCjqI6WFnFeIj17LX0JWOs3lIVB7maQJiU/WIl9pdERFSY+2cmN2gEiu3mWFTG65ypwyYdUURoUN6mh2vviA1YsXVYbpjWiqWYlllJLZ+YETuLN9DpWIfT5X+WtAyYOaSbpw5ZQH0cfLxKLtch5cWF6DdYETNNgNiVXsRTEV6ZSX2q5S3MkW+iDhkvSGW05yzCknUZz1xipyegGiY0XJ2YNrLln/9NRCuQ/yAYSfdaKirBWakIsnXkBSVGV6GLCZtwGd0lhJkiZ4pM1bgLbH87FBnYfEt0P2qbipmit196szAHmf2VnxyCkh+fLqzJ8fk6Zg5Baj/zRkM+ObPOpOfJk0ffLpgIiIiIiKBgY4QIE8PO2PqgKvTARNd4guLYC8owq6dRrz5iAlryq0DGxx3ip9ZV6INZdg16wCWlVlGz/sday7XYkdpB9LfKBs0OWbE7BSkh7ei4j2v/dVRgz21GiwyzO0fntBifB1HYtbjH/wO05iAWJEoV61ME88UidgnxHKMMlxkkFlP4lKwXGpPV71bi073YF+PGdW7uhC7ZiESvQMVckJf6Vicl9AfTPGmNsPLkE2MGfgZ5TILsQ9K9z841bk8bWAA56YMYb+qm4CkBQZomveh+pTnr7PtcCWOhKfiuTmu4Ekc5i2TvnijEYc9emg5UP9eOTpjsrFYq6wiIiIiIhoEAx3BrrcV1XssSJ8d2CwOth7veQuciRw3Ix9vZogrphrEZpTh4NoRyAEwEtPLhkciXjTiFInrLJDavW40SM4zw5I3Ukklach+ewbHEQON3YqGjy0qxYpOVztXTFdcoMfFymykvSI1dqX7600lWLa0CC1z8pE719VI70KLpQt4WLp1Su05pXLW7zy06gad9SQGy3+2ArHmAizMKkH1Sel1aivx0tIcVE1ege1qUwy1NqFa+ic5zlePA/UZXka9oezXs5VYqE3Awgoxa80NEXNWY+scGyqyM/BSRa30GDOqSzKRVtiK5IIXPb6P2IwiZMWYsWFJJopNZmnbWlS8koE1xinIkvbJTfeEISIioqD3+eefY9++fUMq4jE0doXJfzc09/Vti5dv0ugmppTVtWejI0+09h1oLDFgWUc2zOVuU1qK/B3zu7DOmiMPWZFnToENh9enovqpWtSIS9ZC7yXUF6/Ayo/1OPi+WiJHK4qnZcB9tIgnkb+jHOneySOF0yWIWbpPWRhc1oHhJw11fk6gzbQCaV8WKN8R+fNZ53k8Fv2wsnRz5GNSzofhy8DjxPbxbvykcC+Od3RDM1mLec/n4MeZOkT2N2YHO/YkoqePn33sfF9we20HGgpnYdmlQljLUv0mBLW3mlD60zJUn74Ex8QYzDNkI3ddqurwGefrOLD9w0r1ng9fGJGWsg9Pv38Ca72Tn/rQWDIdaWcLYakwBJCAU8xCpMcGBLq9J1+vNaT9KgId6W8D64yeU8wK0nmmobwQm9+tQ9tlDSJnpmBVTh6y1IbC2FtR/UYhSg9ZYeuZgNgUA9bl5GDRNIYxiYiIxqqtW7diy5YtytLQVFZWYsWKFcrS8I1E3ZlurbCNLVIDYEYYAx1Bxj3QYT9VgrQt3ch9pxDz3BtYcpABOCjn5lAaQVJ7RTM5Fa8dKMEi17Z2C4pzPsLTZXlIUm31icZmOWJVgxnO+2Z8XI5FKi0r2yHpfdamBNDwcr6/tjXDD3Q0liQgrcIhN5zXvVmJtR5TkJKaMXWyvlyLNboCPFR5Cltn375jo2XnXCz8aAU+qs64+eFlRERERGNYfX29citwjz76qFxGEgMdox8DHaFC5BFgl266SWPpZN1pzMBTe55Cza9X375hEA4LNusycbHIgl2pI5Q7g4iIiIjuCAY6Rj9XoIM5OoIdgxxEAYnOMKLjw9sY5BA0Omy1nmGQg4iIiIjoNmKgg4iIiIiIiIhCBgMdRERERERERBQyGOggIiIiIiIiopDBQAcRERERERERhQwGOoiIiIiIiIgoZDDQQUREREREREQhg4EOojHsrrvuQu/168oSERERERGpEXVmUXem4MA9RTSGae69B1evXlOWiIiIiIhIjagzi7ozBQcGOojGsPvCx6P7qx5liYiIiIiI1Ig6s6g7U3BgoINoDJtwXziuX78O+x8Y7CAiIiIiUiPqyqLOLOrOFBwY6CAa4yY9+AAuX+lmsIOIiIiIyIuoI4u6sqgzU/BgoINojLv3nrvx8EP/DX/4qgcXbF/iq56rTFBKRERERGOWqAuLOrGoG4s6sqgrizozBY8w+e+G5r6+bfHyTSIau8TYQ3FSd1z7o9w9j4iIiIhorBGzq4jEoyInB4erBJewjS3A9hlhDHQQERERERERUdBzBTo4dIWIiIiIiIiIQgYDHUREREREREQUMhjoICIiIiIiIqKQwUAHEREREREREYUMBjqIiIiIiIiIKGQw0EFEREREREREIYOBDiIiIiIiIiIKGQx0EBEREREREVHIYKCDiIiIiIiIiEIGAx1EREREREREFDIY6CAiIiIiIiKikMFABxERERERERGFDAY6iIiIiIiIiChkMNBBRERERERERCGDgQ4iIiIiIiIiChkMdBARERERERFRyGCgg4iIiIiIiIhCBgMdRERERERERBQyGOggIiIiIiIiopARJv/d0NzXty1evklEY1f3Vz34qucqHNf+iOvXrytriYiIiIjGjrvuuguae+/BfeHjMeG+cGUtBYOwjS3A9hlhDHQQEa798Wtc+vL38kldnMzHj78X46TbRERERERjTe/167h69Zp8EVBc/Jv04AO49567lXtpNHMFOtiSIRrjRJDj/MX/xDfvC8fkyAflyDWDHEREREQ0Vom6sKgTi7qxqCOLurKoM1PwYGuGaIwTPTkm3j8BEd9ktzwiIiIiIneijizqyqLOTMGDgQ6iMUx0xxPDVRjkICIiIiJSJ+rKos4s6s4UHBjoIBrDROJRJlgiIiIiIvJP1JlF3ZmCAwMdRGOYmF1FJB4lIiIiIiLfRJ1Z1J0pODDQQTSGiSzSTDxKREREROSfqDOLujMFB7ZwiIiIiIiIiChkMNBBRERERERERCGDgQ4iIiIiIiIiChkMdBARERERERFRyGCgg4iIiIiIiIhCBgMdRERERERERBQyGOggIiIiIiKiUe3zzz9HfX29suSb2EZsS2MbAx3B6nItNmSWocGmLHtpqcjAsspWOJTloNWr/OtObd3pEsRMy8ERH98HEREREREFr5///Od4+umnlSXfxDZiWxrbwuS/G5r7+rbFyzcpOLTsTkXa+TxYt+ihUdb1623Fzu+WIfJAOdInK+sEESAY57zpoacb9iFHRK7goj0SsY8MeHWnXgfs9mvKwuA0EROgUXlvNlM2dBvNypJT1oEz2DRTWXA5Z8Kyp9uRezYPicoqGtxnnefxWPTDyhIRERER0egiemds3bq1v0fHihUrlHvU7du3D48++qi83Q9+8AP59khh3Xn0C9vYAmyfEcZAR7ARwQp7HV6aX4cFx0owb2I3juevR9v3X8famRPkTexH86DLqR3YmyPcgF3mQsyLUJYVjSXTkVahLAxJDDbV1iJrmrLoRrwHrfQeAqUavJDIgY72bHTkaeVl8V6P/ZW0rfZGIEUOkthMWKlvxzol0OGwd8MhvqvwCYjwEYshnqzpNujtRsuhMmwuM6HxggOayVrMez4HP87UIdI7uNl7CQ3lhdj8bh3aLgMRMSlIX5eD3NSYgQFdIiIiGhMyMzPl4MXNSE5OxocffqgsDR/rzqOfK9DBoSvBpKMSaWt3Y2dxPuwb8zBvolhXgz21QORkZ5ADPRbsKDmFrOoz6Dh7o5wo0ELzbAqSvYIcQmKe57aDlY/eMCAWMVhevk81yCFEPDQJ0BfCovJ4z2LGdr3yoKGw1eIlnQ5aqcTFTUeMvgD12Ie0adJtqcQ94bzvpdpLygPolurpQv3OHCzUJ8jff4wuFcu2mNBiV+73Ym81YfNSPeLEtlo90tZXqg7DslmN2JyZCq28XxOgW5yDnR8Hsk+7cSRHPCYb1ReUVb4078ZT0zJQ9YWyLFywYOda1+vqMHdtCY6c9QwdiqCb/Fl9Fn+v7Xx/cYUWJSDpQOfJ3VizWPlOxGtmFqG6tVu+1ycRGCjLwErTUI7zQF9L2s5ciZcyDdBpnZ8pTp+BlyossKkNH1PlQGPpUizceAqRzxdif2UlXntOg/qSTCwrtSqfXdHbheq1KVi2x4bkvHJp23LkPtGFqlcMWGPqUjYiIiKisSaQvBy+MFfHWCd6dFAQuNrXXL6078+SXuv75KpYtvcde/kv+zJ/aZPvFfeffu2ZvpRFS/r+7IWDfReVtX1ffdT3k28v7Xu3XVm+WV/b+j4slp77L1/se/e38hvw7dPX+h5zfw8+2freeyGu72efKoteLh5c3ffYa03KUp/0+Xxse/5gX+a3Xus7rSxSYDr+/f9Tbg2Hre/w6ri+P/vO6r6fHfyo75N/OdX34cHX+gzfjut7bJ60T75SNlNclY6NlG/F9aX8cG/fYWnbT2rK+zL+UmXbprf6/uxbf9ln+JGy3b/U9O354TN9j31L25d5sFPZSN3Vhtf69NJrPPat1X3vnVdWqrra98lPtX2PvVjTd0VZ09clHUvSe/+z//la33v/LL3uP+/ve3WRtM23pefqUraRXPmteE9q5UTf3/1P6bX/en/f775WNvb2+f4+w7dS+nb8xrl48ZfScf7t7/Rlvnaw70PxHP98sO9n/1N6zW89Ix3v6r+1i58q70v6nJkHXeeAwQX+WtJ+fXl130/21yif66O+915b0fdt6fX+bHVNAL9tyW/Kpf2g7cv5lV1Z4fS7d5fKr7fjjLJCcqXmxQHrxP75cLP47tf3HftSWUVERERjyqOPPtontVhvqojHjqSRqTvTrSRiG9K+VzDQEUScwYw/W32wr/mfC+WAxr/LjSlp/VtL+r4trf/3r9v73v1rV2NQasgVp/SlvNUk3bp5V84c7Ht1Xlzft1fs7Tvd3yL0g4GOoDBSgY5PftXUd8W7US83cr0a4V+f6duRLDWUXz5xI7AgtIuGf1xfSrlbK/e3J/oOf67c7mfvO/xinNTwlfa1ryCCeI152r6UeSlSw3mQQMeXNX3ZUkP8J//i+nUozz+vvK/Z/fnlYKHK+1Zzprwv5VspPgMUQvMO6b399f6+f1eWL/7LiYG/K+W7GvA7+lw61r8jAhPavtQf50vH/RADHUN5LRW/27tEeu0lAQVOT78mvc9kr+9SuHKiL0d63/r+/e08D3gEnFyk71McR97BEiIiIhobRLAiOTm5r7KyckhFPIaBjrHHFejg0JWgo0Fibjm2oggLs7uwdasB0WJ1zzm0XJ6LvW9Iy+NisPzNfKAkD8XbcrDyo+9i+yrtTYxx70ajsQzFrxigW2oEVtXCUpmJRJXhL7eXFcX9wwOU4jV0xb0MrVs/Dd0kJC3QIsI738IMHeZJ/9S3uw07sNZgx7korFuZAo/DKGYhVqUCbf9oRouyCtNSsOgR5Xa/CUjS66XjvQNtPmccWo/SqHxsXRmjrPGt86gRx6dkI32W8uu4cAKHjgLz1mUg3v3zhOuRviYKjto6NPgYjuPUjSPlZWhb8CLWzfTxi3NYUL2nC/OeX+j87UoiZ6cM/F2Ni5O+V+lfczs6nWucLl1C1+NL8dZhM2qKxDCyoRnSa6mI/XOd9LcDF/1+D0IrGo46gLlaz+9SiIjDk7Ok77+pHfJutDfhEzOQNFs6juQN3EzTysfR8bPtzmUiIiIac0RCUZFcdChFPIbGLgY6gtG4SMTGTEFyUT7Sp3ShamkGqmwxWL5lNRLDlW2mGLA1LwIVlWeQvmnNjfVD4kDbyd04jgwcNJuw3XCHEgJWZPQHLZxJU7XYpJrvw1msB/KxdosRVmV5r2GS/DR0m/U6MzBo3A6alk9/LR1V30VinLKi3wRMnyU1oM81oX2QKYKvKs87XmWWHsfpErxcGoXtWw2IVbnfQ28rjuyxInHVM/0NcXuTBfXQ4ekEJeeNm/hvf1f6W4fmDueyqmYjSo9GIXdV6sAGu8JeZ0SV9Jt6PmXga3hzJtT1+tXNXI0TO/OwKG7wxw+F6mup6PytVdouFTPc40hnK7FQm4CFFa3KConDhovnpO8tKlJZ4S4K0eIYuGjHFbF4yQYRxoidrLLtuCmInSU93WW7Z04PIiIiIiIfGOgIQo5TZdjQkYmthiipsRaJpGcjUFHr1sAQAQpTAV4oBNbmPYWGrKXYYGqFPeAEgp6mzn4K8b5abf5cc+Di5W7Y/RYbHIPNQptl7A9iHMxS1vnh+NyMnZ8O0lqmW6/ViuPQIP0JV1TDAdv5LmBG1MDZNiTRfyK2s+GK3/yb3Wj62AJo9UjwbhP3WFH64wOI2iYCgMo6PxynTNhxLgXPL5B+R4qLl0RzeypELt0BoqciSfoMdp9zMXfjyJ4ydOpXI32GsmqALhx+tw7RqwxIGiym0NuKxhOAxjALt3xOrEBey3EJbSfL8HJJO+ZtWT1g9qYBpN+26B0SGa6+oTyddHMX5I4hl7vknjya+9S+lPHAvdI/XTbntkREREREg2CgI5icLpHad3pon98nNTgK8FTcdGifycDLB7twZY8JDaL9JWaLyNRj4cFJ2FpXjtysQtTUZuBKiQG6JQWobh5kFoeRdKoIC5WZUXwXAzafUrYfSZMjfV5Rp9ugx4riH5Xh4px8ZLmGhaAbF8Uolgc1uN+5wtM94k8rOi/LS6o6Tevx6tEYZL2qDNlyETN2vJKJqkfzsfXZG4EL37pxvNoILM9wzl6ksJ8XAcN71acklhrmYnWnzcdvqNWIHUc1WJ6ZCrU+DLLmD1Bh1SIrdUCXFi9itpL1KL2sx9aVulvck8rfa11CdZYyDOxxPebmn0P6+2bs8v6Op2WixtqEmqzBPhcRERER0a3HQEcwmZGBg1UfwGIVvRuc07Km/8yEmvelUh6HT14xIG5+CTpT98Hyi5WIV1osmmkZ2PWJGXvndqF4iQ5xmaZBx+GPiFs2vaxb40ul6DaaPYa7FJ9WHka3xxe12LAkA1UTc3BQzhmjrB+O3m407s7A3I1dWFxWjk0e+S9EQz0bGz5fiv2Bvt4XNXj3aBTWfX+kgggONBwsR5t7vo8BpG1+WY7OBRlYPCD3iJveLhzZaECaMQK5vygLqHfKTRv0tSYgaV2lPC3s/vJCbJprQ/H8WVi4zTz4FLPj/H2zDth7pH9mTXUGhaRtfW9th+NL6Z+pUb4DSEREREREbhjoCCaaKMRG2NDS4Zlc095cB9ujBjy/rgjm0yKXRhwcH5dhWYoeK3danA2ScZOQtLYS1k9rcXBLqufV8KAzCekVakETZ7Fs03sMd9k0U3kY3XKdtQVYuLgALU+U4MQvViPeKzfM+LuVGyocX4kxTDrETnYu97NbUZH1XaTt1SC3+gC2uw01ETpNOVhmjML2d/ICzkXTUrsPjdoVWOQ9xMQ9oYi3HoecODN2isq4FocFx6ociF+ZMjDxpsvlOrxbBSxP90rE6k4OEi3Eq2cS8NZhI9bOGJkwjKqAXkuDaK0OSbOlMseArC2VsBxYCkdlNl49NEiS30jpfCX945GMtp8NF0Wuk5hIPCQWJ0chSfqn7XOV5+y1obPZV64PIiIiIqKBGOgINh0HsezgGbhnCdB8acXLplZExsX15z6I1OejxmzEqq/LoH8yExVWpbt9RAziH7mFjafbyW5B6dI8HDmnLNOd09uNhjID5ua3I7m8DjVFqSo9KyYhSiSw9DGzx8ULKvkxvjBhTUoGqifn4cSHlcjSeifgtKJqoxmOHjM2PK3SswfSer1YLkGj8wFyUMJ71hOX6CjnjCJtF5zLHi6KPBJxiJZb5p7sJ2tRBS3S9b5nehkww4sX+6kyOUjUNqcc5vcLVWacGTnDeS3NzAxkzQLq6045Z0zxaSpmpkr/nDqDNueKG+yt+OQUkPz4dGdPjsnTMXOK9Jy/8Ty3yc46c70kTR98Fh0iIiIiIoGBjiDT2d6K+KlRHt28NVodEg66TcvpoolCUo4Rlt2piLhbZPMLUgNmXVFE6JCeZserL0iNWNENnu6YloqlWFYZia0fGJE7y/csN7GPi5avBS0DZi7pxplTFkAf1z/kSvSAeElqjLcbjKjZZkCsam+NqUgXwypUyluZIl9EHLLeEMtp/dOw+pv1JHJ6AqIh/ZbODkw42vKvvwbCdYgfEBToRkNdLTAjFUm+AgYqM7x4aN2NtOf3IbKgBgdzdKrJWkfMSL1WuL/hJsIEJC0wQNO8D9WnPL/PtsOVOBKeiufmuI6VOMxbFgMYjTjsEbh0oP69cnTGZGOxVllFRERERDQIBjqCigPtZ6wDr2xGTMXMiafQIhoIUoOqYn0Jqj/ugE1pW0RoDUi/lV3gbzU/s65EG8qwa9YBLCuzDLwSTLfH5VrsKO1A+huD55OImJ2C9HDpGH3Pa3911GBPrQaLDHP78zC0GF/HkZj1+IdcrZ8G9QTEimEVamWaeKZIxD4hlmOU4SKDzHoSl4Ll0s+r6t1adLrnoOgxo3pXF2LXLESid2DA0YRPaqVjcV5CfzDFm9oMLzd040h5GdrEsSxmUrqlhv9ajtNGVJwC5s2ZNWjC34g5q7F1jg0V2Rl4qaIWDR9L32NJJtIKW5Fc8KJHItjYjCJkxZixYUkmik1madtaVLySgTXGKcj62QrfQ4KIiIiIiLww0BFMHBZ8aDTgyQFTV8Yg+SfZSJIbDZFIeioKLVUroH9ch7T1lajvuI0zrbgbiellwyMR/6ByW5K4zgKp3etGg+Q8Myx5t3pmCvLpt2dwXDoGNXar1Di1qBQrOl1RjYgUrC3Q42JlNtJeqcQR6f56UwmWLS1Cy5x85M519bLoQoulC3hYunVK7TmlcvYmjutBZz2JwXKpUR1rLsDCrBJUn5Rep7YSLy3NQdXkFdi+XOVxrU2olv5JjvM1tEJ9hpd+vWfQfFRq6Ifb0aj2OaXSeG6EwnhDea3Tu6XzRwmqal331aJqSyZ0S/fh4oISbFrg1iPmbCUWahOwsMJ9mmvJuCik76zD/lVROLMnD8syc1DaFIl179Zhr3egJVyLTdUmbF/gwOHCbGnbQlQ7dHit1uSVfJaIiIjGms8//xz79u0bUhGPobErTP67obmvb1u8fJNGsd5utPzGhlit1KiEFcXTMoADfpJtXu6QGpHl2LGnFm2PZGDTT3KQPmNgd313jgutaGy3Q/PwVEReNmHzC2XAFjP2Put7OIKq0yWIkRpEgcry9zkC5LjcLfcSaDOtQNqXBejIY1/3wXzWeR6PRT+sLN0cmylbyYfhix7bzeVId0syavt4N35SuBfHO7qhmazFvOdz8ONM92EUzuPbfaTSAKKnj5997HxfcHttBxoKZ2HZpUJYy1L99kawt5pQ+tMyVJ++BMfEGMwzZCN3Xarq8Bnn6ziw/cNK9R4tXxiRlrIPT79/AmsHBCklF0xYqS9AvbKoJnmb9Bs0qP0Gnd9Tm8/7vQzltS5bUVEsfQdmC9rkKX81iJyZgvRlmVi1IA4R7j0sRKAj/W1gnZFTzBIREdGI2rp1K7Zs2aIsDU1lZSVWrFihLA3fSNSd6dYK29giNQBmhDHQEbSsKNVmAvuavHo4qBABkkMl2HA4Dv/wbob/GVfcG0Lhk5D4bA625/nKj+Cb7ZDU+KtNgaXCMMiUkGKqWD3a1gw/0NFYkoC0CofccF73ZiXW8irwoMbUyfpyLdboCvBQ5SlsnX37jo2WnXOx8KMV+Kh6kN8eEREREamqr/d3mUbdo48+KpeRxEDH6MdABxGNqZN1pzEDT+15CjW/Xn378j04LNisy8TFIgt2pfrvTUVEREREoxsDHaOfK9DBHB1ENCZEZxjR8eFtDHIIGh22Ws8wyEFEREREdBsx0EFEREREREREIYOBDiIiIiIiIiIKGQx0EBEREREREVHIYKCDiIiIiIiIiEIGAx1EREREREREFDIY6CAaw+666y70Xr+uLBERERERkRpRZxZ1ZwoO3FNEY5jm3ntw9eo1ZYmIiIiIiNSIOrOoO1NwYKCDaAy7L3w8ur/qUZaIiIiIiEiNqDOLujMFBwY6iMawCfeF4/r167D/gcEOIiIiIiI1oq4s6syi7kzBgYEOojFu0oMP4PKVbgY7iIiIiIi8iDqyqCuLOjMFDwY6iMa4e++5Gw8/9N/wh696cMH2Jb7qucoEpUREREQ0Zom6sKgTi7qxqCOLurKoM1PwCJP/bmju69sWL98korFLjD0UJ3XHtT/K3fOIiIiIiMYaMbuKSDwqcnJwuEpwCdvYAmyfEcZABxEREREREREFPVegg0NXiIiIiIiIiChkMNBBRERERERERCGDgQ4iIiIiIiIiChkMdBARERERERFRyGCgg4iIiIiIiIhCBgMdRERERERERBQyGOggIiIiIiIiopDBQAcRERERERERhQwGOoiIiIiIiIgoZDDQQUREREREREQhg4EOIiIiIiIiIgoZDHQQERERERERUchgoIOIiIiIiIiIQgYDHUREREREREQUMhjoICIiIiIiIqKQwUAHEREREREREYUMBjqIiIiIiIiIKGQw0EFEREREREREIYOBDiIiIiIiIiIKGQx0EBEREREREVHICJP/bmju69sWL98korGr+6sefNVzFY5rf8T169eVtUREREREY8ddd90Fzb334L7w8ZhwX7iyloJB2MYWYPuMMAY6iAjX/vg1Ln35e3xjvAYTvhmOu8eNU+4hIiIiIgo+drtduTVyIiIilFs0WrkCHRy6QjTGiSDH+Yv/iUkPPoCJ909gkIOIiIiIiIIaAx1EY5zoyfHwQ/8N995zt7KGiIiIiIgoeDHQQTSGiZwcYrgKgxxERERERP6JujMFBwY6iMYwkXhU5OQgIiIiIiL/RN2ZggMDHURjmJhdhTk5iIiIiIgGJ+rOFBwY6CAawziFLBERERFRYFh3Dh4MdBARERERERFRyGCgg4iIiIiIiIhCBgMdRERERERENCYdOXJEuUWhhIEOIiIiIiIiGnNcQQ4GO0IPAx1EREREREQ0pngHNxjsCC0MdBBR6OtpRUV2KubOl0p2JVp6lPVEochuxub5JWhwKMt3wmh4D0RERD74Cmow2BE6GOigQTkud8Puq7ASS0GgcU8hkFOLE8ekkm3Hy3usyj00pvQ61M9jSnH0KtsFK1sdXso0ojNCh6dn7cMxyx04QY+G90BEROTHYMEMBjtCAwMdIcZurUTxoQ5lSdFrRen8bFRYu5UVbqSKv1rl3tF/xVt6rE4HrY/yUu0lZTsil1ZULNZhYZXXcRiI5t1Iy96NRruyHCiHBZv1qVi2vgRVtVa02YbQuPLR+B1qo7exZDq0W8wY6ltXdcGEldOyUX1BWR4SB+oLM1B8Mth/mw501pWg4mOvfSl9N2vSC3D8C2XZnUPlfCbOca6nsNXiJZXzmKuUqsS/xH6Ny/e9X22mbMRMK0GjsqzGYS6St2m46UCKdB7WTsfKQ773qXifMZV2PDluH460apCoS0XVSYv0LTqNhvdAREQ0GixatGjQQsGPgY5gc7pEqqxKlUmPcqOSHTE5Em1b8lHl3ghoteCIIwFJj09QVtzg+Ph1xMV5P59UsX/RBJuyDaDHdvMZdJz1LAezlLuJPMQhcfY1tHzU5HYMBabxV+Vo/C2guU9ZEai7tcj6hzws/tNr+GTPi1g4OwFx+gy8VGZCo/QmElcVAGXK0JXyCLy5Sqs8UOKj8Xvjd5GK4tODNdUuoe0sYA+PQISy5k7pNOVgTZUddsdVZY0fvZfQUJGHZfN1ymfVYW5mHipO3Z4giTNIcOO8I5cs17lHg4ciNahe+7rH8Af7p2Ycf1iHpEeUFW7aqjMGns/ipGOhzD2CsQIHvc5lHWfN2K5X7vbg3K8PRUcOa792foxBeVoAAJ1ASURBVNEEzJmO2HFiyYpi9/enWrwCJ3YbOnuA2OhJygpfpiLxqQmoNrci4s91mGez46Jyz2h4D0RERES3CwMdwURceY7J8aqgn0Hrp2sQ77pKNzkVuasuofhd11U0Bxp+WY7IVc8gXq7getLcdy+gL4TF/TkPrFDuJbo58bMN0JjNaLisrAiEw4LDRgcSfRyrfo3TIHqGHulZ+dh12IzW35hRsyUV97ea0PAf0v3hccgqV4aulGciPtz5MNlkA/a6H/+u0noC2xdMkB6rgeaP15SNfbHD8SWQPDVKWb4zOo8W4IWNFiRtK5fe+yDvxWHFziUpWFbyETArB29VVmL/GzlIwkcofj4FK01dyoaBsXeYUbE+Ewv1CUpDWYe5S3Kw2WiBTa0XgXQ+06SUDfjeW1+fiwhle412JdY9ZURp/3vpwuF3zVienqIaeLg/PBLIMno8n2WbagQjQF1oMwMJfzKc/epAV3srNHFRkN6dRItciwVWpbS2Su9TPue6B2DykChvq+i2wwY9Yqcoy37EPpGKyPM22KcYsGtnKqLltaPhPRARERHdPgx0BBP5yrOrEXGjxD2hwxrRnVgZhhKfYcSJPB004jEdJpSeXIpNBqmirtxPNKJEAM592McXrWjsnYJk1OFQWSVKy8pQLBrAS1Khza712cvDYalDVY8Wi2cPL1jQsjsTG+quInZOBraWG7F2hnLHUPS0YuffLMSGjxKwtdqI3FkDe0O5c1yWGsTNUsP88hk01EoN87IirFligC7bvWeUu0GuqOsLUA8zNui97/M9RMJxugQv5Jikhn4ldonf+yDsrU1odsQg610z9m/JwKLZOiSlSt9ZxQd4a4EY/rIvsESSPR2oytFBO389PrwvBasyRWBBh62HTXhzpRZX3suG7skcHDnn3LyftQzaJ1TOZzplCIk83mQC5uWfwN7nnJ/HYd6H4oh8rJstnd3UhqmMtAvtaEMUvvWo//3v3zl0/huQFHVjn2gmTkCEUjSBBPWk99EgvY+HJirL/sRl4uAWvVcgaDS8ByIiIqLbh4GOYOLryrNU9homwXYox9ltW6fHU48rDYf5RWg8tw9pYjkuQXUMOtGwfG1xy+OiR8qL+Sh+qxZdMRNQb6xF59fAQ7MysSm3CAcLU5Qryt66UX/ICCzIwGKVIQkBa92Nl6WD/GIgDXRf7NLnWZqB0sup2PVBOZZPk0OGA8j5CPob59moggaNNWUoNlnhwBQ8vS4PewtSfXxezyvqA8rhfCTJwQLv+3I8r7K7nDNhzQv7gOXl2J+rdQY5BxGhzcSuYyZsmuW19bhJSNLrgZ4udA7WI6e3C9WvGLD5t3PxVp1FDpgkTxbPF4f4uCjEp2birfdrsD3BjJdeKEOj+36Zmad6LhNl00zp+y1zBkHiZs+FVhmOEpdlhMNcAJ343h/PweGhjo0aqgtdUuM+Bs7RGpdQnXVjn7uKbqNZuk86x/av886tYkdnMxD76GBDPnyzdXYA4RMQIe8q9feRViHdVZGhLI/G90BERER0+zDQEWq8um3fKL7GoEtcDQdXWSo1mDyoXVlWKrVEGj229h9nTbAcNqHmfVFex/LwDtz/F9nIMuiRNFuL2EgfTfDLH+FQrdRON6gPSQhU44lytC0oxFsB9GhQda4OG9IzUYEV2F9diHl+uuknrlOCD582oeNd0e1/qdSolz53ZQk25WQifY4O8VN8fF6J+xX1gUUD+T+V9QOcq8WaJQVofKoE72zSI3Kow34GcKDlNxbp3wjc7z7ER0WbMQ8bTumw/Z1CLFICVI4euzzcp9+4KKRvk77Ljt3YU6eSENmP5G1mt3OYezHCZ4qg/oa2szgDEe7cgxKuoscG780kDnu39G3EIEqOVk3C4jfcg07OUlOgk+5zH/JRjvTJYnuF3CtEh1j3dUMleq48EaUMAVF/H3uXS3ctL1eWX8di9wjbaHgPRERERLcRAx3BRp6NwauSXjLMbhqD5uhgMlK6CeF6LM+NQ1XxPrQMMsTAdrIWx8MzMF/nOzAQkP7pNW7CFyasWZKDY3+aj5oDOUgaLOIirm6L4EOEBm2/swCzpiLqZoMMFyzYuTYVWvF71uqRtsWEduUuv2xmbH4hD/UJhah5IxXRww1y9HShoSwTa4wOxK7NQLK/78BhQVWpFckFRUh3Cwh1dknfRX+DWDExBc9lAMdPnvKcvUQlufJK0zAToQ6aoyPwZKR2W5e8X13tdU2Ee9DJWR5yD+qouXxJ2pcajL9XWVY7h8vBZfcAjOcQpc52M6QDrb+njtr7kHtaaCL6lz2Go4yG90BERER0GzHQEWzUhq/kuc0gQTSKxGYUYWtEGTYb/U0124Vj75kRvcqApEHajIOJ/6sViD5ajh2DzpLiySGmtV1cBFtqPjZNt2LzEq9ZSE52wfczdqO9qRWamVOVxv0lHM83YKHI0aF1NRqdpfi0vIGnHjM2z8/E4cnZOGi2wPJ+ERK/tKJTudsnhxWly7NR/WghTuw0DCPI4ZYvRDsXa45GYvkbJhxcN8gQmOaPUN2TiudS3IdDiHwt0jc11ZX00kWD+Mf1QG0T2pQ1MpXhK2IY3mghB23CNRivLKuJnBKj3PKh54q0L129QiSRqXjLqyeEtTxDuiMDe6XbcmJQ70SgwuRhzPwyGt4DERHRHWK1WoddKPgw0BFsBuvR4dVt+0ZR75o9KLsNFwPowk6kalwMlr9ZiIjSF31P0fqFGYetcViutWNnth5x0xKgy65ES49y/yDsthvDITQzc7A14xwqXshBtXvyy14HOjvUgxX2U2VI+5syNGICHBc64JiSga37fu1s/NXtw7onbNiRPRcLCy2evRH6taP5JDBv2lRlWYOpqXnYlJuHXe+bPRqTuSoxSftHtaiamIM3N6UidvIERMbosekV0auqAzZ/OTIut6OlA1icPtyeHFORLmZckcpbW1ZgfpQDDrtUlHt9aTtjgWOWDtM9Wr5K0supA8f8OAMCl2Bz/xIH6dFRv1E/4H5nycBNjZwTPRum3O8/gONO9BCK8Q7aeLlH+dcHZ24Lt1ccp/HsBSHK/aKrxb0+ekFcQpe/OGEARsN7ICIiIrqdGOgINn56dEQayp3LYuiJaziK+22piCR/QyJPKViLNU8MbGwwRwd56L2EBmMR1iwWwQrlONHqsTDfgtgFEQODD4qWY/vQKDWrq0tK0JmyG2ZzGRb/9nVsPhTI9KYdOLxahzSja1sNkvMqkTXZjA0vG9GmDJlxfPw65s5/Hce9Agc2cxHSnt+NtrjV2H/MjJqd+VieqpUDDnLj75E4LFpbCYv4HVVlo/RjleZ/xxnU9+jw5J+7ZuaYgNhZOiTN1iExZpJHY1KtK7/DIbX8o6Xt3O+TG89dOH3GzzCOyalYlxWD6lcyUGweznAP6f2KGVeksigjD9t35yPenAn9WhM6/Qw5sp9vBWa4erEo7O043QzEq03HKn8mO664B7D89OhIzHMuy0NPlOEo7rcH5MIIxJUr6DxXhoVu5zFnuclAcCA8clv4MHkqkqRjuctHctWrXys3btZoeA9EREREtxEDHeQ/GWlnOxrmlHjm8FAKc3RQP5HE8xk9Vr5nx8xVu3FC6cFgef9t5KZOwcX2ducQjV1mz14Rva2o/0dnkCL5J0ZsN8QhcrIe8xcAjWar19Ssl3BkSxGOdLgFGxzOaV0TY9wa1uFabHqnEMlni/DDCqkxLtHMTsXy8Dq8e9Q9eOLAxbNdiMgsh/kXOUjy02jWzMxA1iwHqj52Pp87W5MZLVNmId5P4lJ/IhP0SDxViYqTSrDC0YHqPQfkmw1d/oI9GiTmmVCzRoOqrGewxhRIYCgAInnoqqXAySJUnBqsX4eX3zXhOFIxc7qy7EbuVXA7eof5SUba+e+t0KxVS9jsJ1nz7TBO7E3g6iC5bPwZ9lS7o+E9EBEREY0QBjqCjUpX75gsk0eD0Pa51KCYdiOB3qD8JCNt+ddfI3729MCfi8agbhzfkYfqqEKceL8EWalxiFZ6METGaJFsyMFb1RZYDxtRs0nvOca/1Sz38kgseBubZt7oWh89VWp1XrTjirLs1IXfHTLitHt7vrUJ1dCLjgWephiwKVeLttJyHBG9OMZpsXhVFBoPmd1yX2gQn1WOgxv10vHdjcaKHMzVid+UGDpTgiNn3Rv540WvfhXS4z42Q7NAh3hlzZA9koFdFXo0vqIM03g8FcWaFciaJX0vDw+Wr0L6DKsrUVOQgPqNC7GyqmPQIScBmSKu7jvQeWFos6S0fPprOLRar+EsTp1nLfLzRrndZzNle57LRPFKriySYCZPHcIsOj6TkXbjzCkL0hPilOWRNaRGvs0t+axUtOllaJC+b/VcupOk34Ny06cudLYC8Q8PIYPGaHgPRERERLcIAx3ByD0wYS5EsrLaSUwNacaixwetlcrsV64h/pFI+Upev5g07M99CpHy1XZg/hODJNujMa4dp00OLH/ef66IiDgtYj2u5jvQ8MtydIZnYJ3B8xjThEuNpeYuz94fti609MQhNurG0domHeuOGXpMV4nExS7OxCLU4dBHzp4S8bO+C43VjIYL8qIH+9F8pO2QPsM7ZljNRuRONOOl9BwccW3b24W2T1UacY4mfFILpM8aXuM5Up+HmtNNzlwe1jOwbkuA/ZT0GSYHEmLUIHZ5OU4U6dBQaMCy3a3SNzsYBzrNu7Eyfbf6jDjn2qVGr3+a+6OAjq4bQVald07is/qBQyQcFhw2OhCdph8YEHIPTAyY8akDLaeiMHN6YAlKr/Q4kOS1jyJmZePgc9L+kacwTsWTWo+z3RA50FZbgpX6BCUwkwDdyyZpvQUffhzg8CGHFcXp2fhwWgFqxP4212LXqll4SHqOzYsN2FA7sGeOPOSpx+57v9pb8Yl0vCQ+EmC3otHwHoiIiIhuIQY6Qs1lMw4dSsGcWa58AV7sHWjsuHGVNmJOPmoKvK6yT4xBUtwkdJrKUDp1NdJvzQVQCjFXvrqm3AqQ1Ng6ZpIav6sMSPYazhDxkGjYXoPdrVXlaLWiHgmI7m9HdaDhl62InpeAWGWNh4g4PDkLaPhCabR9KwHzYMYnTQN7KbSdqQMysrF8xiRETI5DetHryJ1sxqvvWqUGfDcaSvNR0aPH8hTPgIzDYkYV3BvPHahaMh3FUoNvyFwJIsMdaNxRguohTrcbne4MdrSUZgQQ7NBgvK0J9dZylHrnQuntkofOOKDF00/4DjDEztBDc7IODUreE8cpE3ac02LxbO/eF9LnKStElfT9rTUM8WTSWoeqy9LxMU1Z9nahFY1ugavY5ZXYv9wraDZFKzW+peOg/G2cyRpkylwvcjDngq0/4GY/WoCFO7rx9Js1zqBUnRGvPZcg3dOKiiw9tJm7BwTS5CSs5vb+nkQOSy0qpuZjV47O2fNpsnS+TdFhKnRYmyvtv/yFSPPaf3IPpw6RGFpd5zETjngch55Gw3sgIiIiup0Y6AglooGyMQ9nMjMxb6KyzltHDZYVn/DKfTCQ43QJXsi3Y+smA4et0CCmYqZBgyNlZahX6S3hi/2kSWr8auWhLgPIiRGb0OlKXiod24ffNUKzPOXGFLRSI7iiOQrps8XjHbB7dP+QOM6h5d+kxu+DSstWCXwcP9vuXHYTm2CAxliC0tpWdF7ulp4rCknfj4HjaCEWPqnDMqMGWRVFXskvpQb8RyZAr0Nif+PZjs5m5ebNuNwq/YYNcqLfrHfWD3m63ej0MuxfGyMHOwbL2RH5bD62zxEzmyzEwlcqceRjCxpqjdicZcCGk0D82jykP6JsrEIzy4B1MXV49YdlOHJSelyhEdHej+m9hPptGVhWcQ7J2/KHljy0x4ril8sRlWNAvI+eQjYxY44IRg2i05SDle/psXWwKXO9PDQpRtqlN3oxtP2mFtHPZWL5zChnUOqROCQ9LgI7qXjrcCWWXy3HsvkG7LS6hQjGa6TXvBG0s38p7ZeICM/3cekS2qUz7YzFeTj4zlLYxf47dKOHiByoONWOLpXeN/ZT4lxtRuxaP0Gc0fAeiIiIiG4jBjqCkXvyUH0B6qVVV+2tqHrFgM3nV2D7Kq/K/JdS40s03i5fQqPUmMHj/vN3dNYWYOFSM5Iq3obXxVGpRnvJ+Vxf1OHwUamu7D5lIY1REzBvXQnSYcRKqdE/d20RSo21aBAN5/7S4TkMBd2oP1YLLMjAYrXG9JQEPB3TiuKS3aj/uBYVL2Zjw6d6vLZK139s23uAqdqlSJ4hlrpx7BUd0taXofqk9HonTSjOflEOpKTPdh3EUYhfsgKbEiZ5XKkWIlIKceINLdr2rMZcnQ5aqaSV2hA7MQqJOeU4YTZhk96rd4PSIyV5wVNuvydn0KeqTGr8i6E38u/uRlHN43Ch1RlgEFPr6qTf8MfTsfXwAY+cJYHTSO/XiP1ZU5w5O/wFO0TS0Z1m1LyxFFFnyvFSZiaWvSLyNDyFTZV1qMkZJCgwLg5r3ylDeq8RL2WXoW1WGd5RAgmOc604UpGHtCdFglpgeUUd9hp85NlwTx7qSoR8wYzipZmo/tNCbF3o9b1ftsEmf59d8rGVPM3H8wq93WjcnYG5hcCm6vUDeg45pHOieC5bcw2OmaMGJEqVh1B92tXfEyJ2egra3qtE1WnnvrU1m7C52AhNagqS43TI/UUNtj+VgPhpbt+cnO+kHReVmIGcfLa2DMVGq3IuNWPzj8pwMSNVDhJoZubhnW1L8fSfu33uaPEcreh0DyTaO1C/MxP65w9Ak1mO/f6COKPhPRARERHdRmHy3w3NfX3bbjqVHt1OIhnprqmwVCg9LRxdaGyVGmrtRXj50xS8WWDwzIMgNcZ2Ll+NUqvorq9B5EwDfvp3+Zjnaxj1ZStKpcbO+Jy3sVarMvyl14rimRmo6BHPlY1d76xGolfjgILHZ53n8Vj0w8rSMPVeQuOhGhw+WYvG33Sg5YJbOGFiKnbVlmCeKyLgEIG59WhJPYDtC9SHWTnOGvFq1utynozIOUvx2sY8JPvsYeBA29Fy7KiuQ70cVBHHZwrWvVqA5WrH8Uj4ohYvra/Dk29LjX33ngo9HTiyowx7Tp5Ci9swMWF5RRO26j2bgg5rGdJeNCNqjgEL0vSYFxelOg3tkIjeXevfhiO7EMvdG923if1oHlLKHFi8KlOerjfax1sQyUh17dn9U2TjcgcabPdCcygHxZo87FqnQ6T7d3FB+s7TC6RjQhxbExCbko03X89EvI9zkKOjFpsLLXhySyEWqR07F0xYKQeLpedaXIB3tnvlmRHn2xeA/ZY8Z+8aETh5rxDF5XVoFO8hfBISn83B9jyv864H6ZyqzYD97Rv73m414ievleP46UtwyM+RJ527/ee4GeCcCWtetmBmTh6yZvseYuQ0Gt4DERHR7WVXuvtarYP3/hyMVuusq/znla9Gru5Mt0TYxhZg+4wwBjqIxrARDXQQEREREY0SDHSMTa5AB4euEBEREREREVHIYKCDiIiIiIiIiEIGAx1EREREREREFDIY6CAiIiIiIiKikMFABxERERERERGFDAY6iIiIiIiIiChkMNBBRERERERERCGDgQ4iIiIiIiIiChkMdBARERERERFRyGCgg4iIiIiIiIhCBgMdREREpO6LWqzMNKJTWSQiIiIKBgx0ENGtdboEMboSNDqUZSJ3vcq/bhw3daxYUTwtAcWneKCNBId1N9K2WeB4RIunv9qHI83KHUHOcdaINZm70dijrHDXY8bm+ZnYebpbWUF0e9iP5iFmfiXalOVAteyei7hX6mBTlm+JXot0btXhpbpLygoiouDAQAcRDZ+jG/bLUrH7aGRelorGedOdw648Tu1hPcp9QypdaPvCT0O316HyGN/FodIId7GZshGz2E/FVAR4pmWj+oKyfLu59kmAxd9nvXki+DBd+h48S/Fp5W5JY+nA+9fU+qhQu+2/ge83CrF6ad/fo3Kg9T9u4LEh70dtGRqV5WDhUL4H9zL0fdiF6iw91hzqUpZv0MRpEf9eGaq/iML852Kw45cW+Pll3RL954dAiq9zjxfNNAOen2bCy2Xen8eBhrIiNMzJQdbMCcq64HQrvjenS9LxIv1GS6zK8ug16s/PXiIemiSdwiJwv7IcqIcmxcAxORKRyrLQWDLwnOpZSoZ2vhsnzqndeOhB6T2OhAsmrAzwux+Z89zQyN9flunWBo+I6LYIk/9uaO7r2xYv3ySiseOzzvN4LPphZenmiUqlbqNZWRq65G1m7DV4VqJEZSOtQlkYkhhsqq1F1jRl0Y24aqbNqVWWBpd14Aw2zVQWvMjv70IZrG+kIEJZ50FUpJd2YLu5HOmTlXW3kbjSt7B0YANWnd7v+2zYNh0rUQnrRp1avGpoeh1Sk1IDzTjnovged0y9sf+9lz2ICrK+APXK4tCtwMGzeUhUloTGsgSk/SYflgqDR2PBH7kheakdbeeVRuLldnzSrlSLe86h8f+1wy4vONDZ3AF7lhEdeVp5zcgQAaQM+P55aKTfVI30HUYpyz6IK7VxmXBUNGGrfuCebdk5F5sn7sXBOVa8VAjk7kxFtHLfrdeKnU8bUHpOWRyMvlB9H4qAqXdbvqcdDe0aJD4e1X88X6xbj4W/1GH/22mIvVtZ6aKZgIhw5faoN0Lfm6puHH9FhzWTBzmexXdu60JLl/NXAId0+zdduCIvdKPtoya4zkwXO1phe0LlPcjHZjbw7ilsmjX0s86oPD/Lr7lPWRg6tf8fyf/vbc/22B+Dn0Pbsc7rPOjUjc4OB+6fMgkRHl+583wDlde3n7WgpXcqkuKGEASR30Md5g/63Q/jPBfA/ys0a41ozRl4HMvfaWEcDlpzVL4jCjZ2u/M8ZLUOP0Cr1TqPl/+88tWI1J3p1gnb2AJsnxHGHh1ENDJEY+7smSGXg1nK470k5qlv76t89IYBsYjB8vJ9qkEOQb5qJir2Ko/3LGZs1ysPUnUJbWeB6D+NUq9EB6KnC/U7c7BQn+C8yqZLxbItJrQobQOfejpQvTHVo1eEGnGlL7B9YoSPXaDoQmertD+mThlykEMOCHi1Mh1fXZPWe7U8laBHYERQRu1zDFIOrFAe72XI42Qu4bDU2Ev5YSGKS0tQXGHCh0qQ46Gps/CkPhWLn5oKzYVWdPZMxeK8Qux9dqp8v0y+munZq2XotNik9hlbLdi/Nk7aT/cGtq8uSA1Q6BA/1XNru3U3lmUaoZltAJqkhujkVLw13CCHzYqqLZmYq3NeVY7TG7BmpwU2n1dnIxEpfW2icTfgc3oXX/tW0rhDB63OqzydgTVZBujc1s3NN8Nx+nWkzXbbzlVe9H11195hRsX6zBu/42nScy3JwWajv8/mZrDfc+8lNEjnCdf3pp2fg+LaDj+9a0bme1M3AZEBBAXEd65bnu/8fZQacUwJctwflYAnn9Bjwfd0iOxpRdslDZKey8db63QDz6PysalFbPTQgxwjcn6+VQL6/4966Q8yyD3UvI4Asc5tOFb9Rr1yPHoVv43/dlQv0eMnJwMfutV2KBPLagINqA/VMM5zkdI5y2KB1aOYUVOU6gyohcdh8dRJqr+jyKnSc0vHZxe7dBAFPQY6iCi4SQ2B+m0GzC20Y3mtCVvnDOHK0k3rQpsZSPiTQa6Y+3QJR16ZizXvOZCUU4b9lZXYm6eH41ABFqaXqOcP6O1G20mpAfp0KjaYOpSVt0HvObSdAuL7P6sVFUtSoVWrREvlRoPNitInpEbiE64GoLPEiXU611AR0SDRIP5RH/vsQi2Kd1uV3hGjxSSkV5yB9ZgJNe9LpbIEm3JykCuV5QumwFZbgg1HNUh/R6pYHyvDVqlBnTxtaEMhOmtzoHveiLahdNHu7cLx/KVYttMhvb8PsGuw3hwSR3srGhCH2CnKCkXE5CnQNBWhuN2Ag6+nBHi13x/pWEjJQOmZSKQXVMrH+2vPR6G9LBP6tSZ03sKu6EMNmKoW1Z4iHajKkY7l+evx4X0pWJUpIqM6bD1swpsrtbjyXjZ0T+bgiK+eFYH8nnusKH5Gj2Xv2pGcVy59b+XIfaILVa8YkFbRqmx0iygBOfffrihyL7uKjAHrV5puDDcT33mrWfl9vC/9BpTfR9azCdA0l+PVHVbEF5ilbYx4a2MGFmlv9Kzp19kuH5vRrsCKtRIL5+sGvK6zeA/FGO75+TYS37M2E9Xux4m8Lg/HfTW0bbV4Sec8r8o9KcX+iEvwCMiJXpKqx7K5EMnKNgNFIfoJ4KGHhjt0S33IYn+Rgy1mbNB73xfAkJpAz3PjNIiYOMGt3IuLJ8vwcn4tHAvyUSMdn9tTVY47YcpUJEnvr7ldWSaioMVABxGNLDk3hP+r5GLc7UiMs7W3mrBBagi8dDYV++vKsHzazVz9uwk2qSItVZGiH3ZWCEVXYc8Km1TkLsqelTn3q7aRi42wfFiOTQY9kmbrkGzIw8Ff5CC6Yx92HPXMUWH/uAxpT+owN3svkJKK2zrQULnqH9t/OV+L5e8cgHnA1TJnye3vCezjapxclG7THSdQ/elSPP24/AAnjQa2yzb5+LA3WVDxW/Xa/pDyEAy108bNkCrg1WsX4tXLGTjxfiHS426+sRA9x4D5//Y6dpwI8MqqeG2p8bvmaARypcblVr3vYJ/47XU2W9BQa0SxUWokhddKx6irV1EGNh/tAianYpO0I+sLy1GvFnQbsgjMKDoBa3UJslJ18vG+KKsMB99IgeNkEapGY8oHWx02L8lGlVoMQvm+N/92Lt6qs2D/lgwkTxbnnjjEx0UhPjUTb71fg+0JZrz0QtmARMyB/p5bqvJRcUGP7e9XKucJPZYXmXAwZwpaSspxROQ+ulVUr4hbsHe5dN/y8v7l1lbnb1p1mIQHBxpLlyLtl9Oxq86I3Nk3tm8zZmCZ0bNXQOe/twKzpiLK1dvr8QzsP/Brj/dyo3gNMRiB8/NtExmF2J6BwUb0TEKkrwjjZAP2KudSyzb9jZ57AQ9ButW0yFXdT0o5nI8kOSjofd8gQ0WGcJ7zIAcl9Zi7sQmJ22phKctAvL+uPpFTMVPaHw2/8/zxy/WN9KIROicS0e3AQAcRDVukobx/jLCtdj20ytUmXyVOp8OaQ87GvLj6N3gl2V03Go1lKJYqPLqlRmCVVHGpzETi7eyj3G2HTaqoua42Jq7zrrBJpTxDusdzmMWN8c2TkLRAiwjvIRszdJgn/VPf7lnpd9jOSU+1HvvNUqNqne72VmYviCurUyFG/bhoPK6UeRZX7g0nJXmhx/5XrtrZLSj+4euI2LISiW6PiX8qG5o9BsTFTYdumw2bVulvdD+XK/hiXLdz+MiAIQa+SpnUkp6ZJ+0DtXHpI0E04rKx4fOl2P9GBmKHm88hXGrQ5sbhSIkRLYMFBHtasfNvFmLDqVnYftiItTN8B/vaqqTvVadH2o9L8O6nHWj7ty7EP1eEdw6bpWPWjJrsCFRt3IcGqWEem56D5TBih0qi0qGLwbzUgVdeI57QI1n67to+v9WzOfi+wnyjJ4LYRoedrqCL1MrUNEvHusq+bDPmSd+3DtvfKcSiR5zrHD12ab+5fffjopC+rRDzOnZjT51nwCqw33Mr6v9Ramg9l4l0r0ZwfEa2dJ6ow6GTt/B7G3BFXCniI2oi+pc9f+++dZpysMwYJX1n+UiWP/AlHF+fAdExJXZ2Khx7PvA41m2fW6TDJhIPKcs+349cvI75YZ+fbzE5EapyDMZlogL7kOZ2TDp7PHitG2Li1JsbujJy/P0/Quwv+T+V9T4N4Tw3gOZe6Th9CltrTdhuiFHvxeEhRvr/ENDSpORasreiOl+qbywuQsu0GETejsA5EY0IBjqIaETJQQ+l4uivDC244U5qGJ3cjePIwEHR/TSgissIuyx6OcQg2tVCCfeusEnl/nuVO4eg11mD0nh9oMhnS3Dw9UwkBTA+fqTZOqXGlvh8N/UlO4d5eO57EWxwoPOY1Ij/vhG7nvU8DjTa1ThocW7bai5HVpzaC6s9rzPfi2qX7cESgU6NGl7wqHUfNlRcQ9bPcpA4QkkrY1MzMO9cOar9TZdrt6B0aQZ29CzF3toypCuNbl9i08WV3yZYDpuwS2oIxYocCXP1iJaP2UmIX5CC5J4mtIlu9Bod0ldFodGrATqipOeVP12AjeXhGZjbZWB+oITBc1A4LKgqtSK5oMgjANHZJTXMn4jyzGMyMQXPSe3p4ydPeQy/Cuz37MAVaT8kT3PL7+Iy0fk69WeDpG/95TqUFpqR5PGdTULSU5EoPSimMNZjcWQ5Dvf37LmELum0o5kYcXPn9lt1fh4pctDVdRyKHEkiSbLbsSkPL/FaJwd4lccPYvDhWv4Dvo4r3r3i7PLvdOB6qQTS6L9gwc61ynBHrR5pW0wY0pE7xPPcACLo+EbJEHp8ahAvvU+cbMKx2gIs1BtQfG4u9pqbUFOUgfiJymZENOox0EFEwzakYQRq5SbGFkyd/ZT/7qe+XHPgotp78Cg2OK4p26twNv5vzByiarIY5ztErVYclypZ6U/EKSuGyWFX+WzexVmJ9eWq9H0NaMANmwbRhhLszRIJ5dQ5eoZ+TNw0efrEm9dYU462BS9i3czhPY+HiU/h2VQHqkxm9Rwl5+qwIT0Txx/NxqbngPey9IiTr9omQLc4B8Um68BkmO4RtOZTqIYBT85Qlvu1olMZEhGfugKJgwVbhsHeZEYDtHg6wXfQU7Vx5V2u+PmxjrTmj1Ddk4rnUtzfs5IcckDATGowPS41mGqbfE9zOgjVYIYSEEV7l88kqcP/3tR6Y/nO0eFv2IftpAlHJuYg1yuoGaFPxbwqI45fjsL8jBR0drp6D13F1R4gKermcmyMxPlZzCbS2HFJ/XsbtFxC22kL2gIZWnShXTo21Hp0DIUDjnMWVEi/ebv0/+KAhoV6JS91V5Xt3SsuG1Wq63VYKe7wp8eMzfMzcXhyNg6aLbC8X4TEL63oVO4e1M2c50ZA5J/qENuzDxsKuzB/pxnWytV35EIDEQ0PAx1ENExDHEagVl6p9VlhH3GnirBQ7T14FAM2n1K2VyMqVoM1/qVK9pCavSLx4I/KcHFOPrJuYjpFVVXZKp/Nuzgrsb7IXcgjbvLKqr+hK9YyeXiK5303SpzWgJ1WPw1sMf2k3oCKZmX5jmlFw1EHkvWzRniGhwlImpMiNZKlBpf31/CFCWuW5KC6Y4LUImvHRc0srHv7A1hEl3yzCW89F4GGwgzo1xrR5uMrbPn013DM0SLe3459ZC7S9Q5U1Vn8BsNuyjkTXsqvQ2xWnt8rtGqNqwEl26hs7c/A5Ic3M3112xnpu5ilw3SPnX0Onf8mNcyneidakBpMU2Kkv5dgG3JG3Tg8vVzaOe9VeiaqlHQeqvT7mxWG/71NwuI3vIZ7SEXO0TErHzVe62/k5vHWjcaPzdAs0CHeO/AQocezmTZc/MIh93LZ9awrsHFJToAc4T4UaChG4PwsZhNJm69X/94GLXrMXZop/T6VJ1OIGacGcMu3MZReF7JeEbSX/s9ZkYm4JeVwPKrBMen/xf7Oq/1FJC/doZ4cZ+CMPc6ZudRm8vE1a5qL/aNaVE3MwZubUhE7eQIiY/TY9IqY7acDtsECQSNwnrsZYtaptKVvQ5NZDssnlVjrlk+GiIILAx1ENEzqwwjkJGnuU+mJqQx9Ta13O5Oojcj0siPsi1psWJIhVwgPvmFAtL8rkUMxItPLSiZH3mQj3tfQFYnovt1qQu4ULbYe89ymtTIDGm0G5j3upykiEg5ekBpPXp1fHD22gVdYfVaCndNQDotDaqhJDdFYXzPHeJs8FbHi3z/KS35FJOiRBBM+cQvmOKT9tXJxAY5PNGD74V/jRGUJcg16xD+idMmfHIOkjELUfFCIpFNF2GBSy7HRgcbjXUhOmTXI724SEuekYFFUxIgGOuSGxDMF6FpQhnekFrK/BufITZMayNCVwdnPtwIzpno2oqVG2GlpH92YmcjNPeKPHVeGnMBQg6SV+UgWAZolmdhsrEXDx7WoWJ+BhXuAJNETx08AciS+N02E21APpcRPl06M92rwkNd6370npN/H5yIIpNY7Q4PkjdL5R6v+KYY/+8fNG4nZerxzftilcxaihnAu9dVTQQwFkY4D3cwELCyRjsfl5WgVDfKZcc7zrZIg1lmc/y9TPR4GDOlzBrd8B60GSsyxwJrj+wEOhx2InuSZj0r+TXTh9BnfOWZG5jw3dI7TJUhLr0FsUQ1qNuoROVL/LyaiO4KBDiK6Ja5IDU5Mm3r7AhhBqlOMAZYqdC1PlODEL1YjfoRyPASFcVLFfF0Eit8132hI93aguswkrTcg1l8l8/N21LvPyqBoKDQMvMIqkpEOg72uBC9V+Jjm9rIt8G7YbtrOBZBIcspUJIY70HDmxqXhi+2tsM/JH3xmlykGrHoOaDxpGdhb6otTONwc52PISByi3cagx2aU4a0s7cj0VuntRmNFJvTpe6FZZ8TBopSRC+rdSb9rwnGkYuZ0ZdmNPIxC+vbuv5nftbQP9x6rRO4TNhzekodlmYWo7nkKu6ryMf+bgOaRmw1A3k52dN7xXlejw8VLYkhNBDQ+pu4dUOKmY6507hoQZIwUAa6n8Nr7FnwkLihopGX339HZ3XhKvxstymKg7B0WNP67w/+QH2+OLjR+7HuYTmSCHomnKlHhSpzrkM7vew7INxu6fAcnhnee68bxjalYVtk6tABtjxnFL+xDVFG5PPUsEQU/BjqI6BboxplPW5GsehVvLJGqWb6uykmNvoYyA+bmtyO5vA41RalB0ejrrM5ETJYpwKFGarNdeM4eEPlsDtadKkKpkgei01SC4qgS5Or9XecHWk7/euCVdclNJSMdRFvTARw51a5eaVZ6aDi+CrRKHYVYqW3Sfsn9G5Qq//m70TDgS52KGXPcsv9LohcU4qAys0tnbRHSlKlhtel5qDjlGTzx1WDp/LgWjTMMSBKjKgaIVJ1pZNjkqSG/i7SDUdhUa8Z+ETwJhSCHRB4GpNV6DWdx6jxrkQNWUTcbkZisw9qdtbDKx7IFJ3auRlJEB1pOAfPUEpWOpJ4OHCnJwVzdjd+vvlD6PO0WHDvdFeAU4c7j3SZmpblp0rHzvPsMOSPFz/l5xDlgO9/l/H+i23CVmtwYxGYZ0eo6VymltXq19BvXIytNpcfTuDhkvb4ayTETMF5Z5c52pgkXU3VDnobc0VSJZSUfDS1w23MG72aXo9FXj6VHMrCrQo/GV5RZYB5PRbFmBbJmAYkP++4FN6zznP0Ujpqu4cm/8J0DSo3tqFHuVZlrYJCDKFQw0EFEI+/CCRw6qsXTT4ydsa22U5V4KV3X3yDQppehARZ8+FEH7CqV6ZaKpVhWGYmtHxiROyt4vic5Z8eQeuq4DxlQGRIkVdrXvmlAfXYOSisK8MLeGOwvSvF/pdphxeGDXYCxFvVDHhIwRA4LDhsdSJzjaxrQqZiZClQf8pE0dIBJiH1cg87fdt3Y/kITjlWb0DigHTcBkY9IVfXPbbiorOnXvBt/88opxG+pgdVyArtmd6H0+RUo7c9rogzLGdBVvgv1h6yI//4s5xAadxe6pGMWGO8nAOGQXlfk1ugcUgOxG8fXL8SG3xpwUFyhDXj2g5E0Mjk6NPdLjaAOtySgvWIa2C4kPqsfmBNCOXai0/RDbnT6Y68zoQqpWDD7Fg7t6O1A1YpU7Lisw9YDYvphC6zS6772XIycILL4hbnQLhnY6BxoEuL/Igot++uGMXuPM2dHwMPDVAz1/DzyOtDykQbxUz0/Q/yKIsw7mYk17kMvztXipdV1SH6nbMDUwoPrRoPZjOTpno31iqWex77PoNG90u9fuRmQyCjpPCL9nv2cMyL1eag53eQ8hqxnYN2WIGIRiJ0cwP9FbuY813EGx6FF7J8oywHqbDcDc7UDc8kQUdBioIOIRpa4crulCF1r/ScZvKEDR8rqRjSZ2K2mCZeqVO2XbjQ+W3djWXYdorMPKInSarF33Vw8JN11fEsqdEsKUN3a7dxWuFyLHaUdSH/jZiqyd4B7w04459ZIHwlxK7A14wx2lpgwPWfNoFO0dh4uR4UmB2/lnkHxDpWu3UMw/m7lhg+dh0Xix1SsWuDrKt8EJC9bgYdq8/BSgOPEY6eJJKPm/qugnSdNqJ9iQPI057K72P9RiO3rZsnHkjvbb5vQqc/EujlRiJgYhaSc3Xgr9Rx27nAm9u2szsdmcxSyFuo8r2q2foAKqxbp+oHdOcTsSQ7EiDaDTxfbzqC+OgcvFJsDn+2g2Yji2hhsejtvxKbfHbrBcnRosSmAKTxjZ+ihOVmHBqWrvuOUCTvOabF4tvfx4UBjWSGqevRYaxihWZQEVxLX3EzMu9leIoH4TQ2KrdLvsigDSTGTnHkRHolDwlTpRaeIGTRM2Pp4u9ToTMHC/Fq/ga/4xauR3FGGl0uH9ltt6/RsjHeedzuH+jHs8/Ot0GpG9TkDZnofChotct8pwUN7DHKww37WiDVLynH/lnJsuplZnFqN2PHRBDTs2evRy8I7R8fNT+/uJdAZq6Tt5GMoXPpd7ChBdXgG5usGf+xNned6HdJxFjFgmnYiGnsY6CCikSOSpGUZsPn8Cmxf5T/JYL9eG5p3mtAYyFR8I2EEppeNeEiqJJ670l9pF12F2xZkS5WxGEQqidISn4iRqlpRyK2UGgTTm7Bh8XexplapuP9WXHGKgcZuRcPHFpViRedIBH5GYHrZiIelmvnXN7aIn50Bzf+/vbsBsKlO/D/+uRjDyHjISIwUQztIg9oh/x2qTfwQ7ZStkRZRKqW0CRGW0LTULBWbsFlqZbYH41dYpdnVNJUxWcxvmZQdTxmFmQzXxP2f771nmIc7T8xl5nq/6ox7zj333HPOnXPPOZ/5Pnw4SYPGxGnFx0XXPWVvOVc8K00rJsZo2MfdNXXmQ9ozPsq6cVqulHzVWwqwbvQmz9il4VOG6I6YWA3f9ZDumhivbeeUvDRSaLj1W/rVdq/FtU3phSdnJKvHpMd1e752KwoL7DxaLw1vpg3j++muuORSP7vgW6I1OCheM6Yt14YE6wYwNk09Rkd7/UticOe+Gmj9XhW+pw25LlJhiYs1e3my0g+Yz1Fqa3ppsaYN699R3SduVg/rZumpQjdL2z6OV0ZEX/XwEkKmWzdjuqVtib1VNB8Qp1Uzo5SxdKQGlfHGNWP759b+DXV/PxT+ffEMu4oNzipb97KBXaI1quU6PfNInD74eLkmW59h88Kh7qlD2jAzRoMW7lWPmRNLDU+KlbpAw6Ys1wfufWTdKMeNVb8+k5TSPVZvDC85PDnv/ea+WSwsW5utdVHHlmoeHK6B0+OVuPBeKWGset63WNuK+2VoEm0d29bvzMIY9RtvHaulftcHq7lpbPVMeOLpgWbNxCF6Ii5eGwr87pih4PfleX8/Vzjr5n5VvA4Ovk1dvZ0Um92mqS+NVOb4noroO12ZI17UhJ7FBaslMH9kmB2n0AnW5/KcNO4307XhwAn7yTLyen70nCO8/06VfP4o4LD1XT8+2l2SavgbT3vfF4Wc0/dc6466Q/F68/3yNVAa1tZa7t/W+b6UIIALxuH+OW6ryzWzIgtWAqgKvs3Yr2uaX2mPnSPrgjhzd7Lef22+5r2fpuYDp+nVqV7amzDdiQ7cpQkfTVL/BvZFiTNT296P1bC3O2rlJw8VW7zbeSBNKd9kKfDKVgo5bN3oPhAnTUnUogHl/KvUpli1vHeJPVI681ewwi3nu6UtUPf+m/XUxvm6w/z127oh7n7fp7pjznTd3zFEgVnb9fq4kXrl8EitWm1tV3XrQjd2rLbdFafBLa0L7/iRihxv3VQWy/z1uZi/LpuG7KImKay4dbOV/h75Ff9+7uVMC9fK1NF2d4dOpSdYn3W8dUHo5Qa1R2z+z8W00RGjgjUEPO/V/1Sq3l8WpxkLt6vd6D/p5ZGRnhbus9L0wfxYPbcwVYG33KunRgzTwM728kx3gwOna0/MYq0cbQdpObu0YsbTmrxijwIbZKtet4maGt1KwdbvSlje79kZ1s1P9VDTlt9Z1mfZs/98BT86TVMHdLdu4KwtPLxdn6ycb61bqnUTm++9SmTtl/jpenKadSOXU1dht/XT7d0i1b/vbQornFJYnFsX6+FH/qQNWXXVY9QCvWbduJb+HgVlpS7Xc3HL830OgQoJj1DXW/rq/t9Gq1PhzzMnUZNvGqmD05P1Wl9PtQendbPivonZu0rP3DddWWPXamVMaTdZ5vfZvmF5K77UvzynxJZWTWSIVhbpTtN0TRylcWX+FZ6m5GJ7bzK/h/OtGybP77hnm51Kio3S326wfl/z/XXbXarF3GBnrtITfRM1IO8Yz2/vOk1+cqKWpkqdYqbrpUmeRlWde9O05sPFevP1BKU4wzX8Tws0IaqU76iSjufdCXrCuonzfL7ms41S/xHWDXvv8BLaN6mg/eZM1uTIoUrqPVGzRvazfoePKn3FdA2anazb4xL1cu+z1WZMDxmTP2yrqaUcJ5mfL9ATo+OUdNjals63qf+tkerVt6/1e1r4VZ5tmHzdcqXl9ehh2gt5fb7+9uGnStpVuPRFlF7O/zmd5/dzhXN/xgvU+e9r9agJcCzm9+zgfzcr6fNE67tmlZKCu2vUyJG6vfF2LbXOpSs2Zql5t57q0S1CN13bVmEtTds5dRWct6tyrJt+p7Xe82M0rHqsdj3VSGsmjtQTh4dq7SuenruyUq3vmIdedJc+6jF6vvV7Yy2n0Hei6Vknr42L8p0z8ivpfJWmpK826yPrnLHCNEjapK8mLJikwSU1MFpIub/nLBnWtvS0tiUwoq8GDojSzS28fTMEKvSGCDXP2yWmutZ90Zq8K0LDxw5V/xs6us8H+eXfX6gasrI8vzWpqefXKLkREeH5Pvrh6LHzv3aGTznGb5NmtXcQdACXsAoJOqwbhg1TbtO8Y0M16uG73A2keXVqj9ZMG6vn3ktVZt5fTIIaqV23vhoxerTuKKnevn0zsME8tl7TacBozRob7W6orDwy37Mu5BJuK+GGKI/nQjv94WLCBPf6JKjXJ4vPVD3J+DhWM2LjtcZ9EW5udIdp6pSH1LXkN/KZlLiOusu5uAwNcRa8CSzChEMPZGtR4jT18HLDXjLPstufuQnJVsryVVL3tvrIulHM6D5WT8VEWRff7pkLOrxLG+Ln65MmYzW1r7lZdCp9+VhNzh6pRQ95CQWs+VM2fq5PvkrWhi17rBuBPdpW+IYoKEbLkicW+UtiVlqC5s1brPc3pnl+Nxu0VLsbojRi1MO6oxwX5G6mF4KEeL2ZkKikzR31gvV+PUr41b6QzI3PE+MyNeL9sfY+MI089tM4d0Ow1s1D32la+WIZG8U9laZX+kRrtnOIlq22llfhVVJSNTsiRs43Sg703Mzv6Gutyhh0mO+rjhq2XApu2Vd/WBKrO/L93qcvjVbPaWnWo7rqNHqBlj1axpJplqwPx+q2OKf6jxiqwX3z3UBdUBW433YnWt9pcWeOi8AmERo4eromRLcs8z4p4lS20j9dpaXx8dYNsDT4rXiv4YIJxwZlzVfy9KgipZlKVdm+n00Jn/e2q1O0tS27luuuXnHKah+qVh366uaoLuraJVzNCx8/p5zKSEtW0uebtW1zolL2h2rwH+M00N5XzsTpCh++3Podvk2jXorVwKNxGrQkVC/ZDXieYZaTmqA1a5P1yZffKH2X/R1ntDe9mljz26PuoOPDspwf8yv5/OFMjdNdjycq9JZo9b4rSreHh16woMB8r7++KF4bklO17YCXcidBkZq1+uzviJv1+7ntw0V6Pd58f+fbV/mZbtvPs4FrXDgEHZcmgg4AFRR0ALgUOTct0OT/3KapMedx4wsAgI8QdFya8oIO2ugAAADlFtj5Ic0i5AAAAJUQQQcAAAAAAPAbBB0AAAAAAMBvEHQAAAAAAAC/QdABAAAAAAD8BkEHAAAAAADwGwQdAAAAAADAbzjcP8dtdblmtnM/BHDp+DZjP32BAwAAwO9kZWXZjyrOD0ePce1cyTnGb5NmtXdQogMAAAAAAPgNgg4AAAAAAOA3CDoAAAAAAIDfIOgAAAAAAAB+g6ADAAAAAAD4DYIOAAAAAADgNwg6AAAAAACA3yDoAAAAAAAAfoOgAwAAAAAA+A2CDgAAAAAA4DcIOgAAAAAAgN8g6AAAAAAAAH6DoAMAAAAAAPgNgg4AAAAAAOA3CDoAAAAAAIDfIOgAAAAAAAB+g6ADAAAAAAD4DYIOAAAAAADgNwg6AAAAAACA3yDoAAAAAAAAfoOgAwAAAAAA+A2CDgAAAAAA4DcIOgAAAAAAgN8g6AAAAAAAAH6DoAMAAAAAAPgNgg4AAAAAAOA3CDoAAAAAAIDfIOgAAAAAAAB+g6ADAAAAAAD4DYIOAAAAAADgNwg6AAAAAACA3yDoAAAAAAAAfoOgAwAAAAAA+A2CDgCoQM7E6Yrov0ApTnvCeXAezlZWcUMFLB8AAADwRwQdACo9Z5aXG/3iBl8lAFmJmhwVrdmbSlq+U0kfL1fYb/uoU6A9qQQpsW3Vsk3RYVj8IevZVM2OjFREMcMTCWYeAAAAAIU53D/HbXW5ZrZzPwRw6fg2Y7+uaX6lPVZZpemVm6M1e689WpqoaUpeGK0Qe7SAU8maET5SevNzTehShiSiEOemWPV7YJeGr56vgc3sifkdTtDDNydqwCexur2BPa3CHdKK4VH6qHeiFkU3sqcBAAAgv6ysLPtRxfnh6LEqcO18aXOM3ybNau+gRAeAinXqkJLiYuxSCV5sivVaiqFlm5FaccCep4AQhbSShr+1Xbt2lDK8NcR+TTEO7NE2RSiseflDDiOw81i9MUma/MhipdvTMuNHnt2GyLFak5OghyPzb1deCY1CcjwlUJyn7PE8xU0HAAAAUCYEHQAqTOam5Rr3m9s06JVUe0pRmRm7rJ+3acLixVpWYBiprj4rBWHL+EZJClfzJvZ46mL16xVZIJQ4O8QqxZ4tv+YDXlTy0qEKs8fdhi/3HrxYw8rh9jwFHNKKxz1VUMLDC71vhJn+tN7PtGcFAAAAUC4EHQDO3+54DYvqqMh7X9S26/qqhz3ZK3dJhWbq1C1SXQsMETrHghZllvHfNKlLK4VWtydcF6Nlb/1DqcnJXobR6mTPVkD1ugoOth+fs0YauNB7MOIZ5mtgXhgDAAAAoFwIOgCcv0OHtOe6e/Xy+4laNT26YGmHQg4e2iW1D9V5ZwXnIPO7ZKlliBrb46oeqOAGdYsZypG6LIwpWCoj33DXQnseLwpUezkzFFeFBwAAAEBZEHQAOH+dH9LaV8bqjvC69oTiOY/ukRoGqp49fuEc0p5dUmCDYJ1LwZHCXb0WaEOjhKorZiiu0dCQ6Ple5j9bmsN797KZcp70PA8AAACgKIIOABeUOyBInKRIuwRDRK/RmhGfqsxSGt90HvV2019oOFpSAnBCJ3KkrqGh9nh5FO7q9UK0oVFc97LRmvy5PQsAAACAIgg6AFxAToX2ztcA6ZyJ6n/1Zi0dH6OoR+OVUULYsXSkt5v+QsPI5fbc3hxS+udScNC5lOeI0IQzJS6Wy2v7oueg9KorUZqVmL+0hxkSNSvKfhoAAABAEQQdAC6gQDWPyNcAad8YTZ2fqLUzrTv3jydpxofZ9nxFVUj3spbGjUuvXlNuJbTR4Rm8t7tRWtUV7zwNmRZXHQYAAAC41BF0ALjomg8YrVHNpDVfbZbTnlallNhGR8WVAAEAAABQOoIOABdf9RCFtLL+3ZOpLM+UC2CPVtzfVsPiD9njF15KrLfSH0O1Yq89AwAAAIByI+gAcPGd2qP0r6TANq0UYk/yPU+bHWFXX9wqID1mJhYq/REoVbefLEkpjbcCAAAAlyqCDgAXXcZ787U0J1SDbw23p/hOekbBEhwZ+4tvF8SbrM/XaoMylZW/6EmJbXTEaKE9W0XKfG+kIhek2mMAAAAA8hB0ALiAUvXKyOlaGJ+opI3JSvo4XrPHRKvn+EQ1Hx6rpzoX3yPK+XcvG6zm7a1/zpSECNfNgwO1ZuIQPREXrw1mfQoMqcoo1GBIRsIk3XX/Wwq21nP2HE8vMd4bFC08lNbAaPllfJOsWqb0BwAAAIACCDoAXECN1LzuN1oRO1KDhg7VoJGxWnO4lZ5anKi1YyNKvG0//+5lgxXYUEras8ceD1TXp+L18tBWyvwwVsPM+hQY5mtzXqkN5x59MDFaPcdsVteF67Tyr7F6ITBWPX8zVrPjE5Wy65D34OXwHm3LC04+jtfCuARtKxSebBgfVULpj2R9lrhLmYWXmRCnGdam3n6D70vAAAAAAFWNw/1z3FaXa2Y790MAl45vM/brmuZX2mOVVapmR8TI+cZ2TehsTyrOpli1fK2VkhdGe23rwzT+OShrvpKnRynYnlY2TiXFTlL6gGka3MaOY045lfF5vJa+t05JO75Retoh7z3GBDVSu5b22rQaqkUv9j2zbmZ95rVKzNdV7B6tiVutwAEPqUcLp7YtHqtxf/tc23blr15TV2Htu6jHsNF6qm9LynQAAAB4kVWgnnHF+OHosSpw7Xxpc4zfJs1q7yDoAC5hVSPoAAAAAMqHoOPSlBd0UHUFAAAAAAD4DYIOAAAAAADgN6i6AlzCqLoCAAAAf1Rc1ZXf/e539qPi/eUvf7EfFUTVlcqPqisAAAAAgEtKcSFGntKeR9VA0AEAAAAAuGQUF2YQcvgPgg4AAAAAwCWlcKhByOFfCDoAAAAAAJecvHCDkMP/EHQAAAAAAC5JhBz+iaADAAAAAAD4DYIOAAAAAADgNwg6AAAAAACA3yDoAFBppcS2VURsqpz2eFFpWnhvtGYkZtvjlVP60mhFPL1OmfZ48bKVsjxOSzddzO1J0ys3t9W4dZV7nwIAAADFIegAcP5OZSvzsP24kKwPJ6nn0wnKsMelQ/rg6aGakXjIHi9Zu6sbKdB+XFSIguukSXXq2uPFy4wfqZb9FyvdHi9iU6xathmpFQfs8QpULyhEWSEh1tqWxqn0jxfok++Kj3bMvk5PiNVdY6x9esqeVqGs9WwlBTcsfZ8CAAAAlRFBB4Dz5vz3cg3rFaNXtha+Qc/Who+S1SP6NjW3p2j3Wr35VRf179bInlCywOq17EceWTuStW1vwfdxHs1W1uGzg9NLAJDxTaLUKlSN7XGfORCvYW3aqmW+IXK89d4LYwpMa9mmp15Js9Y9cXrJAYzhzFbG1kStiBuru26K0qCEeho1qot7W9wBToHlFhqGx3spSXJIK4Z7mdc9RGmcWd17vT1nD16XCQAAAFQOBB0AzltgxENa+WqE3r9vtFbstScaW5drXvWnNapLXpkMpzYsjlPo2Bi1q25PKifnvxer35up9pjH0pGRiog8O8wu+LTlkNJ3SM2vDVWwPaXcvAQYecOMTfY8ZwzRyh3btcsePl0Rp2Ur1irtzLREzYpqphBrZQLr1JR5UM9+ZRE5qZrR/9d64LVEZR3OUsp1E5Uw/yH1aNlIgXn7cPjyM+9VYHhriD2Dd8Pf8vKasgwLo8tQOgUAAAC4OAg6AFSIwM5j9cakQK14O1lZZsKpPVrxcpzSE0Yr4kwo0FHDlmfrg9GRBYKCAiUE3FVIPNPvWihtGB/lfjwsPl9Vl+oFK7MUvmGf0Nl+4ow9Sk+UOl4Vao+fgwN7lKRwDZ+zWMsWFxwGtrTnMQqtm1Hrm3iNS84uVAUnVRllKRYRFKEJHyVr7SsTNbxf/jeqeN7aRDHTIhek2WMAAABA5UfQAaDCNI+O08qnIt2lJjLip7urQBQIIRKnqUeh0g7uIX8Jgc5jz0xfOVzqMTPR/XhRdNmquniVuUfpClTzKz3tTpib9zMhS95w7xLrmUSNizo7rUBJjVNOOa21DLshUl27FRzCGtjzGCF9tSixleblW7apupIxO/rMuKkekv7wZj0VYb+mkgi5OlKdWoUWaROlXSPKbwAAgKrlwIEDFT6g6iDoAFDhnJti9cAiqUd7e0JFyCmhgc7CTjmVlX/27CxlKlLNm3hGO41KVmpyoWF+jPVMlGYlng1g8pcMyTpoSpSEqnH+UKM4TaK1yF6GGZJnRp0JbLwtuyQFQhkTxiROUqR7vCIaTi3YVkf3iclnStDkDflL1ZwZYovUDQIAAKh0qlevXqEDqg6CDgAVy5ms2U/u0vA3JqpXw0KNWkZN0gYt0V35b5rbxCrFfmlJUuZ1dM9fsGHPYhrODO+oiLh8N+OH92ibWqp5XsGEoLoKblBoqFfTftI7Z46pkFNTwUVrpniRqhn51sesc8GwoOwhRaexeeFIsl7ubabkhTHzNdAOboo2dGoP7lIqJWmkgQvPhi/eApn8pWrODGMrWVEUAAAAIB+CDgDnx5SeyNfjSZYzQk99Yt2EN/P0llJ61ZWx6uSeszgnlLUrUXu6FbrZdg+mUc9iGtXMdzOembFLCgo823inN01aqav90JsT1nYqX0gTHhWjJxYmKiPH83xBEZqQb12KBgj5Qoqy2rVK720JlXoHK+X1xDPtaIREz8+3XC9DORoONT3TeCvRAQAAAFQlBB0Azk9qXIEeTyLGJCirIkr2ncpW5mEpaVo/RQ5ZroMNPe1rmGox/UYmKMM9VlTmjjRlFe5e1ozfEHq2i1tvrHUuqbBGvYiRZxsgnT9NwyOlDbEj1f03sUrxGnZUJKc2vLlON4/4tdQsWoMbx2lGorNAw60lDkWqmmTJ+aP9MJ+zpUcKDufVPgoAAABwgRF0ADg/+RoP9dadabmrruxepxlPxyiyc6QejpfCRi1X6ifzNTw8UKYnl/dfe0ut+nf3HlqcStOKh2L0zIf5emipIMFt8jVAeku0nnpxuZKt7Q3btURPLj7bK0lm/Mh82+YZilZd8QxFu6UtRtoSzTgcrf7XmpFAtRs8Wnp6uja0zrfvzVBcY69FqppkKWNruJqXpb2RPIXDIwAAAKCSIugA4FPlrrpiumyp01evrd6sZcOlkAYhdpUTp1Jmj9Tk4Fj9oWdNu6rMN8r45myVlPTl0zTv2mn6Q98LUwIhsPPDGtVbyli/Wen2tFKrkuQbytQgqemmd/Yq9R/Z171r3IKiNGrpUHU9M6GcsjJ1UNZ+DSqmBxpvQ+eR+oDGxgEAAFAFEHQAqFwa3KYJU2LUqVlgvqokTqXExWjYxtu0bPptCq6+S0t/Y6rKPK41N0zTwOs8VVoemR2sF6b0LXObFEU5y1lyoa5Cm1n/bN0j01RpfiUGCMPjlWnPV5r05WM1OXSshofbE2whbVqWWNWmRIcy9Y1aKqxJvuoqyXG6o0GUZn1SMIwx7aC8fEugwmJG6vbytisCAAAAXAQEHQCqgEC1GzBdq94arU5BZjxcj7pvyJO19sW+avzNcj38QKJ6vGHdrJfxZjzz88V6YmDkmfAhYmCckpSsTz7dVbSNj2IdUvoO65+oVl6r0hTprcQMhav3mKo/JTUYWj1SL4+OKibUKNi7i/eqQUV7eMn6T6q23dK24Do3uE3PjpcmP5C/zRETMD2k5zRRbzwVce7BCgAAAHABEXQAqDDOo9nSSdNPylmlt9FhhtK7mA1sEa7m7pAjn1PZ2hY/Sf0Gxqvd/Lc0obP3W/HAoGDpm0M6aI8rbYEGjVyn5iPfUnJyslITE7RoVE81tp5aM6WvIn8zSSvSrG0phXPTIi1MlHr07n4epUhKFhYzWrfnb0tjxzf5SoMU7N3Fe9Wgwj28ZCtpXYLadWtbZJ1DBsRp5Z2pGnZvnJIOH9KGmTEa9nlPLZsTreYV0cAsAAAAcAEQdACoEJmJ09UvVhoYtFxLN5nOTxtp4ML8N9wlDcV3MZu0Z4/9KB/nIaV/vEDDbo7SXW/W1YSP4vVUF0+vLN4EN24k7T1qKqa4ZW7frPTeIzXqlpYKaVBXwU1aqtMNLRWsUD21OF5T227WuP6/1sMJeY2aHtIHU8ZqxvIEJW1MtoYELZ0yVJH3LlHGLdM0dUAV6pXkwFr9LSFCA6Na2hPyC1S74X/SC9fFa1BklIataqsX/jhE7QoHTAAAAJeAiRMnugdUPQQdAM7P4TQtnRit22bX1ISl0zRrziTp2SgNio3Xhk27lOluNNT7kLHVhAZ2cJCQdiaIUI55/pC7e9lOVzaSTjmVtTtNG+IXa/KjfRVxXZTump+pm19ap7T3x6pHadVVguqpuXZpj10UIuTajmr+4XzN+9hev93Jmv3si9rWMlo9uoRr4Mx4rRzeRTe1zQswAhV6pVNJ8ydp0NCh1jBJ8zYHa+CceCW/UnxpB289rbS8d4n9bD7OvH2yR1k/SsFBxVQSybX/tXhtA6TYEjN5Pbw4lfLmAm3oHaP+LdyL8ezbA7uUkrDc09vNTb/R34JHa+W6tVo2zKnX7+2iiF5D9cTMxVrxcbK27TbreeaTAgAA8EsEHFWbw/1z3FaXa2Y790MAl45vM/brmuZX2mPnKCdVs2dsV/8JMQrL+8v/qUNKeW+Z3kxI1Dff7NK2A95vjAObhCvMzhJaDVugl+3eUrISRitizDoFt+yrP7wRqzuapOmVPkP0/pXddXvfaPW/JVJh5eka9UC8hkUlqNcnizXQNB5qyfg4VjNi47Vml6miUldhtw3T1CkPqWsF1UExQcS8VolaFF2otEfqYvVbGapF0287W3Vk6wJ1/02cMqyHgeEPadmZtkgKMl3XRn54m5JLatOjFM4d8dpwKlq3hzu1YUoXPfxxS4W1aqWut0WpV5cuatei0ZlebPI4M63PMPlzffLvVKV8+Y2yuozVyrGRtNkBAAAqrR07dqh69XOre5sXcgwfPlw33nijMjM9fy2rVjPo/K+d4VOO8dukWe0dBB3AJaxCgg4AAACgkjnXoKNwyGEQdFQdeUEHVVcAAAAAAJe8kkIOVC0EHcAlrFo1vgIAAAAAbyHHQw89VKCtDq6dqw4+KeASFlgzQD+fOmWPAQAAAJee4kKOwsy1M6oGgg7gElYnqJayf8qxxwAAAIBLS0khh5m2YMEC92PDXDujaiDoAC5hdesE6fgJp07m/mxPAQAAAC4NpYUcedPymGtnVA0EHcAlrlHD+tp/8AfCDgAAAFxSpk+f7v736quvdv9rGh71Ng1VD93LAnCHHId+PKLatQJV97Ig1TjHPscBAACAyuBcu5ctSatWrexHqKzyupcl6ABwRvaxHB3LOSHnyVydPn3angoAAABcOkzvKqbhUdMmB9VVqhaCDgAAAAAA4Dfygg7a6AAAAAAAAH6DoAMAAAAAAPgNgg4AAAAAAOA3CDoAAAAAAIDfIOgAAAAAAAB+g6ADAAAAAAD4DYIOAAAAAADgNwg6AAAAAACA3yDoAAAAAAAAfoOgAwAAAAAA+A2CDgAAAAAA4DcIOgAAAAAAgN8g6AAAAAAAAH6DoAMAAAAAAPgNgg4AAAAAAOA3CDoAAAAAAIDfIOgAAAAAAAB+g6ADAAAAAAD4DYIOAAAAAADgNwg6AAAAAACA3yDoAAAAAAAAfoOgAwAAAAAA+A2CDgAAAAAA4DcIOgAAAAAAgN8g6AAAAAAAAH6DoAMAAAAAAPgNgg4AAAAAAOA3CDoAAAAAAIDfIOgAAAAAAAB+g6ADAAAAAAD4DYIOAAAAAADgNwg6AAAAAACA3yDoAAAAAAAAfoOgAwAAAAAA+A2CDgAAAAAA4DcIOgAAAAAAgN8g6AAAAAAAAH6DoAMAAAAAAPgNgg4AAAAAAOA3CDoAAAAAAIDfIOgAAAAAAAB+g6ADAAAAAAD4DYIOAAAAAADgNwg6AAAAAACA3yDoAAAAAAAAfoOgAwAAAAAA+A2CDgAAAAAA4DcIOgAAAAAAgN8g6AAAAAAAAH6DoAMAAAAAAPgNgg4AAAAAAOA3CDoAAAAAAIDfIOgAAAAAAAB+g6ADAAAAAAD4DYIOAAAAAADgNwg6AAAAAACA3yDoAAAAAAAAfoOgAwAAAAAA+A2CDgAAAAAA4DcIOgAAAAAAgN8g6AAAAAAAAH6DoAMAAAAAAPgNgg4AAAAAAOA3CDoAAAAAAIDfcLh/jtvqcs1s536Iyu+nnOPK/ilHzpO5crlc9tSSORwOBdYMUN3LgnRZUG17KgAAAAAA/sExfps0q71192sQdFQZPx7J1gmnU/WCL1NQrUB3gFEWJhDJOeHU0ayfVCswUA3r17WfAQAAAACg6ssLOqi6UoWYkhwm5Liy8eWqU7tWmUMOw8xrXmNea5ZhlnXOnImaHBWj2Ruz7QkXSrbWjIlUzynrlGlPKa+kmef2emfidLWMWiDrsCndpjhF9o/Vhix73DjllPOU/dhmfQxFHU7Qw5ExWrjV25NldCBew9qM1IoD9ngJnIezlVVoKLyeAAAAAFCVEHRUIaa6iinJUZ6AozDzWrMMs6xz5fwq0bqJPqRaDctWKiQltq1atil9CI9LtV9RDOdmfZaQreA24QqxJ5XLqTSlrM1W6HUdS3/97gQ9PCZeGfZNf2CdmlKbRmrsGXUHH5HjiwtMnMpMk4KD7VEj01peeKHtjRytDwoswKmk+X/SBmeaVvxvmjXma6maHRmpiEJD+Jn17Khh8XvseQEAAACgaiDoqEJMmxymusr5Msswyzo3TqV8HG/93KPZ/QveuJ8ZIuKUYs9tdBqVrNTkEobFD7mDh9vbtPK8oBjO5EQttf5NmdLT+/u2GaoVez3zepWWaD0foZuuDVTW7jQlbUzQ0rjpevg3ffXKJnuePC266Oas6Zq91luplWytiV+uTt26eAKTXcvVL2JSwRIcUa3U3H541hCt3LFdu6whbXGMAm+IUtd8iUtG/GgN+/TXWpa4SsN3PaSHfR4yRGiCvT4FhrRkLXs0XIGqaQ0AAAAAULUQdFQhpp2N8ynNkccso6yNmBZxeJ3eXOrU7TPXegkt4jWhszVPl0I3+UF1Fdyg+MF5IE2ZitJNHUsqIXJI77+5XIExcUou8r7JWvlUS2ueVmrcyDO3UaQkyW/ilKFUzfhNlG57fKJmLE/VwTrh+u2zf9LgCPtFZzRS/6HRWrN4lfWaQnat0ptbhmjEbfb6BgUqJMfalvwlOEqUrTUr4jVwaN8zJUsyE6frgWnS1DfGqlNwqAbOWaCw1/tp2NJdXkp2WNuQf7sKD1GTtEGJGhdV+LnYAgGUV6f2aM3EezXoFacGLlyt16JD7ScAAAAAoGog6EA5OJXy+p+0ppl1k983tGhoEZSpjE1S846tylG1JFspGxOl9lHq1MSe5IVz0yK9kthSo357m0IKv2+Dmsrav0vqEq5W+YogFChJ8ven1Ukt9dT7ptTCZiW/H69Vr0zUU8Oj1aNzSwVXt1+UT2CXaI3KWqek3fYEt2xtWBSn4NHD1OlcizukLde8/4zUwC5mAU6lLx+t2x7fo+Hvz9fAZp5ZFBShCX9frHYr79VdExPOVKHxiNBT+UKeIsP7E9VVkZr6fuHnRlv7oASn9mjFmGg9/GGwnvp7vKZG5UuNAAAAAKCKIOhA2aUt0biFmbpj7MPeb/J3pWmDAnX7DeH2hDLI+lwfJkjNb++oMHtSEad2acULS3QwZqyGe130Lm37VArsXFxJkppKWfknbSv29cWoHq5HP1qsgS3scbe66jE1Ua/1O9cQIFtrXl+ktqNj1O5YmpaOjlK/vwVrwl+nq1dw4bIbrTRi4QINzpmv7jcN1SsbD9nTrW0tEvbkHwKtT8H6z8v0YuWk6ZX7+mnc51006/3lerT9uaY4AAAAAHBxEXSgbHJSNePJOGXcMk3P9tyjVwZaN96fn73xNtK/WqsMReum9vaEMshKTNAHitDwXsUnEOnLJ2ryjii9MDLKe5sRuzbro73SwI7el+HcFKcZy8PVv/pyRUW0VXj/SVpTUlseboWqh9y7REqcpEjzOLyju8HOYfEFt79Msjbrk4+7q3e3mkpPmK/3607S2r9HK/03UYqI7Jivmok1REQqott8aWyCPp3USgczT9gLKeRAsl55tK8i3K+J0l1T4vWN/VSZZCVr9r0xmpdzrxYlxBUKdgAAAACgaiHoQOncVRqGaqGGaNkc065EiDp1l16//zb1mxivdHcHLmlasyhN6htZjiode/T+m+ukqGj1Kubm2rkpVo9MS1OPKdN1RzFVWzI+T9A2xejmSC9vnJOq2c8ukbOl9Vzb0Ur4JEFTr0zQw7EJyms7NGtXohY+HaMZG/OXqAhVWJQ0/K1CDXXaw8rh9mzlFRylCTOlZ8YmKPC3cVo5va+aV8/fKOhyDVeUZiXmjc/XQGu7m/edqKkDvLSXkZOoyb2G6v0mI7UyMVnJf5+uTj+mFm1XpDh712ncwKFac/VITfit9LfhUQp3By0dFdl/tGbEpyqT7mYBAAAAVCEEHSiVc3eqUo7eppdNQ5lB1oTqjdT10cVKfP9pha6bpJ43j9bCBYs1b2+gBkdHqaxtcjo3LtGMVOs1+RrlLMipjO+yFTJ8sV4bUFxVkT3a8F6qAgffpq6Fc44zAU20JryxWLOiwxXSoKUGDrlX+jBZ729crskDIxXRa6Tm7Q5V41on7Rf6VnDvaXq5SaynR5dTTjnLEiQUM1/Wpwla2mC0XprQV2FN6iqkZZQmjBliPbNLmYc98xRrd7we/s1ordhV11rQNzoY2EWj/rTa09hrYrxe/m2wkqbFKOrR5Ur3fV+3AAAAAFAhCDpQqsCWfTXrrVjdkddQpi04PEavrVuup1omasbsBDmb5TWwWQam3Y245e4eRTIOZHqmFRGosOhpWjY2wnuVFYsnLAnVqDsjC83jVMrskRr3eaRmvTFNt+et+6lspR/IVojiNfnR+cq4YaxWfrJZqStiNbxz0V5fFt6brypJvuGuhfYM5yRQPe4aps2LVynpvdHuajBnlx2jhd56TAnvqNmp9svzcTqzpOaNCjamGmB+7NGm7cVXrXHuWK5hpgpPg2jNev8fWrs4Vk9FR6ldC7s9jyYt1TVmmlatnqaun0/XOJ93dQsAAAAAFYOgA+cnOEID74q0HgTqjrExauel9xJv3O1upLbU7b3DtWH8SOsm/hyKDOSFJb0f1+DC7YKcylbWqVA9+kbcmZ5MMjcu1hO/iVLPKabaSqRmrU7UorHR6tSs+HCmwquu5GnUSK1S9ygwen6hZReuunJ2cHfdW0hIxyh1+nyxFn5shxpOa5+8/pb7YdKe4sOJg9+kKeuWiVr792kaGF5Ct77NojXit1LKx8kqLo4CAAAAgMqEoAPnZ2+8npmWqEDrpvmpniXcMOfjaXcjVWFPvajX5sRqVtQuvTIuTinutj7KypTYeFyTUyM0dXTfotVlqjdSj/Hz9VTnQOnUIW2YGa2oRxNU6/7lSl1tul+1ppcxlKlozqxD2vbhOm2ICPVU2TmcqhXe2sJw7tIHscu1raSqLS1i9NrCKKWMifKU/Liur2YEDtHwLlKnK4vvGaZ572laOSdGYUFSRsJ03RXlaQg1YuBYLSzUyGzgRdpPAAAAAHAuCDpw7kxDlg9M0gZF6YUp0WpehhtiU2Xi4QeWuHtvecP09Vo9VAOnTlOPXUs0bl6quypLWWTEj9aghXvVY2asBre0JxYjffnjGva3EE19P97dTkeBah6lKFPVlSbRWrRjrDrZo24/OnXUfljA4QQ9ccNtGrY2VK+9FOPuDnfbioma/O+sousV2EzBOS/qyYVp9gTvQqLGatWmzUo1bWukblfqzI6m116FNfHe8kkBWxfovjGfq92UVdbr1+q1bns0+/4h+UrYHFL6Duuf0JAyt70CAAAAABcTQUcV4nA45HK57LFzZ5ZhlnU+3IGFacjyQJRmrZ5fbI8o+WWlLtCggdOV1GWiVs3JF4w0i9aESRFKXzhR80qtwuJU+vLR6jc+WWGPLtZr0V56IinA9AaTqtunv3hO3aaec9WVrXvO9OpSQIO+em3HZiW/NdHdbogp3fLka2318mhvXecGqsfoWLV97WnN2FTKfqke6GlbI8iplHmxWhEUo17eeqEpJPM/m5URNVSjbgm1Xh+qrqMX6OW+e/XKvAR3VZUME8Ikhmp4v8JtoAAAAABA5UTQUYUE1gxQzolzaMuiELMMs6xzcipb25aPVmTf6drQZIgWrZt/pg2MYtmviRoYp/TuJuTwVJnIL2zgWA1vZqqwLCm+qsaBZL0y1LSx8bm6TonXytHFN1J6llMnDpv2OvNVq3GXwPB023pRmV5PHkhUD9NYagN7WmENbtMLb0RpwwND9crWUj77w2laMT7aXdpk+BtPF+2FxouQ6yIVlrhYs5cnuxtpzbL2VdtbbpOsacP6d1T3iZvVY4pdBQgAAAAAqgCCjiqk7mVBOpr103mV6jCvNcswyyoX01vJxws06KZI9ZvyudqNXqzEv49Vj9JqRxxI1uz7ojyvGbtciV5CDrfACI0a21eBu+I0+71CvYVYN/AfxA5VRNRQzfuxp2YlJOq1mJZlLGEQrptjQrVwymgtTEi1b+a9DWULkJx58xee/ZTzzLIyD2ZLzeqVsn5OpW/+Rp3/tEQT3O2I2K/f/Y0y7DnyBHYeqzes/db1Ki9LPJCmpITlmjwySuGR0Zq8sa2mvv+WZ5ll0WaoVq6I0Yl103RXVKQiIiPVfcw6hYSHqNUtE7UyMbkc+xoAAAAALj5P/YVxW12ume3cD1G5/XgkWyecTtULvkxBtQLLXAXFBBymJIcJOWoFBqph/bI1HHqWUymxQzUjp68mjIxRp7KWhtgbryemfaNbxozWHW1KuV0+laaFT69Vu7Gj1TXf8p2pcRo0Y696jX5cg7uElr9xzFOHlPLeIr2+LFkpu9KUWaTR07oKaz9Ss/4+NF87G6ma0SZGeit/byfZ+mB0pJ74UApueZueejUuX/sgu7T0N301eat5XFe3x8brtQH5qtUciNewqG80qnBbHnkOJ+jhyLFaY9al/yQte7Gvp6HSUph9c9fjiQq9JVq974rS7eHnsH8AAAAAwA84xm+TZrW375IJOqqUn3KOK/unHDlP5pa5dIcJREx1FVOS47Kg2vZUAAAAAAD8A0EHAAAAAADwG3lBB210AAAAAAAAv0HQAQAAAAAA/AZBBwAAAAAA8BsEHQAAAAAAwG8QdAAAAAAAAL9B0AEAAAAAAPwGQQcAAAAAAPAbBB0AAAAAAMBvEHQAAAAAAAC/QdABAAAAAAD8BkEHAAAAAADwGwQdAAAAAADAbxB0AAAAAAAAv0HQAQAAAAAA/AZBBwAAAAAA8BsEHQAAAAAAwG8QdAAAAAAAAL9B0AEAAAAAAPwGQQcAAAAAAPAbBB0AAAAAAMBvEHQAAAAAAAC/QdABAAAAAAD8BkEHAAAAAADwGwQdAAAAAADAbxB0AAAAAAAAv0HQAQAAAAAA/AZBBwAAAAAA8BsEHQAAAAAAwG8QdAAAAAAAAL9B0AEAAAAAAPwGQQcAAAAAAPAbBB0AAAAAAMBvEHQAAAAAAAC/QdABAAAAAAD8BkEHAAAAAADwGwQdAAAAAADAbxB0AAAAAAAAv0HQAQAAAAAA/AZBBwAAAAAA8BsEHQAAAAAAwG8QdAAAAAAAAL9B0AEAAAAAAPwGQQcAAAAAAPAbBB0AAAAAAMBvEHQAAAAAAAC/QdABAAAAAAD8BkEHAAAAAADwGwQdAAAAAADAbxB0AAAAAAAAv0HQAQAAAAAA/AZBBwAAAAAA8BsEHQAAAAAAwG8QdAAAAAAAAL9B0AEAAAAAAPwGQQcAAAAAAPAbBB0AAAAAAMBvEHQAAAAAAAC/QdABAAAAAAD8BkEHAAAAAADwGwQdAAAAAADAbxB0AAAAAAAAv0HQAQAAAAAA/AZBBwAAAAAA8BsEHQAAAAAAwG843D/HbXW5ZrZzPwQAf3Z809fK+SpVp77PlOtkrj0VQGkcNQNU/YoQBd0Qodqdr7enlt3Sz11a/JlL2/dLOSftiQBKFVRTanulNPQmhwZ38Vy6l0fSlyn6LPkr7TvwvU5y3gPKrKZ13mva5ArdFHmDut7YyZ6Kys4xfps0q72DoAPAJeHn/d/r6N/e06mfjsl1wmlPBVBejlqBqn5ZHdX77QDVuPIKe2rxtuyVhixx6WD2aWUdL/9NGgCP4NouNa5bTUuGONShmT2xBHv2HdDiZSuUlZ2tE5z3gHNWyzrvBdetq6GDBiq0aRN7KiqrvKCDqisA/J4JOX58fal+PvQjIQdwnswxZI4l9zFlHVslMSFHz5dPK/2gi5ADOE/mGDLHkjmmzLFVEhNyvPTq6zqYeYiQAzhP5hgyx5I5psyxhaqBoAOA3zMlOaimAlQsc0yZY6skpiQH1VSAimWOKXNslcSU5KCaClCxzDFlji1UDQQdAPyaaZPDVFcBUPHMsWWOMW9MmxymugqAimeOLXOMeWPa5DDVVQBUPHNsmWMMlR9BBwC/ZhoepboK4Bvm2DLHmDem4VGqqwC+YY4tc4x5YxoepboK4Bvm2DLHGCo/gg4Afs30rgLAd4o7xkzvKgB8p7hjzPSuAsB3OMaqBoIOAH6NtjkA3yruGKNtDsC3ijvGaJsD8C2OsaqBoAMAAAAAAPgNgg4AAAAAAOA3CDoAAAAAAIDfIOgAAAAAAAB+g6ADAAAAAAD4DYIOAAAAAADgNwg6AAAA4IVDX8ZV07/vs0dL0eJWh1ZGO+wxAAAuHoIOAECFq/fbAWo88UnVav8Le0rxgu/srcbPPqmgrjfYU6QajRupRpPG9ph1uxVYUwFXN7fHzqrTvav1PmNUt9/t9hTg0tI9wqG7bzy/4Y7W9sKKceK0/aA4jRx6flQ1fXmHQz27OvRGB3s6UOndqjGTn9PcMQPs8UrsV0MUG/sHPTvQHgdQIk/sPm6ryzWznfshAPiT7yfOtB/Bly77dZRqtQ9X9v+uk3PHLgXf+T+q2bqlslau0sldu1VvYH8FNLtSR/+eoNzde+xXeZh53a9NWKPjm7e6p5nlBf2qixzVq7vHDVduro4lJunYJxvd4yYMqXfPnaoRcrl+Ppipo3973/r3kPs5XFhXTB9vPzoreHRpd8c4fw6tmuVQ99r26Dk6utOl5vNc7sfzJlTT/Ve4H3p33KVnF0v1Q6UP/iuNuN2h/q2ketZT/9nk0u8/culTDsMLJiuu6N8sHxv7nP0IpeugkZPuUrtqu/TO1CVKtKdWSibo6NdSR796Ts+vsKeVQ9SQJzUg7ISSJr6md8yE81zepW5u7B/sR6hsHOO3SbPaOyjRAQA4bybMUM0A1f5lJ3vKWQHNmyngqmb6+Ycf3CFH3d63uEthBN10oz2HdNrp1Kmj2faYh8ualhW/yh1WndiyXaePnzgTkpgSHnX7/FrVgy/TTx//U45atdzjZjpw6XCp37jT7lDJ++DSp8el/yR7e+7skBdyGKNmWNOmufTiemvZ+eYZtc6lZ+dZj8e5NPcHaeAdDv1zlEP9Q6RPrXl/9eRp3fhXQg5UNVv0vTn11KmrUM+Eind5Nz026TlNeWSAoir8TRqoTYfuuvu+IXpm/ATNmfEHTbmvjf1cQTUCayugZg0F2OOAvyPoAACcNxN05H6XoYDQKxXYpqU91cNUX3HUDJAzbad73JX7s1ynT8l13LoDK4O8oMQs37yPCTPq/aaPNT1UOckp7hIexz79zF1ipMH9A90lPQCcn543O/RYpD0ih+6PcujB/2e3v3FIOmH98+m7p9V88mndl+DS155ngCon48hP1s/auvzXkeobfZdGPvKYnn3WDg3uaeCZqYBOGj7+Oc195h55jxQKqX1cBw5mK/jqTrp71AQ9e09ksaFKm5jHFPv7+9S3hOpkAfX6aPhDD3vWcdaTeuy+WxXVoaWuMDl/DenyZh3Ktl6AnyPoAABUCOd/0t3/BrQ425aGo1agAn8Rptx93+v4l6n21PKpFdFOjoAAOf9vpzvEqH/f3arZppWOJ2/ST+s+dc9z/IvNyl67QdVDrOcHRSswnMs8XFrmjavmrsZQcPBUa7k20ttz1fRljP3iwg65lLxfirzRDjZud6hDgLRm1dmSH0DVZEpAdNDt/e/S74aN0LO/H6uBbS6zpl+mNj376PbObdXSZBuH/6uvN32qNV+6X1RIin44XsNaVAOVqeL/nhS9s+AlPb98o3YcraEmnfromakjdKeXMKNd4xDVtobLf/SMX96qrbWu9+ixx59UbO+WMrXULm8dqetbNFCQ87C+3ZqshL8u0ZSxz+n51MPu0hp7/m+9drhfDVzaCDoAABXixNfblDlr7pnwwXCdcOrIW+/qp//9hz2lfByBtRTYupVyM/a6w476Q+5RQNMrdDxli3L3f6/q9erac0qnj2Yr51/J1pmtmur9tr+7XZD8zwP+7D/mj9LfuwpUSSm+6opnujc923v+nfuZS3/b4gk2/ni99eM7l35/SLq+vUNmtFhXeRo4LXEe4GLpd48eu+8u9e3a1h0W6PRh7dqSoSzrqePfrNFjE/6gsc/P1fOv/lV/iV+vpG8Oe15XSOIBa3q1BgrtZo2EttENN/fR70z1kd+PVez05zR3xmOKKRRk/JC6RnNnztU7KZnKOpqpHZ5CjvncqmtMgcTsTG37wYx30t0x96hvt7a6xlrVo4d+Uq419cBXz1nrOUPP/vE1zf3raq3Zsks/qKX6/uJK6WSGUt/3vs7ApYagAwBw3mp3bK/Gk55yN0pphtqdr1f14LpqMCxGl496QJc/PkINht5rz1121RvWl6NWTeXu2ecu2aGTuTr2aZJqR1znDjIaPT3qzHvWH3y36tz6K3d7Hid3fed+3ekTTntJAErn0PMjPKU9/n23Qw9Gex4/2Eyq1dLhfvzPEQ5Nj/LM3f3OgiVE3MNTDr1xn0MjPLMAlctnazR/wUt6bNwfNGZyrJ6f87rmv71dB45b57G6IfZMxTGlQTzVW+5uYspW1FKb/n/Q3Mfv0+96R+r6XzRV7dOH9cOxGu4qJLJLZRR0WIlvz9Wzc97TNnvKGb9uqdCaUtbe7frKPSFFCcs9pTXGTH1Jz395UD+7pxd1ec9bdf3l1mvTN2mNPQ241BF0AADOm2lI1DQoenzT1+7GQwsP59obys/7Dyj3v3tV+8aOyvnn5zr08gJ3zysHp812L9c0Vno6J0fHNmx0jx+0LlxNiZIjb77jHlzOk/aSgEvAFZ4w4uxQXNWV4npqcenGQiU/PtgvffC/+aedVj+7awrTRkfefIVLjozyzAJULj/s0rYipTS2KyvH+qdufd3imeBd9H167L4+uv3GtmpZ57iOm46lftiud+yqI2MmztCUOduVU8tM36+v3KUyyqqlYiKaK0A/KWNLij1N2vONKa1Rmk66O9J67c/We646+1rgUkfQAQCo1H5au0HK/dndo0uNJo3L1NioaRTVDMAlpbiqK0n5p52dXhbXWodRPQpGwa8dVsaRE1LtBmre7VbF3HOfxox5TFMmP2f3YmI3sL1hteb+6Tl3aZCxz7+vHUetaTVrKMdddcTj8p5tdU1t6YeMlHK1k3F59yhFNLYe7NumdzzFOcqs65Bfq11d6z23rNe7JaQiTerWko5n64A9Xrw2+t0jQ3TL5fYoUEURdAAAKoypspJXlST/cD49oZjSICe//U41ml6p4P693NVg8pYbHN1P1YKCVKdHtwLv13DkEHcpEOBSZ0rYHyj9zsbm0JeFSn5ca00tUEVlgkNmovmjtcxftIEqpVBjpGOedLep0fca8xvdQDf0764b2rdUk0ApN3OXp0HSJLsEyA+7tMPTw7lll3b9eEKqay3PnmICgjs7N1fAyQx9tWaXPa0MLu+mmB6modHD+nrt6jKU4Djr8u5DdGfby0zKoXferpgmSC/v2V3XX91SUbedbVgcqIoIOgAAFaaiq67kOX3suBw1qun4FykFllu46kqB5979X/vVgP+7Ntj64aXqSpGgwp5elqorc/fak4+79Ow0e/oMl3SlVN+avNuuwgJUFVEjHj7bGGnLEAXoZx3YtV1fbdkvU8jph5SXNGbiHzR2ZukNkn58KNv6WVeXd/eMX97vVrVtYC3j/z5VQpnTijaKGXqr2tQx771aC7fbk8uoyWVSzrFMJa1aWbTNjwIidbn1Hsr5qZSuoLsppqsd1qzLsKcBVRNBBwCg8nI4VKtDW9VsdbV02qXTx3IU1OUGdxeyNVteZc/kUeu6cDV88H73/MClZtSM0wqe7dI72136vR1KXGeCiNPS3HzhRf7hxuWe13rTM6aaRjSU/mPd/X29x6FJY6rpebtHFjVwuKuzfG+PAlVF4ocrNd+ufuJpU2Ou5ixaqeXL98vURAmqV47zx7eHlaVaury5p2pLm9o19PPhHVrz1zKWrLg8UsOfuUddG9fQ8f9uPKcSGdtWL9GUqXO1vNSApL6Caku5xw6XUGKkgW55qLva1PlZe5JXliOsASongg4AQIUpS9WVn/6RqMwZcTq+eas9RXJUry5HzQB77KyA0KYKvvN/VKPR5cr5IkUnd+9RrY7t3cs7/ZNpPe6sn7/PVLU6tRXU7ZdyBNa0pwKXEOuQqNfUoT+OrqbnOzs0O0I6scelZ+2ny+r62x1640YpeZ3LXZ//yNbTmrZHeuyBalp1m/VvM2viMZco0IEqZ88ObTtT/SS//co6Zp3DGjbPVxWlFCn79cNJ6fJGnn5kk1bM1diZf1WSe6xkod3u0rOP99H1l9dQ1ncb9Zd5a0opkXGeel6lK6y7vh8OFt9Yabs+d6lXq1o6/s16LVxFF7Wo+gg6AAAV5lyrrjhq1FC12u5a/wXkZuzVwal/1MHnX9Kxj/+l4H493aHH8U1biizTjJvp5nkzH3DJOeTSXXNd+nO29Nj9DvW8TFq1wWU/WTZ3311NCf/j0JEtLo1aL9UP9Eyf++ppPZDo0trNDvW/Svp+n/Sp5ynADyTrB1MTpU7dsgcdSvG8pt6VsntcLkUDtek+QI/9foKe6d9BTQJ/0rf/XKk5r5Yx5LDbxKnXoJvnQZk10N1tmyvg9H7tWO89wGjXZ4R+1725ah/bpY9WbixXOyFAZUXQAQCoEurefrMC2/5CzrT/uLuY9cZMN88HtvuFgu/sbU8FLh33d5e6N7Qe5EpHT0l331dNX45yaFJXh1p4ZimeNc+M/yed2OpS38Uu7bYm1cp3pfjOuy79p5dDvwyQ1iSWL0ABKrs92SekmpepiaeARhkc1remQdI6DXRNST2UXNVNv3vkScXOeFKP9emkNo1q6IfvUvTOvFjNWbWl7KHCxm914KRUu1V3TXl8iIbfc5d+V2Too1sKrf/lPe9S16ZS1v8l6x0vb1av9ZN6wA453p23RB+TcsBPEHQAAHyier267vYyandsL0f1gqcbU/Wk1vXt3M9VqxMknT4tV+7P9rNFVW/UUNWvaCTn/+1U1qq17q5jzWtrNLlCjmrV7bk8zPPOf6cpdx8tCMD/dY9waNI9Dq0aV00ZL1XTvP/nUK09Lj0w67Saz3Lp2WSX1NShp615/h1XTQdnVdOX1rz/HOXQG/fZg/WcuwxUkkt3zT6t1q97Qo4i2jv0fIT0/XaXRv3Hngb4icQDprRDA13+C894WXheU1eXd/aMe/Xf46rdoK50LFM7ktdo7ot/0JRX31Oi1yo0JflUf1mZrB3WWwY3banrO3XQDYWHiHZqY7qptV3e/T6N6dFcAcd2af0S79VWatczLahu1zuEHPAzBB0AgPNmQo1qgXYZd1u14GBd1rOHpwvYyy7Tz/vPBg/VG9ZX3f/5tfu5wGvDdHLvfjl3Ft8d36lDP+rIm+/o6Ir35XKedDdOWrd/bwXddKO715WTu87elpnnj/59tY4nF18XGfAXPXs69PQNDv3CuqJL/pdL/Z4/revmufSOqdl1yKW5b7t04wTPtGmJLiXut6Zbh+q1VznUr7NDd99oDa0lp3tp0tf/tR/kU9/06GLpfpVUy1rmo69TmgN+aG+2sk7/rBp1y9Eg6f8d1g+npdr1S+qKNUXzn/+Dxj4/V3PjN2rHeYQJP6Su1tyZMzRm3HN6bKyXYVys5m+0Z1YDXdOwrgKOZ+jjd5boY3vqGcdOKOfnn/XD1tWa88LbSiTkgJ9xuH+O2+pyzWznfggA/sS0DwHAt0yDs4WZXj0A+JbpLrgwc8MLwLfmxv7BfoTKxjF+mzSrvYMSHQAAAAAAwG8QdAAAAAAAAL9B0AEAAAAAAPwGQQcAAAAAAPAbBB0AAAAAAMBvEHQAAAAAAAC/QdABAAAAAAD8BkEHAL/mqBlgPwLgC8UdY0E17QcAfKK4Y6wm5z3ApzjGqgaCDgB+rfoVIfYjAL5Q3DHW9kr7AQCfKO4Ya9rkCvsRAF/gGKsaCDoA+LWgGyLkqBVojwGoSObYMseYN0Nvcii4tsseA1CRzLFljjFvboq8QbU47wE+YY4tc4yh8iPoAODXane+XtUvq2OPAahI5tgyx5g3g7s41LgulxmAL5hjyxxj3nS9sZOC69a1xwBUJHNsmWMMlR9XIAD8Xr3fDqCtDqCCmWPKHFslWTLEQVsdQAUzx5Q5tkoydNBA2hEAKpg5psyxhaqBoAOA36tx5RVqOGKwajRqSDUW4DyZY8gcS+5jyjq2StKhmbT2iWoKa0w1FuB8mWPIHEvmmDLHVklCmzbRk4+MUOOQRlRjAc6TOYbMsWSOKXNsoWrwxMHjtrpcM9u5HwKAPzu+6WvlfJWqU99nynUy154KoDSmBIdpeNS0yVFcdZWSLP3cpcWfubR9v5Rz0p4IoFSmBIdpeNS0yVFcdZWSJH2Zos+Sv9K+A9/rJOc9oMxMCQ7T8Khpk4PqKlWHY/w2aVZ7B0EHAAAAAACo8vKCDqquAAAAAAAAv0HQAQAAAAAA/AZBBwAAAAAA8BsEHQAAAAAAwG8QdAAAAAAAAL9B0AEAAAAAAPwGQQcAAAAAAPAbBB0AAAAAAMBvEHQAAAAAAAC/4XD/HLfV5ZrZzv0QAAAAAABUPkdypNQ9LqXtl/69V9p50KUDR6Wjx6WcXOnn09Jpa6hWTaphDUEBUr3aUpN6UuvGDl3XTAq/UooIdah+kL1QP+IYv02a1d5B0AEAAAAAQCV0PFf6R5r04dbT+nSHtD/LpTo1HXJa00/8bM8klzV4bu29O/t8rRpSYIB07KRLVwY71L2N1Lt9Nf06XKptTa/qCDoAAAAAAKiE4je79OZn0qfpLtUNlI7mWBMdpQUa5WUtz+VQvSAp2yl1D3Po/puk6I4V+R4XFkEHAAAAAACVxLeHXPrzP6UlSS53tRNTHcWda5h8w9fs9zHVXEz1lyFdHXrwV9I1japW6JEXdNAYKQAAAAAAF8n2/S79bslpdZ5xWgv+6dIxp8sTchgXIuQw7Pcx72ve36yHWR+zXmb9qhqCDgAAAAAALrCD2dIjy12Kmu3Su5uln085rME8c7FLUXjWw6yPWS+zfmY9zfpWFQQdAAAAAABcQK996lLbKaf19lcunTzTqGjlZNbPrKdZX7PeVQFBBwAAAAAAF4CpBtJjtkszPvQECO4SHJU9O7DWz6ynWV+z3mb9K3t1FoIOAAAAAAB8bPFnLt0U61LKf00bHFWv3QvDrLdZf7MdZnsqK4IOAAAAAAB8yLRxMel9l06ftidUcWY7zPaY7aqMCDoAAAAAAPCBwzku3TLHpfe+lrJO2BP9hNkes11m+8x2ViYEHQAAAAAAVLBvD0lRL3qqevx0ompWVSmN2a6U/552b6fZ3sqCoAMAAAAAgAr0n+9d+vVLp7T7B+m0f2YcZ5x2OdzbabbXbHdlQNABAAAAAEAFMSUb/udPp3XwJ4dk/X9JsLbTbK/Z7spQsoOgAwAAAACACmDaqrjjldPKzHZcMhlHHrO9ZrvN9l/sNjsIOgAAAAAAqADR86WMw9ZN/qWWcuSxtjvjsGc/XEwEHQAAAAAAnCfT1er/fe9ps+JSZtokMfvhYnY9S9ABAAAAAMB5WPyZSx987b+9q5SX2Q9mf5j9cjEQdAAAAAAAcI6273fpyXdcyjphT4Cb2R9mv5j9c6ERdAAAAAAAcI4eWS6dPm2PoACzX8z+udAIOgAAAAAAOAevferSN5n2CLwy+8fspwuJoAMAAAAAgHI6mC1N+sClo8dpl6MkZv+Y/WT214VC0AEAAAAAQDlNWeVy9zCC0pn9ZPbXhULQAQAAAABAOZgGNlekuPRzJWyb46qGnqEyMfvJ7K8L1TCpp4PfcVtdrpnt3A8BAAAAAEDxfrfktN7dbI9cJIMiHfp/raRftfbc1nsLN/77o7T7R0+4sPwL6Z87Xe5pF8udHaW/DPFdeQvH+G3SrPYOgg4AAAAAAMro20MudZ5xWj+f8txOX0jjezncAcf5lNj4Z7pL/9opLfviwoceNaq7tGlCNV3TyDf7Li/ooOoKAAAAAABl9Od/mp8XNuR4LcahrLhqGt/7/EIO41dhDvdytk6u5l7uha3m4rD3n28RdAAAAAAAUEZLklz6+dSFaWvClOAwAYcpxeELZrkm8DDvcyECD7PfzP7zNYIOAAAAAADKIH6zSzXcd9G+LdFhQofVj3lKXlwI5n1eG3Qhwg6He/+Z/ehLBB0AAAAAAJTBm59JR4/bIz5iqpaYUhbm3wsp7319VXokj9l/Zj/6EkEHAAAAAAClOJ4rfZru8mlhDhM2mJIcF5Npt8OnYYe1aLMfzf70FYIOAAAAAABK8Y80qW6g9cBHtS4qQ8iRx6eNlFr7z+xHsz99haADAAAAAIBSfLj1tI7m2CMVLK9NjsrEVGPxVdhh9qPZn75C0AEAAAAAQCk+3WH9cPimOIdpCLQy8tl6WfvRvT99hKADAAAAAIASHMmR9meZkKPib/xN164XuuHRsjLrZdav4jnc+9PsV18g6AAAAAAAoASpe1yqU7Pib/hN1ZAL1YXsuTLr54sqLGZ/mv3qCwQdAAAAAACUIG2/5PRBLyGDflm5Q448vlhPsz/NfvUFgg4AAAAAAErw773SiZ/tkQrk025cK9D/a20/qEBmf5r96gsEHQAAAAAAlGDnwYqvYmGqg/iqV5OKZtrq8MW6+mK/GgQdAAAAAACU4MBR87Nib8qrSrWVPBW/vi57v1Y8gg4AAAAAAEpw9Lj5WbE3+lWlNEeeil9fh71fK57nkxq31ZU+Isj9EAAAAAAAnPXLeVcp91TFBh2rH6u83cp68890l/rMrdhSLQHVXfpi1H/tsfMX9nqONKu940zQ4Zzqg9ZFAAAAAACo4ho/U0OnT9sjFWTr5GpVqlTHf3+U2k+t2J1QrZp08IWKa+U1cPLOgkGHa2Y790MAAAAAAHBW8OgKTjksWXFVryWJyr4fHOO3uYMO2ugAAAAAAKAEpuRBRTMlJKoSX6yvL/arQdABAAAAAEAJavjgznn3j77pWtVXfLG+vtivBkEHAAAAAAAlCAqwH1Sg//5gP6gifLG+vtivBkEHAAAAAAAlqFfb/KzYEg1UXXHZ+7XiEXQAAAAAAFCCJvXMz4rtCvZf6faDKmLZFxVddcVh79eKR9ABAAAAAEAJWjeu2JDD+Ge6q8qU6jDr6Yt19cV+NQg6AAAAAAAowXXNpFo17JEKtCy5ajRI6ov1NPvT7FdfIOgAAAAAAKAE4VdKgT5oOHPmR5W/VIdZP7OeFc3sT7NffYGgAwAAAACAEkSEOnTspG9KX1T2Uh2+Wj+zP81+9QWCDgAAAAAASlA/SLoy2NyUV/xNf2Uu1eGr0hxmP5r9afarLxB0AAAAAABQiu5trB8u35RA+J+5pytl2GHWyyes/ejenz5C0AEAAAAAQCl6t6+mej4qgZBXcqIyhR195vpufcx+NPvTVwg6AAAAAAAoxa/DpWyn9cA3hTrcbWH8c2flaK/DhBym+1ufsPaf2Y9mf/oKQQcAAAAAAKWoHSB1D7Pu0itHFuEzPg05DGvRZj+a/ekrBB0AAAAAAJTB/TdJ9WrbIz5w1eX2g4vAhBvtp572bchhMfvP7EdfIugAAAAAAKAMojs69LO7fc6KDwOuaij9ypQYuQhmfujyaZscZ7nc+8/sR18i6AAAAAAAoIyGdHWoRvWLE0hUNNMuiCnF4ZsuZIsy+83sP18j6AAAAAAAoIwe/JX5WfHBwKBfXrjwxJTgMAHHw8svdE8vLnv/+RZBBwAAAAAAZXRNI4f6daj4UGJQZNmXaYIKE1KYf02bGmYoLrAw003JDTO/CTeCR3tKcFzYgMPD7Dez/3zN8w7jtrpcM9u5HwIAAAAAgOJt3+9S1GyXTv5sjVRA4Q7TPsfWySWXQzBhxb++8fxbErMs42IEGcVySDVrSIlPOdT2St8FHY7x26RZ7R2U6AAAAAAAoBzMzfrATg7VqKA76uKqreQviWH+LS3kMEzAUalCDovZT2Z/+TLkyI8SHQAAAAAAlNPBbKntlNOeUh3naXwvh7skhjukOCz9c+fFqVriK6Y0x/Yp1dS4rj3BRyjRAQAAAADAOTI37dPucKhe7fMvpWDazHC3uWH9a0pt+FPIYfaP2U++DjnyI+gAAAAAAOAcPNzdoVYh9gi8MvvH7KcLiaADAAAAAIBz9GqMdWPNnbVXZr+Y/XOh8XEAAAAAAHCOTAObL93tUHAtewLczP4w++VCNUCaH0EHAAConH5MVOzgIYpNPGpPqIrStazKbwMAoDRDb3LojusduqzWhb+pr4zMfjD7w+yXi8Hzrr7sdeVUjnZueFN//WS/cqvlKrd6uPo8cI96hAbYM5TgVKZS31mqFVvNxYH12oZdNeSBfmpXz/N0aY5sj9dLaddranSYPaVscnZ/rnff+0AbdwWofq1MHVSI2vUZpSejzla+2vn2CG0Mf1VDri9pO6yLmz/uU5/fR6m+PaWwI4lz9MiWm7RwVBcF2dMKOqoNf/y9Vhxpqvomljp9RHu/l5q176q+0dG6yct+PLL1I/313Q+1/af6qn8iU0fqtlCPex7TwPb2O5gLx0XSgyWsl3uetU019h7v++7IjkSt/nC9UncdUUC9+jpy6IjqtwhXtz73qk/7gh/QkeRFil292x6zHN2nvWqqZvlmu7rPGD0YWcYPFgAupFNHtXPjP7QmaZO277POC/VydeRogFp3jFLPPlFqF1KG81kBuTqY8pGW/f0fSt191BoLcn+n97knWj1aeDkT/Jim95YuVcJX+5Rj5r0hSnd6+/4/mq6178Zr3Rdp2pstBTRsoYib79HQfuGqX92epxjfvfe0JsRnqs+kJRrUxp7ozY63FTPtI3ukeBEj4jQ2qgK+0825aLR1wqqo5VW07N36bO2H+viLLdbvRo49UQpq2kJ3jpiqPu5TqAk6pmtvZd0GAECFumWOSyn/del06b3A+q1qDpc6XVVNH4+58CFHXq8rPg46crXz7el694pRGnuzHRLkpGnZ1HiFjJ6onk09k7w6lakNcfO0t9czGtTWvvD73rrgmbpbPecMVkQJxYJyM9O01rqAzKyWq7V179DyYm7Wvcm1LuImJ4TowRG36uq8VmFPWRelR3PVuOHZC9Cdbw/R5PUd9OCMMepRbOMzpQUdmVo7c6lSrWvVXw6zltPQnlyACTrekAo9n/Ntov46/yPVty6kBoadvdg9mDhHL+/+tZ64p4Ma503OPaqDOUFqXM+ecD5Bh/W5fLlont6tHmVdPEepdf4L/Ox9Sl27SH/eH6UpD0epcTEX1ibc+bMe4IIPQKWXu2e95s39Stf8drB6XNdU9fN95eV+n65PVr+tjbXu0JO/7VBqmJDnyL/m6JG/7FbErdHq2T5EASczlbp6qVbvCFGfSVM1qE2+N8m0vosnLNK2q3ppaJ/rFaJ92vj3t7Xh+/BC5590rRgxXWtDu+jOnt3d56+ju/+hd9/epIMdh+nF0cV/J7vfY8wipVoPSw06rO/5bbvzlUzI/lrLXv1IITHPqGdze5ql5hVhBc8P56oSBx0HkxbpxVcTtbdWPUV0i1K7lq11dUCmtu07opw9m1S/9wwNcO9LXwUd1vl4ydtKvvZ+jerK+RQAKovDOS5FvejS7h+skUuxcIdLanG5lPi0Qw2CLl7Q4duqK99+pD+fiNaTeSGHERSuQSOv17r1acq1J3mT88Xb+qT9Q2dDDuOKKI0afETvbsy0JxS184PpWvBFriIGP6Yh3UtKUrzZrdWvZapv/pDDqB5QIOTI06dfa63+S6IOnrInlNfuz7UutLeGdAvQJ5uL3yZvgq6J0oMju+qztVt05m9IOZu04t3WejAmX8hhBNQ7G3Kcl1ylLp2sT1o8pKnDbi16EVu3qSKiJ2pKh680YcGms+sFAFVQ7o54TV+WozunPqMBnQqGHEaAdTPfc9hEPXrNV5q3aFPZzwX1u2tqnHXTe0+UItqHq12nKA2aMFEDG+3T6g+SdMSezfpS12d/W6TUhtGaOuEe9ehk5r1VD058TD21RYvfyf89G6Rrhr2ohZNHqk9Xaz5ruTf1eUxTH+ms3M1Lte4be7YicvTlO0uV2bSM50vre94s+8xwrbVfrMmNW+WbZg0VEnJUYuaPCk+/mij1HKNX51uf5ZBo9YnqoHZdb9XA6GgNGZ0XcvjSUe1Yb/0OlHQxBQC44MzN/QePVlNIXZe557+kmO012222/2KEHPn5NOj47t9fq1v3DipyuXNNB3VL+Urbij0552jbZun2rkUvvIKuv0khn27RXnu8sNZ3TNSoPh3UzEvp39Ll6tihEOvDsUdL84t+evqXX+nld9JLDG2K893mJLXrGKbG7W9U/YTP9Z09vcyuCtONSTvP7osTx5TTrF6Z/6pYXuaif1nOAxrVs2nRzzSfxlGPaVRQvN7dwdUXgCrqRJpW/C1X943up6tNCUJTfWX9Uk1/5hHFDB6imEcm6KUP0t1BQ+Ouw/Rg2KdaklS2Nhjqt++s1oXPUdVbqF2k9e/X+3Qm9v7xK/0rWbpxwK26Ov/3eq0O6tEvRLlJX2rbmaSjqW7sWrR4YdC11yvCOkPtPeB93XKS39S8nbdqyG872FNQqh8TteT1LdKtYzRjcNlL8gAALh3XNJL+9/FqanyZdet/qaQd1naa7TXbbbb/YvNh0JGp77a10NWh9mgBTXX19ek6WFwhhlO7teNAW7XwFjgEXak2si4EfXIPXU8hYen6dp89WgaNuw1Wz31LtaK8N/Wn0rVxbQd1Cw+Q6nZQZKtEpX5rP1dWzhwdvibkbNsedUPUeNdufXfCHq9Qudr22SZ16925mLZE8gtQxE0d9EnyuQVAAHCxHdz4gXLviFZrd8hhqlL+XpPj96n9gDF6Me5FzXjkDrXJPaqTntnVOCpabVZ9UEKAX7qTp60ftc7GyDk7tytV4eoYVvRb9+qwztbPTaWfr05ZyzX/ejvbZyZq3sJv1HNEtNpdZk+rSD+mafWCF/T0I0POhEPTF3ykbcXkQaZ9qXnTRut3Zt4RoxX79hYdLG5/nsrRd0lv66WJ9vyDR+iRiXO1LGlf6ecd6xrjvWes10xdr70FSuEc1WdzRijmmVX6roTSOd8lrrI+l856KNrLH3JKY9pbiZug4fY2Tl6SqL1eztnuffGCPZ/ZtmlLtWHP2S0z1WdjBk/Xautx6uujPft38Bxt+NHzPADg4rv2Cof+8WR1dzUO02aFP6vm8FRXMdtrtrsy8GHQcVR7D9YvUtTXI0B1au1W5k/2aGFHM7W3SX01sEcLqqOawZk6km2PVqgQ3XxvmNbFLdJn39uTSlM9RD0eiVbuy3P1WTkuMHLTkpTas6tau/8SFKSIG1vp3eR093NllWtdBO+7IUzN7HEFhOt/7snUvBdXaWeF1xvZrR0bO6v1VfZoaUJbK2LnPh20RwGg6tin1H+1ULf2nhPYkY1L9ee0KI2d84wGdLW+cxuG6Or2XdQnuvPZdo6qt9CNt+4uf2Cdx7r53vml9TUe1VZX25MOH91v/Wyq+t4aUwppqrbWLX3OsZJv63PSv9Z2hSmidaE2HEx4s3SpMm99SAPblvt2vVSmBOCEZ17Qiox66jH4GT37zDMae08H6eu39fzvrRvyQn/oMFVBRr8Qr32X99ZD1rzPjr5X7X60ljHnI+vTKMRa989e+70mvJqoY+2j9aSZ/5kH1KfpIa19dYImvF1KyG59Vn1G9FOz9Lf17ldnT5a5X3+gBZtDNPCRfgVL0BSwTztSrJW//nq1LWvpT9vJPR8qduoH0i8Hu9d5VK8Qfbd+kbW+Wwqu74639cgLH+hIi14aZbbtyXsU8dN6/Xnq2euMZv/PbPM9utF6fHXvke79++wzd5R7nQAAvmVKNpi2KkzDnP7aG4vZrk5XOdzbWRlKcuTxbRsdphqF/bCwkKalFJNtWK+YkgP11MxrKZGKEdDmHs14LExb547W9PfSiv9rUn61OmjQE02VsKSs7XXkKDVxi7pd38Iel4I63aSb1yeV7a+BpnHUrfF64b0gDe15dhlG46gx+mO09Lfxk/XnxN3KKW59/hOv2Ocma0Jxw5x4bbNndcs5qoNXhpS9iG5QPTX4NjNf/XEAqCpylFmnqULc33dHtf2rLbr67ltLbATbaHZ1WLFVREqWq53vLNCKnzpoaK/wM6UEcn40vVUFqI63HMJat5rWPwePlvAta0psLNqkZn3u0c1X2NPczPu9pD9/f6seHBBW/lIJpclN14rXVmlv+DC9OPVsmyERUfdo4pxn1OeyLfrz3z4/e36wq4I07vOMpj7SSze52/nooj6PTNXErtY22rPlMcHTvOT66jMpThPz2jmx539xWAftXb1Aq0sJnALC7tCDfUL02dsfaKc575p1XrJeje9+SAMKnlYLsX43zLJDPW2TlMf2T/bplxNNWObZHzdFP6Mnbw1Q7vrPlJr/Y6x2tR7846tnt820y/LYPbr6xBb9a7vn9yso1CwjTI2tx/Xdj+3xis+sAADnybRVYXofGXC9FFzKtURVY7bHbJfZvovdJkdhvg06qqiA0Cg9OHWm7muYpJdHT7e7ty2ZCUgeDPtIr6wvQ72XbOtiZad1AZO/dERAuG6MStSX270lHWlaMccOIEaP0PAJc7Rid1uNmmgXqy6kftt+1sXkGHX78W09PmGRNuz2ciF8bbTG/mGqZhQ3jIlWgX54cnMJLQBcGnKO6rD90FTD/Haz9b1aq449XsFM6YTXJ2vy+iANnPBYCb14lU9O+ipNtr7/M3/5mJ6+u2CYcTBxrqavb6QHf3+P13PI+crdnqTVh0J0551eenqpFa4evVtIydbNvX1qPfh1krsqyJ19ioYuV3frpbb2Y499+uIfW6TIO3Rn/t5pbI3/36/V0/rM3k0prYRkgFoPGKw++kh//WSfvvtwkVbXjNajfUpMOc7Pzb0Lfb4Batcxyvo3R8fyV18J66IeBYIpS2iY+5ycuqd8DZcDACqPV2McmtbfoWp+cgdutsNsj9muysi3uzkrV8fsh4Vl7rMuVEpyIqeYoqdHtXeP/bDc0rW6cMkFa1jt7XqoepCujhqmGX8crPobnlNsYukXF1f3eVI3b12gZaW013Hwi39o980dChWNDVAb64Lnk396660kXAPH2AFE3Ota+MIzGtUnvOTSFdXrqd2AZ7TwmRu09/UXSl2nUtVrpGbfZupImUqsWI4e0t7rm6qCrtkB4MIxJdKsr0xP+xv11My60z5yoriz2Vm5x60Xlees+v3n+vPkCVqwO0yjpk/UgGsK3bgHlPDn+RO57t5ZmjUqXCUlRztXv6DHp36ogAETNXVY5wJhg+lC/cXXD6nn0xUXqhR27Kg5X16pxl67TLfWOTTc+pmmvHv2o9+nSbWs84W3ahd2yZWzPCUqAq5s5L3UZ8CVutr6vHJ3H8rXe00xalnn1iG36rt3JmvyOyqlykohPx4td/gfEVq0gfWA2uYz3qK9hzzjeXIzd+uz9fFasWSu+zrlkRGe9jgAAFXb0Jsc+mysp6pHvdpVsyqLWW+z/mY7zPZUVj4MOgJUJ7u4G+McHfkxXM28N8JhXXzUUdD+I/n+opbfER3Za10QnVOX8WHqU7jkgjX0CbOf9iaohXo+9JiavRuvL0u7qjHtdQzprb1vxGtbsQ2CZir1X/sU8NWiIoHL5BXpqvP1l0qtyPZHGnbQoDG3au9rH5W/V5cCmqpN103aWcaQKTdjpzLbtCh30V4AuPis77t6Xyvd/V0cotYdmuq7DxNL+F73+C5ttyJalu3klLM9XhMmvqG9Hccobuow3VT4L/iWkBATCOzTXm/tPx3JtL7TWygk/5esaXfjtd9rcmKI7psZp4nWyS2owI37UW384CPttZa5etoIuwFLe5j2kXuO1dMqqlHLoBJzGllnh5r5n7+sZpHSHCVpUPLCreuIgEIBSTHqBKnxiVzlqpHql97StsWcC61/Nm/Xt+f59wPvcrUzfrKGj5muv36Wqdy6rdVzwD169OnB6mHPAQCo2tpe6dCGpxya0FuqWUOqYc7VlT3zsNbPrKdZX7PeZv3NdlRmPgw6TM8qxdwYn9qnHbvb6uri/ppkelY5vl3ealzox93a0bq1rinrX10qQkCImjUrVLS0OA276MnfSUteLaa9jm8/1/8qWk97CVzMMLbPf7XmiwoumtqwqZodOlZMCZmyClJEtw5K+KRQo2leWRfTH6UVaIMEAKoO6/suqr71fWfayJCa3TpMA+qs1/OT52p10m4dzM7RQeu7fPUHW86WGvgxUe/+p6siiv7RvqjdqzR55keqP3iGpkYXXzqvfovWaqwt+i6j6Lfud+mb3CUSrjkTkOToywUT9OeMKE2dOkw9Qr0FAUFqO8A0WulliDG9uEg3xpjx82vUsk49c3L/RnuLadR7754062crNbOvAQKCrAeH9irT2znfLrlyVpBCrpEO/ne/9xIVufv13XapcWgxJT7yO5GuFa+vku4eo1Fd0/Tnv5SlnS1zLrxVASfWa8Un5eiirax+TNK77+3W1YOn6tVJIzUoupd6dApXu1ZN5aPKUwCAi+Th7g5tn1JN99zgcAcIlZlZP7OeZn3NelcFPi3R0e6GDtqYVLT189ytSdpm3TTntSxfVFNFdD+kT74q2jbG3q+SFNQ5vPQLmAp1TCezglSnjHWZA9pG68Gm67VkY9GLoO++TlSLnl3dDYh5c3XXXtKnW7TXHq8QuTnKbVSnXH8t8yagfS/d9+PbWpBUchBz8JM3tDZ0mHxZ1RkAfCmg/R3qm77IU+2vVpgGTv2jno0K0BdvT9cTjzyip1/+h76tU89z82lKUixZrzZDbi32u/2sHH22Kl57ox7Tk1Gl1B1p0Vm3NZXWrksqeAN+Yos2rMpUs355PXdZvl2vZUlNNeixktrdCFDjsLyGKwsNrTzr0riVGT+/Ri0D2t6gnrUy9e67XoKDE2na8OFuBfTsrgj7RH71Lzpba/a5Ev5V6Jx5Kkepa98uVBrRXB+ESckf6F0vVTIP/usfWqsw/U9kaSegXO18b5FWq58e7N1BN909WBFfL9KSMlRTNefCoR0DtHPpdL20voRGv8/Fj5nuhsCvuaLg70bu1q+s7fJuW2YF/3EEAHDBNK7rabsj8SmH7uxoSk24PCU8dLG7o/Wsh1kfs15m/cx6mvWtKnzaRkdAeC/12bdUy1LyBRbfJ+qldwIK9haSs0l/fmSyVucr/dG42z1qtta6Yc5XrCNn+9t6ZWtXDbzhbMyR89UiDZ9oiuJWgKNbtHp9esGeVnKti474pdoY2Vs3ljldCVDrux9SxMalBS9Mcq0LvLUd1DPf+hdxxQ26OfgjfXkuXRSmJ+q9lH0FL7qyd1sX4B/o5KBbSwiWysjdle5DCv3HZE2O36K9harY5Gama+2i6Xpl/681tlDjdwBQtdTTTY8MU513X/Ccw0y7R31Gamrc61q+dIn+EjdRo25toYCc3VobN0/f3TqmlN46bKd269tkqVmtHO3YmqZtXoadmXknoabq+UAvNbNuwCf88W1tSLGeT/pI86bP1dqGvfRgvvPowe+266AaST8UXZ5nsM4N9rw+FxCuQU/3UuPNi/T05PlaneRZh9TEtzV9zAtaXbOXJt59tncZtemth9zBwWRNWLReqWZ9UxK17I/jtbbWrYUaI7WuD3o8pAc7Zmr1tNGa/naiZ/6tn2v1q5P19KI0RYx4SD29VAXKL3d7vF5Znas+v7tDrc2KhERp0OAwpS5aWqTr2yLc58KpGhIpfblksh4eM0dL4tfrM7MeSeu1Ij5eS+Im6L0d9vzl0aKtbq4lrV0wR+/Z++2z917Q6I3HFGHPclZTXWOtQ+5HH1jnfmvexPX68ryrHAEALgZTDeQvQ6pp04RqeuhXDtUJNG142E9eqAIU9vuY9zXvb9bDrI9Zr8peTcUbzxqP2+pyzSzQx0bFMS3KL12gd9Ny3fV1A5pH6b7Bt6p1/nt9E3T8/h9qM/mZgi2N56Rr9euLtGFfgPu19dtHa8jdHQo0rGaCjsfXhWnG+Kiif0nb8bZiUm7Q8ntKaoQjn1NHtW3DB1r7yVdK/bGOtbxMHWvYQT3vuV8D2hesd73z7SH6otMSDWpjT/AmM1GxS6UHx0S526rI3bpUD2/tqoWlrE9O0lxN+P4Ovey+aj6qDX98Qxo2Rj2KadjtjBP79NnqD/TxF1u080R91ck5ojphXdXnnmj1aJFvh/9ordcia71+71kvr8w8a5tqrLd1PZWjvV8n6t11Sdqenqk6VwTooLW/Wl/fWbf07K2brik5ETqSOEd/1gMaG3VODa0AwIVjzgur5mvJ1/XUo+evFXFtUzUIyNXh/bu1M+UfWv2f+urzwOBiqop4Yb5bRy9Sqj3qTcSIuALfjzm7E7XizXh9suOocus21Y1Rd2jggC5qlq/khjknTS6xtcpemrr0HrW2x4ow58tpH6nPpFLOa4XZ29PMy+tyv9+i1W/Ha+3W3Tpywjr/NwzTjT2jdV8vL9V1zH7+6C2tWP25dmZLQU076+YB0Rp4bbpespavQvvEzL/TOl//ba11HtpnIpwgNbshSncOuEM35T/feXNii5Y8NkefdBujhUM6nA1cTBezE6frvZBhevlJLz3GeHFk63q9tz5RX9jbaAQ0bKFmTa9U3yEj5Wl7JV3LBk/X3sLbYHjZ77l7ErVssf1516qniFsfsK59grRuyHSt7jOx4DVN5iYtefUNrU3Psd73Vj05c/CZkjIAgKotfrNLb34mfZruUt1A667QnO4cpqRHRYYO1vJcDtWzzh3ZTql7mEP33yRFd6x6wUYex/ht0qz2Dt8HHQAAVHUnMvXd5i36Yp/dYkT9ZuoY3kGtm3JXCQAAfMd06vaPNOnDraf16Q5pf5ZLdWo65LSmn/jZnsld1aWkcOLs87VqSIEB0rGTLl0Z7FD3NlLv9tX063DJ3RlYFUfQAQAAAABAFXIkR0rd41Lafunfe6WdB106cFQ6elzKyZV+Pi2dtoZq1aQa1hAU4KmO0qSe1LqxQ9c1k8KvNN2eO8rY41jVQtABAAAAAAD8Rl7Q4dPGSAEAAAAAAC4kgg4AAAAAAOA3CDoAAAAAAIDfIOgAAAAAAAB+g6ADAAAAAAD4DYIOAAAAAADgNwg6AAAAAACA3yDoAAAAAAAAfoOgAwAAAAAA+A2CDgAAAAAA4DcIOgAAAAAAgN8g6AAAAAAAAH6DoAMAAAAAAPgNgg4AAAAAAOA3CDoAAAAAAIDfIOgAAAAAAAB+g6ADAAAAAAD4DYIOAAAAAADgNxzun+O2utz/AgAAAAAAVFWz2ntyDgAAAAAAgKpP+v/prOUqtSIxrwAAAABJRU5ErkJggg==;" vertex="1" parent="1">
          <mxGeometry x="200" y="680" width="1082" height="1154" as="geometry" />
        </mxCell>
        <mxCell id="fEDAulFBuKIm05n7aj-W-2" value="1" style="whiteSpace=wrap;html=1;aspect=fixed;fillColor=#e1d5e7;strokeColor=#9673a6;" vertex="1" parent="1">
          <mxGeometry x="440" y="1080" width="20" height="20" as="geometry" />
        </mxCell>
        <mxCell id="fEDAulFBuKIm05n7aj-W-3" value="2" style="whiteSpace=wrap;html=1;aspect=fixed;fillColor=#e1d5e7;strokeColor=#9673a6;" vertex="1" parent="1">
          <mxGeometry x="440" y="1149" width="20" height="20" as="geometry" />
        </mxCell>
        <mxCell id="fEDAulFBuKIm05n7aj-W-4" value="3" style="whiteSpace=wrap;html=1;aspect=fixed;fillColor=#e1d5e7;strokeColor=#9673a6;" vertex="1" parent="1">
          <mxGeometry x="440" y="1220" width="20" height="20" as="geometry" />
        </mxCell>
        <mxCell id="fEDAulFBuKIm05n7aj-W-5" value="4" style="whiteSpace=wrap;html=1;aspect=fixed;fillColor=#e1d5e7;strokeColor=#9673a6;" vertex="1" parent="1">
          <mxGeometry x="440" y="1280" width="20" height="20" as="geometry" />
        </mxCell>
        <mxCell id="fEDAulFBuKIm05n7aj-W-6" value="5" style="whiteSpace=wrap;html=1;aspect=fixed;fillColor=#e1d5e7;strokeColor=#9673a6;" vertex="1" parent="1">
          <mxGeometry x="440" y="1350" width="20" height="20" as="geometry" />
        </mxCell>
        <mxCell id="fEDAulFBuKIm05n7aj-W-7" value="6" style="whiteSpace=wrap;html=1;aspect=fixed;fillColor=#e1d5e7;strokeColor=#9673a6;" vertex="1" parent="1">
          <mxGeometry x="300" y="1560" width="20" height="20" as="geometry" />
        </mxCell>
        <mxCell id="fEDAulFBuKIm05n7aj-W-8" value="7" style="whiteSpace=wrap;html=1;aspect=fixed;fillColor=#e1d5e7;strokeColor=#9673a6;" vertex="1" parent="1">
          <mxGeometry x="500" y="1650" width="20" height="20" as="geometry" />
        </mxCell>
        <mxCell id="fEDAulFBuKIm05n7aj-W-12" value="8" style="whiteSpace=wrap;html=1;aspect=fixed;fillColor=#e1d5e7;strokeColor=#9673a6;" vertex="1" parent="1">
          <mxGeometry x="731" y="1650" width="20" height="20" as="geometry" />
        </mxCell>
        <mxCell id="fEDAulFBuKIm05n7aj-W-13" value="9" style="whiteSpace=wrap;html=1;aspect=fixed;fillColor=#e1d5e7;strokeColor=#9673a6;" vertex="1" parent="1">
          <mxGeometry x="960" y="1650" width="20" height="20" as="geometry" />
        </mxCell>
      </root>
    </mxGraphModel>
  </diagram>
</mxfile>
